<svg preserveAspectRatio="none" width="100%" height="100%" overflow="visible" style="display: block;" viewBox="0 0 45 45" fill="none" xmlns="http://www.w3.org/2000/svg">
<g id="Flags">
<g clip-path="url(#clip0_4889_823)">
<rect width="44.9915" height="44.9915" rx="22.4957" fill="var(--fill-0, #1A47B8)"/>
<path id="Vector" d="M56.9892 0H5.99886C2.68578 0 0 2.68578 0 5.99886V38.9926C0 42.3057 2.68578 44.9915 5.99886 44.9915H56.9892C60.3023 44.9915 62.9881 42.3057 62.9881 38.9926V5.99886C62.9881 2.68578 60.3023 0 56.9892 0Z" fill="var(--fill-0, #1A47B8)"/>
<path id="Vector_2" opacity="0.5" fill-rule="evenodd" clip-rule="evenodd" d="M5.99902 34.4952L8.99846 32.9955L10.4982 29.996L11.9979 32.9955L14.9973 34.4952L11.9979 35.9949L10.4982 38.9943L8.99846 35.9949L5.99902 34.4952ZM35.9933 9V11.9994H38.9928V9H35.9933ZM44.9916 11.9994V14.9989H47.9911V11.9994H44.9916ZM32.9939 17.9983V20.9977H35.9933V17.9983H32.9939ZM41.9922 20.9977V23.9972H44.9916V20.9977H41.9922ZM38.9928 29.996V32.9955H41.9922V29.996H38.9928Z" fill="var(--fill-0, white)"/>
<g id="Group 13">
<path id="Vector_3" d="M28.495 7.63867H7.49894C5.8424 7.63867 4.49951 8.98156 4.49951 10.6381V25.6353C4.49951 27.2918 5.8424 28.6347 7.49894 28.6347H28.495C30.1515 28.6347 31.4944 27.2918 31.4944 25.6353V10.6381C31.4944 8.98156 30.1515 7.63867 28.495 7.63867Z" fill="var(--fill-0, white)"/>
<path id="Vector_4" fill-rule="evenodd" clip-rule="evenodd" d="M16.4972 19.6352H7.49886V16.6358H16.4972V10.6369H19.4966V16.6358H28.4949V19.6352H19.4966V25.6341H16.4972V19.6352ZM23.9957 22.6346V25.6341H28.4949V22.6346H23.9957ZM23.9957 10.6369V13.6363H28.4949V10.6369H23.9957ZM7.49886 22.6346V25.6341H11.998V22.6346H7.49886ZM7.49886 10.6369V13.6363H11.998V10.6369H7.49886Z" fill="var(--fill-0, #F93939)"/>
</g>
</g>
</g>
<defs>
<clipPath id="clip0_4889_823">
<rect width="44.9915" height="44.9915" rx="22.4957" fill="white"/>
</clipPath>
</defs>
</svg>
