<svg preserveAspectRatio="none" width="100%" height="100%" overflow="visible" style="display: block;" viewBox="0 0 25 30" fill="none" xmlns="http://www.w3.org/2000/svg">
<g id="Group">
<path id="Vector" d="M0.014103 7.93039C0.843855 7.71201 1.63598 7.42847 2.46573 7.21009C3.29548 6.99171 4.08761 6.70817 4.91736 6.48979C5.1505 6.44208 5.17804 6.33929 5.13033 6.10615C4.75137 4.84775 4.41003 3.65452 4.03107 2.39612C3.98336 2.16299 4.01091 2.06019 4.24405 2.01248C5.00863 1.83173 5.67041 1.62344 6.39737 1.37752C6.6305 1.32981 6.66813 1.39498 6.67821 1.56294C7.01955 2.75617 7.39851 4.01457 7.73985 5.2078C7.77747 5.27297 7.8151 5.33814 7.82518 5.50611C8.4218 5.33544 9.08358 5.12715 9.6802 4.95648C9.74537 4.91885 9.73528 4.75089 9.76283 4.64809C9.4692 3.688 9.2132 2.79308 8.98474 1.79536L8.72874 0.900437C8.65348 0.770096 8.68103 0.6673 8.84899 0.657218C9.61358 0.476468 10.3405 0.230547 11.1703 0.012171C11.2355 -0.0254551 11.2731 0.0397141 11.3383 0.002088C11.6319 0.96218 11.8879 1.8571 12.1439 2.75202C12.2668 3.1155 12.3898 3.47898 12.4476 3.88008C12.4953 4.11322 12.5981 4.14076 12.8312 4.09306L15.5462 3.82895C16.4237 3.84371 17.3112 4.02644 18.1437 4.41476C19.2946 5.05368 19.9618 6.05878 20.3031 7.25201C20.5215 8.08176 20.6371 8.88396 20.4168 9.70634C20.2515 10.3231 19.8806 10.8848 19.4721 11.3813C19.407 11.419 19.3794 11.5217 19.2491 11.597C19.6226 11.642 19.9586 11.6218 20.3321 11.6668C21.4528 11.8019 22.3881 12.2177 23.1755 12.9796C23.7197 13.6212 24.1061 14.4409 24.3245 15.2707C24.5905 16.3335 24.7162 17.3037 24.5436 18.3592C24.3158 19.6203 23.6668 20.6033 22.6994 21.3356C21.4437 22.3213 20.065 22.9435 18.6487 23.5005C18.4156 23.5482 18.3229 23.6886 18.3706 23.9218C18.7119 25.115 19.0909 26.3734 19.4322 27.5666C19.5175 27.8649 19.5552 27.9301 19.1541 27.9879C18.4923 28.1962 17.7277 28.3769 17.0659 28.5852C16.8328 28.6329 16.7951 28.5678 16.7851 28.3998C16.4061 27.1414 16.0271 25.883 15.751 24.6521C15.6757 24.5218 15.7033 24.419 15.5353 24.4291C14.9387 24.5998 14.3421 24.7704 13.6803 24.9787C13.8886 25.6405 14.0317 26.3399 14.24 27.0017C14.4483 27.6635 14.5914 28.3629 14.7997 29.0247C14.8098 29.1926 14.8474 29.2578 14.6143 29.3055C13.8497 29.4863 13.1227 29.7322 12.3958 29.9781C12.1627 30.0258 12.125 29.9607 12.1149 29.7927C11.736 28.5343 11.357 27.2759 11.0809 26.045C11.0432 25.9799 11.0708 25.8771 10.9955 25.7467C9.27084 26.2211 7.54617 26.6955 5.75633 27.2075C5.73616 26.8716 5.68846 26.6384 5.66829 26.3025C5.59034 25.5654 5.51238 24.8284 5.40689 24.1942C5.35918 23.961 5.42435 23.9234 5.61986 23.8105C6.1513 23.6775 6.74792 23.5068 7.24174 23.3086C7.83835 23.1379 8.07887 22.6515 7.88066 22.1577C6.80894 18.3449 5.73722 14.532 4.56271 10.6917C4.39204 10.095 3.72756 9.69664 3.02815 9.83977C2.32873 9.98289 1.66695 10.1912 1.07034 10.3619C0.939995 10.4371 0.837198 10.4096 0.827116 10.2416C0.60874 9.41184 0.352738 8.51692 0.134362 7.68717C-0.0134413 8.03319 -0.0134412 8.03318 0.014103 7.93039ZM12.6314 22.1085C12.6966 22.0709 12.7994 22.0984 12.7994 22.0984C13.9926 21.7571 15.2887 21.4433 16.4342 20.8688C17.2538 20.4825 17.9707 20.0686 18.5371 19.394C19.5496 18.2881 19.1303 16.3579 17.8114 15.729C17.1845 15.3958 16.475 15.3709 15.7655 15.3461C14.2162 15.3717 12.6971 15.9011 11.2432 16.393C11.0101 16.4407 11.0477 16.5059 11.0954 16.739C11.3413 17.4659 11.4845 18.1654 11.7304 18.8923C11.9965 19.9552 12.3277 20.9805 12.6314 22.1085ZM14.2679 12.3006C14.3982 12.2253 14.6864 11.972 14.9095 11.7563C15.9972 10.7808 15.8212 8.97075 14.5298 8.23911C13.8653 7.84071 13.053 7.78832 12.316 7.86628C11.1779 8.00202 10.1526 8.33328 9.02454 8.63699C8.7914 8.68469 8.76386 8.78749 8.81156 9.02063C9.27586 10.5773 9.70253 12.0689 10.1017 13.6632C10.1117 13.8312 10.2145 13.8587 10.3825 13.8486C10.6808 13.7633 10.9139 13.7156 11.2123 13.6303C12.2651 13.1962 13.2251 12.9026 14.2679 12.3006Z" fill="var(--fill-0, white)"/>
</g>
</svg>
