<svg preserveAspectRatio="none" width="100%" height="100%" overflow="visible" style="display: block;" viewBox="0 0 30 27" fill="none" xmlns="http://www.w3.org/2000/svg">
<g id="Group">
<path id="Vector" fill-rule="evenodd" clip-rule="evenodd" d="M7.52935 26.6618H2.48386C1.42411 26.6618 0.900899 26.6618 0.580973 26.4568C0.412412 26.3468 0.272095 26.1987 0.171362 26.0245C0.0706292 25.8502 0.0123069 25.6547 0.0011081 25.4537C-0.0188872 25.0772 0.242719 24.6156 0.767596 23.6958L13.218 1.71261C13.7479 0.779494 14.0178 0.312937 14.3544 0.139644C14.5346 0.0480363 14.7338 0.000286579 14.936 0.000286579C15.1381 0.000286579 15.3373 0.0480363 15.5175 0.139644C15.8557 0.312937 16.124 0.779494 16.6539 1.71261L19.2133 6.18824L19.2266 6.21156C19.7982 7.21133 20.0881 7.72121 20.2147 8.25442C20.3564 8.83803 20.3564 9.44706 20.2147 10.0307C20.0881 10.5689 19.7998 11.0804 19.22 12.0969L12.6782 23.6775L12.6615 23.7058C12.085 24.7156 11.795 25.2271 11.3885 25.6137C10.9509 26.0327 10.4196 26.3412 9.83882 26.5135C9.30727 26.6618 8.71574 26.6618 7.52935 26.6618ZM20.2647 26.6618H27.4897C28.5561 26.6618 29.0927 26.6618 29.4126 26.4518C29.5824 26.3412 29.7236 26.1918 29.8244 26.016C29.9252 25.8402 29.9828 25.6429 29.9925 25.4404C30.0108 25.0755 29.7558 24.6339 29.2543 23.7658L29.201 23.6758L25.5818 17.4739L25.5402 17.404C25.0319 16.5425 24.7737 16.1076 24.4454 15.9393C24.2666 15.848 24.0688 15.8004 23.868 15.8004C23.6673 15.8004 23.4695 15.848 23.2907 15.9393C22.9574 16.1126 22.6908 16.5675 22.1609 17.4806L18.5535 23.6825L18.5418 23.7042C18.0136 24.6173 17.7486 25.0722 17.7686 25.4471C17.7797 25.649 17.8379 25.8455 17.9386 26.0208C18.0393 26.1962 18.1797 26.3455 18.3485 26.4568C18.6618 26.6618 19.1983 26.6618 20.2647 26.6618Z" fill="var(--fill-0, white)"/>
</g>
</svg>
