<svg preserveAspectRatio="none" width="100%" height="100%" overflow="visible" style="display: block;" viewBox="0 0 30 30" fill="none" xmlns="http://www.w3.org/2000/svg">
<g id="Group">
<path id="Combined Shape" d="M24.2178 20.7734L24.2148 20.7754L15 29.9932L5.78418 20.7803L5.7793 20.7754L9.17383 17.3906L15 23.2158L20.8271 17.3877L24.2178 20.7734ZM18.4365 14.9951H18.4395L18.4365 14.998L15 18.4375L11.5625 15.0029L11.5576 14.9951L11.5625 14.9912L12.1641 14.3887L12.458 14.0977L15 11.5557L18.4365 14.9951ZM29.9932 14.998L26.6045 18.3867L23.2158 14.998L26.6045 11.6094L29.9932 14.998ZM6.77734 14.9971L3.38867 18.3857L0 14.9971L3.38867 11.6084L6.77734 14.9971ZM24.2148 9.21777L20.8271 12.6074L15 6.78027L9.17383 12.6025L5.78418 9.21484L15 0L24.2148 9.21777Z" fill="var(--fill-0, #F0B90B)"/>
</g>
</svg>
