<svg preserveAspectRatio="none" width="100%" height="100%" overflow="visible" style="display: block;" viewBox="0 0 25 30" fill="none" xmlns="http://www.w3.org/2000/svg">
<g id="Group">
<path id="Shape" fill-rule="evenodd" clip-rule="evenodd" d="M11.0661 0.068237C11.0263 0.0793151 10.9865 0.0903953 10.9464 0.100432C10.9169 0.109301 10.8874 0.117792 10.8579 0.126262C10.8355 0.132722 10.813 0.13917 10.7907 0.145764C10.7573 0.154045 10.7239 0.161682 10.6906 0.169295C10.672 0.173537 10.6535 0.177772 10.635 0.182107C10.593 0.193865 10.5509 0.205272 10.5089 0.21667C10.4337 0.237091 10.3585 0.257482 10.2837 0.279804C10.2552 0.283712 10.2266 0.28801 10.1985 0.292309C10.1551 0.306739 10.1118 0.320255 10.0686 0.333732C10.0486 0.339964 10.0286 0.346188 10.0087 0.35249C9.90507 0.375547 9.80219 0.402511 9.70009 0.430257C9.65837 0.44017 9.61686 0.450816 9.57546 0.461436C9.53688 0.471331 9.49839 0.481203 9.4599 0.490438C9.38519 0.511764 9.31002 0.531047 9.23489 0.550317C9.13932 0.574834 9.04381 0.599332 8.94941 0.627996C8.91538 0.631513 8.84732 0.638156 8.81328 0.641282L8.81719 0.680752L8.76282 0.675281C8.77951 0.747063 8.79856 0.818253 8.81767 0.889623C8.82051 0.900236 8.82336 0.910853 8.82619 0.921477C8.87 1.06685 8.90873 1.21379 8.94355 1.36189L8.94361 1.36214C9.01009 1.60904 9.07657 1.85593 9.14031 2.10322C9.154 2.15402 9.16691 2.20521 9.17982 2.25641C9.19154 2.29817 9.20223 2.3402 9.21294 2.38227C9.21545 2.39216 9.21797 2.40205 9.2205 2.41194C9.23222 2.45434 9.24291 2.49699 9.25362 2.53969C9.25613 2.54973 9.25865 2.55978 9.26118 2.56982C9.30148 2.71441 9.33903 2.85978 9.37463 3.00594C9.38832 3.05635 9.40123 3.10754 9.41413 3.15874C9.42743 3.20837 9.44074 3.25839 9.45325 3.30841C9.46389 3.34672 9.47373 3.38483 9.48362 3.42318C9.48755 3.43841 9.4915 3.45369 9.4955 3.46902C9.5354 3.61478 9.57335 3.76133 9.60972 3.90827C9.6375 4.00987 9.66449 4.11148 9.69031 4.21347C9.70674 4.27851 9.72651 4.34293 9.74629 4.40737C9.78961 4.54855 9.83298 4.68984 9.8413 4.83795C9.72909 4.85429 9.61836 4.88024 9.50803 4.90609L9.49863 4.90829C9.41456 4.93387 9.3298 4.95666 9.24503 4.97945C9.17439 4.99844 9.10375 5.01743 9.03352 5.03803C8.96741 5.05523 8.90159 5.0732 8.83578 5.09118C8.76996 5.10916 8.70414 5.12713 8.63803 5.14433C8.60204 5.1548 8.56583 5.16426 8.52957 5.17372C8.51579 5.17732 8.502 5.18092 8.48821 5.18458C8.4241 5.20511 8.35953 5.22402 8.29498 5.24292C8.21457 5.26647 8.1342 5.29 8.05479 5.31666C7.96403 5.34089 7.8725 5.36356 7.779 5.37137C7.74927 5.15676 7.69332 4.94753 7.63737 4.73827C7.60795 4.62821 7.57852 4.51815 7.5529 4.4073C7.54121 4.36774 7.53025 4.32788 7.5193 4.28809C7.5123 4.26264 7.50531 4.23721 7.49814 4.21191C7.47411 4.10559 7.44596 4.00029 7.41783 3.89507C7.39695 3.81697 7.37608 3.73892 7.35692 3.66051C7.34485 3.6178 7.33386 3.57536 7.32283 3.53275C7.32064 3.52428 7.31844 3.5158 7.31624 3.50732C7.30176 3.45613 7.28846 3.40415 7.27595 3.35257C7.26428 3.31208 7.25382 3.27111 7.24342 3.23041C7.24058 3.21926 7.23773 3.20813 7.23487 3.19703C7.22338 3.15431 7.2132 3.11107 7.20304 3.06795C7.20074 3.05821 7.19845 3.04848 7.19615 3.03876C7.1406 2.8422 7.08935 2.64407 7.04085 2.44555C7.03031 2.41089 7.02026 2.37598 7.01022 2.3411C7.00238 2.31385 6.99454 2.28662 6.98647 2.25953C6.97728 2.21908 6.96721 2.17873 6.95713 2.13838C6.94706 2.09804 6.93699 2.05769 6.9278 2.01725C6.91758 1.98208 6.90797 1.94691 6.89836 1.91174C6.89067 1.8836 6.88298 1.85546 6.87499 1.82732C6.86664 1.7947 6.85792 1.76213 6.8492 1.72954C6.81583 1.60481 6.78239 1.47984 6.76937 1.35095C6.75218 1.31991 6.71928 1.25916 6.70036 1.22423L6.69661 1.2173C6.63034 1.22489 6.56644 1.24216 6.5027 1.25938C6.48441 1.26432 6.46613 1.26926 6.44782 1.27397C6.35628 1.30249 6.26396 1.3279 6.17086 1.35056C6.13918 1.35933 6.10741 1.36764 6.07568 1.37593C6.04237 1.38464 6.00911 1.39333 5.97606 1.40254L5.97603 1.40254C5.92558 1.41544 5.87512 1.42833 5.82545 1.44279C5.65509 1.48597 5.48493 1.53003 5.31477 1.57409C5.1446 1.61815 4.97444 1.66221 4.80408 1.7054C4.70747 1.73375 4.60955 1.75742 4.51165 1.78109C4.37607 1.81387 4.24054 1.84664 4.10856 1.8918C4.1203 1.94808 4.13321 2.00357 4.14729 2.05945C4.15827 2.09897 4.16961 2.1384 4.18097 2.17786C4.19308 2.21997 4.20521 2.26212 4.21692 2.30447C4.22905 2.35371 4.24117 2.40295 4.25252 2.45258C4.26117 2.48072 4.26945 2.509 4.27775 2.53733C4.28859 2.57433 4.29945 2.61141 4.31119 2.64837C4.31488 2.67212 4.31885 2.69588 4.32286 2.71988C4.32353 2.72391 4.32421 2.72795 4.32488 2.732C4.3554 2.83438 4.38278 2.93794 4.4086 3.04189C4.42268 3.09426 4.43637 3.14701 4.44967 3.20016C4.46336 3.25135 4.47627 3.30255 4.48918 3.35413C4.50326 3.40571 4.51656 3.45691 4.52986 3.50888C4.53844 3.53983 4.54658 3.57106 4.55473 3.60233C4.55996 3.62238 4.56519 3.64245 4.57055 3.66246C4.5815 3.70349 4.59245 3.74531 4.60301 3.78673C4.67147 4.03371 4.73641 4.28147 4.79782 4.53001C4.82676 4.64045 4.85592 4.75084 4.88507 4.86122C4.93472 5.04922 4.98436 5.23719 5.03292 5.4253C5.04779 5.47884 5.06148 5.53277 5.07517 5.5867C5.08808 5.63516 5.1002 5.684 5.11194 5.73285C5.12218 5.76635 5.13191 5.80006 5.14164 5.83381C5.15088 5.86582 5.16012 5.89786 5.16983 5.92981C5.1814 5.97578 5.19398 6.02157 5.20658 6.06742C5.21315 6.09135 5.21973 6.11529 5.22616 6.13927C5.15223 6.16428 5.07751 6.18851 5.00319 6.21196C4.90107 6.2365 4.79966 6.26376 4.6983 6.29101C4.61564 6.31323 4.53301 6.33544 4.45006 6.35616C4.35931 6.38273 4.26855 6.40813 4.17702 6.43119C4.14553 6.44096 4.11404 6.45044 4.08255 6.45991C4.05106 6.46939 4.01957 6.47887 3.98808 6.48864C3.94071 6.49949 3.89375 6.51156 3.84672 6.52366C3.81413 6.53204 3.7815 6.54043 3.74868 6.54843C3.51451 6.61526 3.27794 6.67416 3.04142 6.73305C2.97646 6.74922 2.91151 6.76539 2.84662 6.78173C2.79498 6.79619 2.74295 6.80986 2.69093 6.82315C2.63733 6.83722 2.58374 6.85011 2.53015 6.86301C2.41397 6.8931 2.29818 6.92319 2.18318 6.95758C2.14562 6.96422 2.10807 6.97087 2.07091 6.9779C2.0181 6.99314 1.96529 7.00721 1.91209 7.02128L1.91207 7.02128C1.81898 7.0459 1.72588 7.07052 1.63239 7.09397C1.59154 7.10536 1.55043 7.11572 1.50928 7.1261C1.49959 7.12854 1.48991 7.13098 1.48022 7.13344C1.42781 7.1475 1.37539 7.1604 1.32297 7.17291C1.27099 7.18657 1.219 7.19907 1.16702 7.21156L1.16689 7.21159C1.11486 7.22605 1.06323 7.23934 1.0112 7.25263C0.959173 7.2663 0.907146 7.2792 0.855119 7.2917C0.803092 7.30616 0.751457 7.31984 0.69943 7.33352C0.650916 7.34591 0.602063 7.35728 0.553504 7.36858L0.542958 7.37103C0.518014 7.37834 0.492981 7.38538 0.467987 7.39241C0.440849 7.40003 0.413757 7.40765 0.386877 7.41558C0.334068 7.42692 0.280867 7.43708 0.228058 7.44685C0.20713 7.4534 0.186203 7.45982 0.165289 7.46625C0.121308 7.47975 0.0773848 7.49324 0.0336415 7.50781L0 7.51836C0.0261732 7.63453 0.0585196 7.74902 0.0908602 7.86349C0.0967048 7.88418 0.102549 7.90487 0.108357 7.92556C0.121266 7.97793 0.133001 8.03068 0.144737 8.08344C0.152707 8.10825 0.160498 8.13317 0.168297 8.15813C0.1804 8.19686 0.192523 8.23564 0.205369 8.27414C0.207443 8.28927 0.209407 8.3045 0.211378 8.31979C0.213124 8.33334 0.214876 8.34692 0.216714 8.36051C0.233143 8.41131 0.24879 8.46289 0.264438 8.51448C0.277738 8.56684 0.290255 8.6196 0.302773 8.67236C0.316465 8.72042 0.329765 8.76888 0.342674 8.81734C0.356365 8.87049 0.368883 8.92402 0.3814 8.97756C0.396265 9.02954 0.41113 9.08151 0.425604 9.13388C0.435774 9.17413 0.445554 9.21477 0.454942 9.2558C0.468848 9.30406 0.481726 9.35334 0.494538 9.40236L0.49719 9.41251C0.511272 9.46448 0.524181 9.51724 0.53709 9.57C0.564473 9.66261 0.589899 9.75601 0.612588 9.85019C0.620495 9.88163 0.628316 9.91306 0.636135 9.94448C0.665445 10.0623 0.694717 10.1799 0.728377 10.2969C0.799686 10.2786 0.87072 10.2589 0.941724 10.2393C0.990689 10.2258 1.03964 10.2122 1.08865 10.1992C1.12883 10.1868 1.16916 10.1748 1.20955 10.1628C1.23405 10.1556 1.25856 10.1483 1.28307 10.1409C1.32056 10.1318 1.35779 10.122 1.39501 10.1122C1.43701 10.1012 1.47899 10.0901 1.5213 10.08C1.57098 10.0653 1.621 10.0519 1.67072 10.0387L1.68012 10.0362C1.81613 9.99655 1.95275 9.95963 2.08917 9.92276C2.10734 9.91785 2.12551 9.91294 2.14367 9.90803C2.235 9.88666 2.32515 9.86264 2.41566 9.83853C2.42943 9.83486 2.44321 9.83119 2.457 9.82753C2.53672 9.81503 2.616 9.79886 2.69517 9.78271C2.72245 9.77714 2.74972 9.77158 2.77699 9.76617C2.90451 9.73725 3.03556 9.73413 3.16543 9.73178C3.31095 9.72866 3.45451 9.74976 3.59455 9.78845C3.65831 9.81502 3.72286 9.84081 3.7874 9.86582C3.99825 9.98619 4.17428 10.1605 4.30689 10.3633C4.33747 10.4247 4.36859 10.4859 4.3998 10.5472C4.40612 10.5596 4.41245 10.572 4.41877 10.5845L4.4228 10.6092C4.42968 10.6515 4.4366 10.6941 4.4438 10.7369C4.50087 10.9266 4.54931 11.1189 4.59776 11.3112C4.61209 11.3681 4.62641 11.4249 4.64096 11.4817C4.65543 11.5325 4.66912 11.5837 4.68281 11.6353C4.69394 11.6756 4.70391 11.7158 4.71397 11.7564C4.717 11.7686 4.72003 11.7809 4.72311 11.7932C4.73425 11.8326 4.74423 11.872 4.75431 11.9118C4.75732 11.9237 4.76034 11.9356 4.7634 11.9475C4.80291 12.0921 4.84163 12.2375 4.87723 12.3833C4.89092 12.4341 4.90422 12.4853 4.91713 12.5369C4.93121 12.5892 4.94451 12.642 4.95742 12.6951L4.95749 12.6954C4.97155 12.7461 4.98561 12.7968 4.99928 12.8479C5.02431 12.9413 5.04857 13.0351 5.07165 13.1293C5.1002 13.2309 5.12759 13.3333 5.15379 13.4361C5.19284 13.5854 5.23247 13.7346 5.2721 13.8839C5.35 14.1772 5.42792 14.4706 5.50155 14.7651C5.5123 14.8021 5.52223 14.8396 5.53223 14.8773C5.53606 14.8917 5.5399 14.9062 5.5438 14.9207C5.55749 14.9734 5.57001 15.0266 5.58214 15.0805C5.58462 15.0892 5.58711 15.0979 5.58961 15.1066C5.60129 15.1474 5.61311 15.1886 5.62438 15.2298C5.634 15.2674 5.6428 15.3049 5.65167 15.3428C5.65506 15.3573 5.65847 15.3719 5.66194 15.3865C5.67178 15.4198 5.68111 15.4532 5.69045 15.4867C5.6993 15.5184 5.70816 15.5501 5.71749 15.5819C5.72725 15.6246 5.7379 15.6672 5.74855 15.7097C5.75796 15.7473 5.76736 15.7849 5.77616 15.8226C5.79064 15.8738 5.80472 15.9258 5.8188 15.9777C5.83249 16.0313 5.84501 16.0852 5.85753 16.1395C5.89978 16.279 5.93889 16.4197 5.97371 16.5616C5.98105 16.5874 5.9882 16.6134 5.99536 16.6395C6.00575 16.6774 6.01618 16.7154 6.0273 16.7531C6.04908 16.845 6.07299 16.9364 6.09692 17.0279C6.12111 17.1204 6.14531 17.2129 6.16734 17.306C6.26201 17.657 6.35393 18.0091 6.44195 18.3619C6.45564 18.4104 6.46894 18.4588 6.48185 18.5081C6.4947 18.5577 6.50631 18.6076 6.51806 18.6581L6.52253 18.6773C6.5374 18.7265 6.55187 18.7762 6.56635 18.8262C6.5769 18.8664 6.58706 18.9078 6.59723 18.9492L6.59725 18.9493C6.61172 18.9993 6.62541 19.0505 6.6391 19.1017C6.65241 19.1537 6.66492 19.2068 6.67744 19.26C6.69231 19.3108 6.70717 19.3624 6.72164 19.4143C6.73416 19.4655 6.7459 19.5175 6.75763 19.5699C6.78423 19.6617 6.80927 19.7539 6.83274 19.8469C6.9086 20.1212 6.97915 20.3972 7.0497 20.6732C7.06901 20.7487 7.08832 20.8242 7.10774 20.8997C7.17463 21.1479 7.23996 21.3968 7.30333 21.6457C7.31702 21.695 7.33071 21.7446 7.3444 21.7946C7.35731 21.8474 7.36866 21.9005 7.37961 21.9544C7.39839 22.006 7.41755 22.0576 7.43711 22.1096C7.4598 22.2897 7.46293 22.4738 7.42772 22.6528C7.41403 22.6922 7.40152 22.7329 7.38939 22.7735C7.31546 22.915 7.21727 23.0432 7.08818 23.1389C6.87577 23.2581 6.64341 23.3328 6.40831 23.3929C6.05507 23.4875 5.70066 23.5782 5.34508 23.6641L5.19213 23.704C5.12719 23.7185 5.06226 23.731 4.99732 23.7431C4.93943 23.7575 4.88153 23.7712 4.82364 23.7845C4.82481 23.8783 4.82794 23.9733 4.83225 24.0678C4.86071 24.1943 4.86674 24.3241 4.87275 24.4538C4.87393 24.4791 4.87511 24.5044 4.87645 24.5297C4.88545 24.5713 4.89093 24.6135 4.89643 24.6559C4.90096 24.6909 4.9055 24.7259 4.91205 24.7607C4.91557 24.7556 4.92339 24.7454 4.9273 24.7404C4.92877 24.7695 4.92354 24.7977 4.91829 24.8261C4.91233 24.8583 4.90635 24.8906 4.91009 24.9244C4.95351 25.2089 4.97698 25.4969 4.99106 25.7846C5.01923 25.926 5.02549 26.0702 5.03096 26.214C5.06852 26.4841 5.08769 26.7572 5.10451 27.03C5.21638 27.0175 5.32631 26.9921 5.43505 26.9636C5.47535 26.9495 5.51603 26.9366 5.55671 26.9241C5.60913 26.9092 5.66194 26.8963 5.71475 26.8838C5.99214 26.8071 6.27124 26.7361 6.55013 26.6652L6.60781 26.6505C6.64606 26.6398 6.68473 26.6301 6.72349 26.6203C6.74973 26.6137 6.77601 26.6071 6.80223 26.6001C6.85269 26.5857 6.90276 26.5712 6.95322 26.5564C7.07633 26.5275 7.19871 26.4956 7.32111 26.4637C7.43557 26.4338 7.55005 26.404 7.66517 26.3766C7.70954 26.3637 7.75447 26.3522 7.79949 26.3407C7.80765 26.3386 7.81582 26.3365 7.82399 26.3344C7.87367 26.3211 7.92374 26.3086 7.9742 26.2973C8.02105 26.2831 8.06811 26.2699 8.11522 26.2568C8.13302 26.2518 8.15082 26.2468 8.16862 26.2418C8.21284 26.2317 8.25673 26.2207 8.30058 26.2097C8.33818 26.2002 8.37576 26.1908 8.4135 26.182C8.46435 26.1671 8.51559 26.1538 8.56723 26.1413C8.61887 26.1265 8.67128 26.1136 8.7237 26.1007C8.77612 26.0866 8.82893 26.0749 8.88174 26.0636C8.93103 26.0487 8.98071 26.0343 9.03078 26.021C9.08202 26.0077 9.13366 25.996 9.18569 25.9854C9.2381 25.9706 9.2913 25.9577 9.3449 25.9452C9.39497 25.9315 9.44582 25.9186 9.49667 25.9069C9.54909 25.892 9.60151 25.8787 9.65471 25.8658C9.70752 25.8518 9.76072 25.8397 9.8147 25.8283C9.9078 25.8017 10.0021 25.7767 10.0964 25.7537C10.1386 25.7409 10.1811 25.7288 10.2237 25.7168C10.2579 25.7071 10.2922 25.6973 10.3264 25.6872C10.3374 25.7092 10.3594 25.7518 10.3714 25.775L10.3725 25.7771C10.3828 25.8286 10.3946 25.88 10.4065 25.9315C10.4159 25.9722 10.4253 26.0129 10.4339 26.0538C10.4738 26.1996 10.5118 26.3457 10.5486 26.4927C10.5626 26.5434 10.5755 26.5954 10.5884 26.6473L10.5885 26.6474C10.6169 26.754 10.6457 26.8606 10.6746 26.9671C10.7378 27.2006 10.8011 27.4341 10.8599 27.6689C10.901 27.8221 10.9417 27.9753 10.9789 28.1297C10.9905 28.1709 11.0011 28.2121 11.012 28.2541C11.0146 28.2643 11.0173 28.2745 11.0199 28.2848C11.0301 28.3205 11.0391 28.3566 11.0482 28.3929C11.052 28.4083 11.0559 28.4237 11.0598 28.4392C11.1009 28.5849 11.1385 28.7323 11.1737 28.88C11.2026 28.9816 11.2308 29.0844 11.255 29.1879C11.2699 29.2379 11.2848 29.2884 11.2996 29.3395C11.3098 29.381 11.3196 29.4236 11.329 29.4666C11.3775 29.6401 11.4236 29.8147 11.4537 29.9933C11.5206 29.9828 11.5875 29.9703 11.654 29.9554C11.6744 29.9507 11.7147 29.941 11.735 29.9363C11.7859 29.9187 11.8371 29.9019 11.8887 29.8859C11.94 29.8738 11.9916 29.8632 12.0436 29.8527C12.1348 29.8245 12.2267 29.7991 12.3194 29.7761C12.6707 29.6827 13.022 29.5904 13.3744 29.5029C13.4155 29.4909 13.457 29.4797 13.4986 29.4685C13.522 29.4622 13.5455 29.4558 13.5689 29.4494C13.6019 29.4413 13.6348 29.4329 13.6678 29.4246C13.7845 29.3952 13.9013 29.3657 14.0203 29.3462L14.0175 29.3122L14.0735 29.3208C14.0538 29.2187 14.0261 29.1186 13.9985 29.0186C13.9881 28.9811 13.9778 28.9437 13.9679 28.9062C13.9582 28.8733 13.9489 28.8404 13.9396 28.8077C13.9308 28.7766 13.9221 28.7457 13.9131 28.7151C13.8855 28.6007 13.8557 28.487 13.8259 28.3732C13.794 28.2518 13.7622 28.1304 13.7332 28.0085C13.7247 27.9788 13.7167 27.9492 13.7087 27.9198C13.6993 27.885 13.6899 27.8504 13.68 27.8159C13.6633 27.7503 13.6461 27.6849 13.629 27.6194C13.5983 27.5022 13.5676 27.385 13.5395 27.2672C13.5106 27.1625 13.4832 27.0577 13.4585 26.9522C13.4437 26.9014 13.4304 26.851 13.4175 26.8006C13.3901 26.7072 13.3647 26.6134 13.342 26.5192C13.3275 26.4669 13.3142 26.4153 13.3017 26.3641C13.2872 26.3121 13.2743 26.2605 13.2618 26.2093C13.2473 26.1578 13.234 26.1066 13.2215 26.0558C13.207 26.0018 13.1941 25.9487 13.1812 25.8955C13.1558 25.8041 13.1307 25.7126 13.1077 25.6208C13.0791 25.5184 13.0521 25.4164 13.0263 25.3137C12.968 25.1058 12.916 24.8959 12.8722 24.6845C12.8577 24.6325 12.8448 24.5809 12.8327 24.5293C12.8186 24.4758 12.8064 24.4223 12.7947 24.3691C12.7806 24.3168 12.7681 24.2648 12.7564 24.2132C12.7215 24.0806 12.6895 23.9474 12.6576 23.8142C12.6462 23.7668 12.6349 23.7193 12.6234 23.672C12.6097 23.6196 12.5956 23.5676 12.5803 23.5168C12.5737 23.4734 12.5678 23.4308 12.562 23.3882C12.5471 23.3371 12.5334 23.2859 12.5205 23.2351C12.505 23.1751 12.4917 23.1152 12.4785 23.0556L12.4771 23.049C12.463 22.9971 12.4509 22.9447 12.4391 22.8931C12.4262 22.8447 12.4154 22.7968 12.4046 22.749C12.4029 22.7417 12.4013 22.7344 12.3996 22.727C12.3907 22.6954 12.3822 22.6639 12.3737 22.6323C12.3648 22.5991 12.3559 22.5659 12.3464 22.5328C12.3367 22.4845 12.3258 22.4366 12.315 22.3886C12.3054 22.3462 12.2958 22.3038 12.287 22.2612C12.2763 22.2229 12.2664 22.1848 12.2565 22.1468C12.2498 22.1209 12.2431 22.0949 12.2361 22.0689C12.2172 21.9836 12.1955 21.8989 12.1739 21.8143C12.1588 21.7555 12.1438 21.6968 12.1297 21.6379C12.1127 21.5774 12.0964 21.5166 12.0801 21.4559C12.0654 21.4009 12.0507 21.3459 12.0354 21.2913C12.0069 21.1743 11.9763 21.0579 11.9458 20.9416C11.9142 20.8216 11.8827 20.7016 11.8535 20.5812C11.8395 20.53 11.8265 20.4796 11.814 20.4288C11.8043 20.3948 11.795 20.3606 11.7858 20.3265C11.7775 20.2961 11.7693 20.2658 11.7608 20.2358C11.7507 20.1943 11.7398 20.1532 11.729 20.1121C11.7189 20.0738 11.7088 20.0357 11.6994 19.9974C11.6855 19.9488 11.673 19.9006 11.6606 19.8527L11.6579 19.8426C11.6439 19.7903 11.6313 19.7387 11.6188 19.6867C11.604 19.6343 11.5907 19.5824 11.5774 19.5304C11.565 19.485 11.5541 19.4393 11.5434 19.3944L11.539 19.376C11.5255 19.3284 11.5126 19.2806 11.4997 19.2329C11.4808 19.163 11.4619 19.0931 11.4412 19.0239C11.4396 19.0133 11.438 19.0027 11.4363 18.9921C11.4335 18.9743 11.4308 18.9565 11.4283 18.9391C11.4156 18.9005 11.4038 18.8619 11.3921 18.8235C11.3883 18.811 11.3844 18.7984 11.3806 18.7859C11.3686 18.7364 11.3576 18.6869 11.3466 18.6377L11.3442 18.6269C11.302 18.4862 11.2648 18.3447 11.2304 18.2025C11.2117 18.136 11.1939 18.0693 11.1761 18.0027C11.163 17.9537 11.1499 17.9047 11.1365 17.8559C11.1128 17.7557 11.0865 17.6563 11.0603 17.5568C11.0377 17.4711 11.0151 17.3855 10.9941 17.2994C10.9743 17.2314 10.9562 17.1629 10.9382 17.0945C10.9256 17.0468 10.913 16.9991 10.8998 16.9516C10.8903 16.9103 10.88 16.8693 10.8698 16.8283C10.8599 16.7887 10.85 16.7491 10.8408 16.7093C10.8316 16.6782 10.823 16.6471 10.8143 16.6161C10.8052 16.5833 10.7961 16.5506 10.7864 16.5178C10.7598 16.4252 10.732 16.333 10.7023 16.2411C10.7097 16.2322 10.7218 16.2169 10.7323 16.2037C10.7374 16.1972 10.7421 16.1913 10.7457 16.1868L10.7966 16.1837C10.8588 16.1652 10.9213 16.1481 10.9838 16.131C11.0373 16.1165 11.0907 16.1019 11.1439 16.0864C11.2059 16.0693 11.268 16.0519 11.3301 16.0345C11.3985 16.0154 11.467 15.9962 11.5355 15.9773C11.5762 15.9652 11.6177 15.9543 11.6591 15.9441C11.7543 15.9139 11.8498 15.8853 11.9453 15.8567C12.0201 15.8342 12.095 15.8118 12.1696 15.7886C12.1814 15.7844 12.1933 15.7801 12.2051 15.7759C12.3078 15.7391 12.4104 15.7023 12.5146 15.6686C12.5691 15.6476 12.624 15.6272 12.6788 15.6067C12.7401 15.5839 12.8015 15.561 12.8624 15.5373C13.011 15.4803 13.1584 15.4201 13.3056 15.3599C13.329 15.3504 13.3523 15.3409 13.3756 15.3314L13.4096 15.3236C13.4867 15.2876 13.5653 15.254 13.644 15.2208C13.683 15.2036 13.7218 15.1861 13.7607 15.1687C13.8384 15.1338 13.9161 15.0989 13.9949 15.066C14.0844 15.0289 14.1721 14.9881 14.2599 14.9473C14.2883 14.9341 14.3168 14.9209 14.3453 14.9078C14.4971 14.8507 14.643 14.7796 14.7858 14.7018L14.8359 14.7096L14.841 14.6799C14.878 14.6663 14.9148 14.6519 14.9517 14.6376C14.9717 14.6298 14.9918 14.622 15.0119 14.6143C15.0639 14.5865 15.1168 14.5596 15.17 14.533C15.1812 14.5273 15.1924 14.5216 15.2036 14.5159C15.2856 14.4744 15.3676 14.4327 15.4485 14.3884C15.4618 14.3904 15.4892 14.3939 15.5028 14.3954L15.5091 14.3458L15.5791 14.3614L15.5862 14.3075L15.657 14.3185L15.6613 14.2903C15.8225 14.2245 15.9742 14.1393 16.1259 14.0542C16.2127 14.0054 16.2995 13.9567 16.3881 13.9116C16.6209 13.7897 16.8393 13.6433 17.0574 13.4971C17.0936 13.4728 17.1299 13.4485 17.1661 13.4243C18.069 12.7916 18.8517 12.0015 19.5273 11.1331C19.818 10.7451 20.0601 10.3164 20.1872 9.84628C20.1982 9.7904 20.2091 9.73452 20.2228 9.67981C20.2241 9.67225 20.2253 9.66469 20.2265 9.65714C20.2381 9.58544 20.2497 9.51413 20.2666 9.44377C20.2711 9.3913 20.2736 9.3386 20.276 9.28591C20.2808 9.18281 20.2856 9.07972 20.3058 8.97834L20.3085 8.86267C20.2843 8.73839 20.2798 8.61241 20.2754 8.48661C20.2738 8.44192 20.2722 8.39725 20.2698 8.35269C20.2385 8.19755 20.2111 8.04123 20.1888 7.88492C20.1735 7.83216 20.1602 7.7798 20.1477 7.72704C20.134 7.67507 20.1219 7.6227 20.1109 7.57073C20.0986 7.53284 20.087 7.49482 20.0754 7.4569C20.0675 7.43107 20.0596 7.40529 20.0515 7.37963C20.0471 7.36474 20.0426 7.34988 20.0382 7.33504C20.0226 7.28293 20.0071 7.23109 19.9928 7.17877C19.9752 7.13373 19.9579 7.08853 19.9406 7.04336C19.9183 6.98506 19.896 6.92678 19.8731 6.86887C19.8473 6.80205 19.8223 6.73522 19.798 6.6684C19.7741 6.63049 19.7507 6.59298 19.7276 6.55546C19.7292 6.54178 19.7331 6.51482 19.735 6.50114L19.6857 6.49411C19.6877 6.47965 19.692 6.45112 19.6943 6.43666L19.6372 6.36124C19.5101 6.10762 19.3509 5.87236 19.1772 5.64844C18.7543 5.14003 18.2145 4.73126 17.6031 4.47608C17.3856 4.3862 17.163 4.31078 16.9373 4.24513C16.8841 4.23418 16.8313 4.22285 16.7793 4.21074C16.7547 4.20375 16.7302 4.19702 16.7057 4.1903C16.6767 4.18236 16.6479 4.17445 16.6193 4.16619C16.5422 4.15524 16.4659 4.14313 16.3908 4.12633C16.0145 4.06419 15.6351 4.02707 15.2537 4.02355C15.1419 4.0027 15.0287 4.00313 14.9161 4.00356C14.9105 4.00358 14.9049 4.0036 14.8993 4.00362C14.878 4.004 14.8567 4.00435 14.8355 4.00469C14.792 4.00539 14.7487 4.00608 14.7056 4.00714C14.5688 4.03334 14.4298 4.03522 14.2907 4.0371C14.2183 4.03808 14.1459 4.03906 14.0739 4.04348C13.8495 4.0676 13.625 4.09292 13.4005 4.11824C13.2614 4.13392 13.1223 4.14961 12.9833 4.16501C12.9044 4.18182 12.8252 4.19657 12.746 4.21132C12.6668 4.22607 12.5876 4.24083 12.5088 4.25763C12.5015 4.24685 12.4942 4.23614 12.4869 4.22546C12.4762 4.20982 12.4656 4.19425 12.4552 4.17869C12.4528 4.14938 12.4505 4.12007 12.4485 4.09116C12.4321 4.03879 12.4172 3.98603 12.4031 3.93328C12.3836 3.85473 12.3634 3.77628 12.3433 3.69783C12.3231 3.61938 12.303 3.54093 12.2834 3.46238C12.2718 3.42074 12.2615 3.37937 12.2512 3.33805C12.2491 3.32934 12.2469 3.32063 12.2447 3.31192C12.2306 3.2619 12.2173 3.21188 12.2048 3.16186C12.1757 3.05021 12.1457 2.93885 12.1157 2.82752C12.0674 2.64853 12.0192 2.46959 11.9748 2.28962C11.9474 2.18802 11.9208 2.08602 11.8966 1.98364C11.8841 1.9374 11.8716 1.89117 11.8591 1.84494C11.79 1.58915 11.7209 1.33333 11.6579 1.07584C11.6458 1.03447 11.635 0.992577 11.6243 0.950801C11.6218 0.941279 11.6193 0.931762 11.6169 0.922259C11.6036 0.873019 11.5914 0.82378 11.5797 0.77415C11.5656 0.726177 11.5525 0.677871 11.5395 0.629847L11.5363 0.617835L11.5311 0.597776C11.4925 0.449316 11.4539 0.300779 11.4228 0.150453C11.4088 0.100432 11.3955 0.0500208 11.3833 0C11.2749 0.010183 11.1705 0.0392024 11.0661 0.068237ZM11.7075 7.6998C11.7158 7.69886 11.724 7.69792 11.7323 7.69697C12.2087 7.63601 12.6942 7.60122 13.1726 7.66102C13.2488 7.66777 13.3242 7.68036 13.3996 7.69297C13.4551 7.70223 13.5106 7.71151 13.5665 7.71846C13.7844 7.77044 14.0015 7.83413 14.1998 7.94004C14.2123 7.94043 14.237 7.94082 14.2491 7.94082L14.2585 7.96544C14.6759 8.17217 15.0186 8.52778 15.2075 8.95335L15.2318 8.96468L15.2361 9.01158C15.2869 9.11943 15.3272 9.23237 15.362 9.34687C15.3639 9.35344 15.3657 9.36003 15.3675 9.36662C15.3825 9.42083 15.3977 9.47576 15.4148 9.52976C15.4219 9.58252 15.4293 9.63606 15.4371 9.6892C15.4896 9.95885 15.4723 10.2379 15.4195 10.5063C15.3828 10.6232 15.3456 10.74 15.3034 10.8553C15.2885 10.8866 15.274 10.9182 15.2603 10.9503L15.2509 10.9624C15.1707 11.1175 15.0702 11.2606 14.9669 11.4009C14.785 11.6095 14.5789 11.7955 14.3583 11.9628C14.2748 12.0237 14.1874 12.0789 14.1001 12.1341C14.0249 12.1815 13.9498 12.229 13.8771 12.2801C13.8642 12.2793 13.8388 12.2774 13.8263 12.2762L13.822 12.3262C13.813 12.3249 13.7995 12.323 13.786 12.3212C13.7725 12.3193 13.759 12.3174 13.75 12.3161L13.7429 12.3634L13.696 12.3649C13.6174 12.4106 13.5372 12.4529 13.4554 12.4915C13.3877 12.5248 13.3205 12.5595 13.2544 12.5955L13.2012 12.5912L13.1968 12.6189C13.1233 12.6467 13.0502 12.6756 12.9774 12.7045C12.97 12.708 12.9547 12.7147 12.9469 12.7182C12.8593 12.7557 12.77 12.7897 12.6807 12.8236C12.6519 12.8345 12.6231 12.8455 12.5944 12.8565C12.4 12.9288 12.2025 12.9921 12.0045 13.0551C11.9767 13.0634 11.9489 13.072 11.9211 13.0806C11.884 13.0921 11.8468 13.1035 11.8097 13.1145C11.7235 13.1405 11.6369 13.1651 11.5506 13.1897L11.5336 13.1946C11.4424 13.2211 11.3513 13.2469 11.2593 13.27C11.234 13.277 11.2087 13.2838 11.1835 13.2905C11.1439 13.3011 11.1043 13.3117 11.0649 13.3231C11.0369 13.3302 11.0089 13.3372 10.9808 13.3442C10.8515 13.3764 10.7222 13.4087 10.5939 13.4447C10.5548 13.4501 10.5161 13.456 10.4774 13.4623C10.4269 13.4771 10.3764 13.492 10.326 13.506C10.2196 13.5361 10.112 13.5635 10.0029 13.5803C9.99921 13.5585 9.99563 13.537 9.99206 13.5154C9.98761 13.4886 9.98317 13.4618 9.97861 13.4349C9.96453 13.3814 9.95201 13.3278 9.94028 13.2743C9.93384 13.2524 9.92758 13.2306 9.92133 13.2089C9.90858 13.1645 9.8959 13.1203 9.88199 13.0765L9.86478 12.9667C9.84796 12.9152 9.83231 12.8632 9.81744 12.8116C9.80454 12.76 9.7928 12.7084 9.78185 12.6572C9.74077 12.5115 9.70126 12.3653 9.6641 12.2184C9.6173 12.0601 9.57649 11.9001 9.53567 11.7401C9.49699 11.5885 9.4583 11.4369 9.41453 11.2867C9.3755 11.1256 9.33356 10.9651 9.29161 10.8046C9.2583 10.6772 9.22498 10.5498 9.19312 10.4219C9.16764 10.3309 9.1441 10.2394 9.12057 10.1478C9.10328 10.0806 9.086 10.0134 9.06794 9.94634C9.0607 9.91862 9.05338 9.89098 9.04607 9.86337C9.03008 9.803 9.01413 9.74277 8.9991 9.68217C8.98554 9.63634 8.97322 9.5902 8.96104 9.54457C8.95951 9.53884 8.95798 9.53313 8.95646 9.52742C8.94557 9.48755 8.93563 9.44745 8.92571 9.40748C8.92279 9.39573 8.91988 9.38399 8.91695 9.37227C8.90431 9.32564 8.89294 9.27869 8.88169 9.23228C8.8804 9.22696 8.87912 9.22165 8.87783 9.21635C8.85162 9.12295 8.82659 9.02955 8.8039 8.93576C8.78942 8.88379 8.77652 8.83221 8.76361 8.78023C8.75505 8.75271 8.7466 8.72514 8.73815 8.69756C8.71335 8.61667 8.68854 8.53573 8.66112 8.45588C8.66614 8.45166 8.67114 8.44745 8.67614 8.44324C8.69803 8.42481 8.7198 8.40648 8.74209 8.38866C8.89304 8.36729 9.03867 8.32379 9.18433 8.28028C9.27573 8.25297 9.36715 8.22567 9.45991 8.20382C9.69422 8.13387 9.92932 8.06626 10.1672 8.00843C10.2204 7.99443 10.2738 7.98115 10.3273 7.96787C10.3918 7.95186 10.4563 7.93584 10.5204 7.91854C10.5777 7.90731 10.6348 7.89488 10.6919 7.88244C10.7381 7.87238 10.7843 7.86233 10.8306 7.85289C10.8951 7.83726 10.9609 7.82515 11.0266 7.81342C11.0923 7.79896 11.1584 7.78724 11.2249 7.77552C11.3016 7.75871 11.3794 7.7466 11.4573 7.73527C11.5399 7.7189 11.6238 7.70934 11.7075 7.6998Z" fill="var(--fill-0, white)"/>
<path id="Path" fill-rule="evenodd" clip-rule="evenodd" d="M20.2666 11.9593C20.3429 11.9612 20.4192 11.9667 20.4959 11.9737C20.6117 12.0179 20.7294 12.0578 20.8479 12.0965C21.315 12.2723 21.7555 12.5177 22.1431 12.8331C22.4295 13.0832 22.6982 13.3564 22.922 13.6651C23.1492 13.9843 23.3394 14.3298 23.497 14.6885C23.5275 14.7644 23.5588 14.8406 23.5921 14.9156C23.6245 15.0094 23.6582 15.1028 23.691 15.197C23.7235 15.2986 23.754 15.4013 23.7857 15.5037C23.7974 15.5565 23.8107 15.6096 23.8248 15.6624C23.8369 15.714 23.8498 15.7659 23.8639 15.8179C23.8761 15.8683 23.8882 15.9184 23.903 15.9692C23.9492 16.2157 23.9868 16.4639 24.0263 16.712C24.031 16.8433 24.0404 16.9747 24.0646 17.1044C24.0756 17.4299 24.074 17.7558 24.0611 18.0818C24.0282 18.2635 24.0036 18.4468 23.9821 18.6304C23.9547 18.7352 23.9296 18.8407 23.905 18.9466C23.8753 19.0368 23.8471 19.1283 23.8213 19.2201C23.8088 19.2584 23.797 19.2975 23.7857 19.337C23.7599 19.403 23.7352 19.4698 23.7122 19.5374C23.6762 19.614 23.6402 19.6902 23.6018 19.766C23.6022 19.7793 23.6038 19.8063 23.6042 19.8196L23.5572 19.8282C23.56 19.8454 23.5659 19.8798 23.569 19.897L23.5205 19.904C23.5209 19.9169 23.5216 19.9431 23.522 19.956C23.1539 20.6191 22.6485 21.2002 22.052 21.6676C21.9996 21.7067 21.9475 21.7462 21.8951 21.7852C21.5462 22.0522 21.1722 22.2862 20.785 22.4937L20.7803 22.5223C20.7674 22.5211 20.7411 22.5191 20.7282 22.518C20.5898 22.6067 20.4435 22.6825 20.2968 22.7564C20.2835 22.7548 20.2573 22.7524 20.244 22.7513L20.2365 22.7986C20.2228 22.7974 20.1958 22.7954 20.1821 22.7943C20.1591 22.8075 20.1125 22.8337 20.089 22.847L20.08 22.8615C20.0562 22.8705 20.0089 22.8884 19.9854 22.8978C19.9662 22.9111 19.9279 22.9381 19.9087 22.9514C19.8981 22.9506 19.877 22.9494 19.8665 22.9486C19.7874 22.9877 19.7076 23.0252 19.629 23.0643L19.6009 23.0702C19.4037 23.1557 19.2042 23.2347 19.0047 23.3136C18.7477 23.4164 18.4856 23.5055 18.2266 23.6028C18.0682 23.6552 17.9082 23.7032 17.7517 23.7607C17.7072 23.7673 17.6626 23.7747 17.6187 23.7822C17.6191 23.8224 17.6199 23.8635 17.6211 23.9045C17.6782 24.0557 17.7177 24.2128 17.7604 24.3684C17.8288 24.6595 17.9121 24.9467 17.9829 25.2371C17.9962 25.2875 18.0099 25.3387 18.0232 25.3899C18.0412 25.454 18.0576 25.5188 18.0764 25.5837C18.0979 25.6763 18.123 25.7689 18.1476 25.8616C18.1613 25.9124 18.1758 25.9632 18.191 26.0144C18.2028 26.0652 18.2149 26.116 18.229 26.1668C18.2419 26.2199 18.2552 26.2727 18.2704 26.3262C18.2931 26.4192 18.3178 26.5122 18.3432 26.6048C18.3569 26.6568 18.371 26.7092 18.3858 26.7619C18.398 26.8131 18.4101 26.8651 18.4246 26.9167C18.4371 26.9687 18.45 27.0214 18.4645 27.0738C18.477 27.1234 18.4907 27.173 18.5052 27.2231C18.538 27.3555 18.5752 27.4872 18.6076 27.6205C18.6342 27.7131 18.6597 27.8061 18.6863 27.8995C18.7027 27.9656 18.7152 28.0332 18.7277 28.1012C18.6519 28.1258 18.5752 28.1488 18.4993 28.1723C18.3925 28.1926 18.2877 28.2188 18.1832 28.2473C18.1308 28.2606 18.0788 28.2739 18.0271 28.2891C17.9743 28.3012 17.9227 28.3141 17.8711 28.3286C17.8179 28.3411 17.7658 28.3548 17.7142 28.3696C17.6641 28.3817 17.6152 28.3946 17.5663 28.4083C17.3801 28.4533 17.1959 28.5037 17.0105 28.551C16.9447 28.5693 16.8786 28.5857 16.8133 28.6045C16.7621 28.6162 16.7116 28.6287 16.6611 28.6428C16.4878 28.6858 16.3177 28.7397 16.1436 28.7807C16.0415 28.3931 15.9421 28.0046 15.835 27.6185C15.8209 27.5673 15.8068 27.5169 15.7927 27.4669C15.7794 27.413 15.7665 27.3598 15.7524 27.3071C15.7051 27.1246 15.6554 26.9425 15.6093 26.7596C15.5494 26.5529 15.5017 26.343 15.4403 26.1371C15.4274 26.0855 15.4141 26.0343 15.4008 25.9839C15.3886 25.9424 15.3761 25.9014 15.3636 25.8612C15.3507 25.8076 15.3386 25.7549 15.3249 25.7025C15.3112 25.6529 15.2975 25.6044 15.2834 25.556C15.2333 25.3567 15.1817 25.1581 15.1258 24.9604C15.1132 24.9088 15.1015 24.8584 15.0878 24.808C15.0553 24.6763 15.0182 24.5466 14.9841 24.4156C14.954 24.3097 14.9263 24.2031 14.8953 24.0979C14.882 24.0475 14.8687 23.9975 14.8551 23.9483C14.8077 23.7638 14.7561 23.5809 14.7127 23.3957C14.6931 23.332 14.6755 23.2679 14.6567 23.205C14.6446 23.1522 14.6333 23.1006 14.6204 23.0491C14.5836 22.9181 14.5464 22.7872 14.5151 22.6548C14.485 22.5516 14.4561 22.4484 14.4259 22.3456C14.4122 22.2913 14.3989 22.237 14.3845 22.1835C14.3716 22.133 14.3579 22.0834 14.3446 22.0338C14.2961 21.8173 14.219 21.6078 14.1724 21.3909C14.2785 21.3405 14.3927 21.312 14.5053 21.28C14.5452 21.2682 14.5851 21.2569 14.6254 21.2452C14.6912 21.2252 14.7573 21.2045 14.8234 21.1842C14.9012 21.1565 14.9798 21.1303 15.0589 21.1045C15.1481 21.0728 15.2384 21.042 15.3276 21.0095C15.4231 20.974 15.5185 20.938 15.6151 20.906C15.6754 20.8794 15.736 20.8532 15.797 20.827C15.8686 20.7993 15.941 20.7731 16.0137 20.7481L16.018 20.7164C16.0356 20.7196 16.0708 20.7266 16.0884 20.7301L16.0959 20.6805C16.1084 20.6813 16.1338 20.6828 16.1467 20.684C16.243 20.6356 16.3415 20.591 16.4425 20.5523L16.4499 20.541C16.473 20.5281 16.5191 20.5031 16.5418 20.4906C16.5516 20.4894 16.5712 20.4871 16.5809 20.4859C16.9635 20.2835 17.3347 20.0591 17.6766 19.793C18.1684 19.4061 18.5795 18.8911 18.736 18.2764C18.7684 18.0583 18.8005 17.8387 18.7817 17.6179C18.7626 17.5261 18.7512 17.4334 18.7422 17.3404C18.7144 17.2357 18.6874 17.131 18.6632 17.0258C18.6084 16.8801 18.5529 16.7347 18.4817 16.5964C18.4809 16.5874 18.4786 16.5698 18.4774 16.5612C18.2431 16.1704 17.9188 15.8265 17.5049 15.6253L17.4955 15.5971C17.4779 15.5999 17.4435 15.6057 17.4259 15.6085L17.422 15.5749C17.2968 15.5248 17.1716 15.4764 17.0445 15.433C16.9944 15.4189 16.9443 15.4056 16.8943 15.3931C16.8411 15.3767 16.7879 15.3619 16.7355 15.3462C16.6459 15.333 16.5559 15.3228 16.4679 15.3052C16.3932 15.2958 16.3185 15.2884 16.2437 15.2814C16.2477 15.2544 16.2516 15.2274 16.2563 15.2013C16.8509 14.8624 17.4329 14.4998 17.9868 14.0973C18.1996 13.9429 18.4058 13.7796 18.6123 13.6174C19.0407 13.27 19.4217 12.8702 19.8078 12.4779C19.9713 12.3149 20.1192 12.1367 20.2666 11.9593Z" fill="var(--fill-0, white)"/>
</g>
</svg>
