<svg preserveAspectRatio="none" width="100%" height="100%" overflow="visible" style="display: block;" viewBox="0 0 23 30" fill="none" xmlns="http://www.w3.org/2000/svg">
<g id="Group">
<path id="Vector" d="M4.65625 3.03219C5.48235 3.25749 6.30846 3.40769 7.13457 3.633C7.96068 3.8583 8.78678 4.0085 9.61289 4.2338C9.83819 4.3089 9.91329 4.2338 9.9884 4.0085C10.2888 2.73179 10.5892 1.53018 10.8896 0.253466C10.9647 0.0281638 11.0398 -0.046937 11.2651 0.0281637C12.0161 0.253466 12.692 0.403667 13.443 0.553868C13.6683 0.628969 13.6683 0.704069 13.5932 0.854271C13.2928 2.05588 12.9924 3.33259 12.692 4.5342C12.692 4.6093 12.692 4.68441 12.6169 4.83461C13.2177 4.98481 13.8936 5.13501 14.4944 5.28521C14.5695 5.28521 14.6446 5.13501 14.7197 5.05991C14.945 4.0836 15.1703 3.18239 15.4707 2.20608L15.696 1.30488C15.696 1.15467 15.7711 1.07957 15.9213 1.15467C16.6724 1.37998 17.4234 1.53018 18.2495 1.75548C18.3246 1.75548 18.3246 1.83058 18.3997 1.83058C18.1744 2.80689 17.9491 3.7081 17.7238 4.6093C17.6487 4.98481 17.5736 5.36031 17.4234 5.73581C17.3483 5.96112 17.4234 6.03622 17.6487 6.11132L20.127 7.23783C20.878 7.68843 21.5539 8.28924 22.0796 9.04024C22.7555 10.1668 22.8306 11.3684 22.5302 12.57C22.3049 13.3961 22.0045 14.1471 21.4037 14.7479C20.9531 15.1985 20.3523 15.4989 19.7515 15.7242C19.6764 15.7242 19.6013 15.7993 19.4511 15.7993C19.7515 16.0246 20.0519 16.1748 20.3523 16.4001C21.2535 17.076 21.8543 17.9021 22.1547 18.9535C22.3049 19.7796 22.2298 20.6809 22.0045 21.507C21.7041 22.5584 21.3286 23.4596 20.6527 24.2857C19.8266 25.262 18.7752 25.7877 17.5736 25.9379C15.9964 26.1632 14.4944 26.013 12.9924 25.7877C12.7671 25.7126 12.6169 25.7877 12.5418 26.013C12.2414 27.2146 11.941 28.4913 11.6406 29.6929C11.5655 29.9933 11.5655 30.0684 11.19 29.9182C10.5141 29.768 9.76309 29.5427 9.08718 29.3925C8.86188 29.3174 8.86188 29.2423 8.93698 29.0921C9.23739 27.8154 9.53779 26.5387 9.91329 25.3371C9.91329 25.1869 9.98839 25.1118 9.83819 25.0367C9.23739 24.8865 8.63658 24.7363 7.96067 24.5861C7.81047 25.262 7.58517 25.9379 7.43497 26.6138C7.28477 27.2897 7.05947 27.9656 6.90926 28.6415C6.83416 28.7917 6.83416 28.8668 6.60886 28.7917C5.85786 28.5664 5.10685 28.4162 4.35584 28.266C4.13054 28.1909 4.13054 28.1158 4.20564 27.9656C4.50604 26.6889 4.80644 25.4122 5.18195 24.2106C5.18195 24.1355 5.25705 24.0604 5.25705 23.9102C3.52973 23.4596 1.80242 23.009 1.55904e-06 22.5584C0.150203 22.258 0.225304 22.0327 0.375505 21.7323C0.675908 21.0564 0.976311 20.3804 1.20161 19.7796C1.27671 19.5543 1.35181 19.5543 1.57712 19.5543C2.10282 19.7045 2.70363 19.8547 3.22933 19.9298C3.83014 20.08 4.28074 19.7796 4.35584 19.2539C5.33215 15.4238 6.30846 11.5937 7.20967 7.68843C7.35987 7.08763 6.98437 6.41172 6.30846 6.18642C5.63255 5.96112 4.95665 5.81092 4.35584 5.66071C4.20564 5.66071 4.13054 5.58561 4.20564 5.43541C4.43094 4.6093 4.65625 3.7081 4.88155 2.88199C4.58114 3.10729 4.58115 3.10729 4.65625 3.03219ZM8.48638 21.5821C8.56148 21.5821 8.63658 21.6572 8.63658 21.6572C9.83819 21.9576 11.1149 22.3331 12.3916 22.4082C13.2928 22.4833 14.1189 22.4833 14.945 22.1829C16.372 21.7323 16.9728 19.8547 16.1467 18.6531C15.7711 18.0523 15.1703 17.6768 14.5695 17.3013C13.2177 16.5503 11.6406 16.2499 10.1386 15.9495C9.91329 15.8744 9.91329 15.9495 9.83819 16.1748C9.68799 16.9258 9.46269 17.6017 9.31249 18.3527C9.01208 19.4041 8.78678 20.4555 8.48638 21.5821ZM14.7948 13.9218C14.945 13.9218 15.3205 13.8467 15.6209 13.7716C17.0479 13.4712 17.7989 11.819 17.0479 10.5423C16.6724 9.86635 15.9964 9.41575 15.3205 9.11535C14.2691 8.66474 13.2177 8.43944 12.0912 8.13904C11.8659 8.06394 11.7908 8.13904 11.7157 8.36434C11.3402 9.94145 10.9647 11.4435 10.5141 13.0206C10.439 13.1708 10.5141 13.2459 10.6643 13.321C10.9647 13.3961 11.19 13.4712 11.4904 13.5463C12.6169 13.6965 13.5932 13.9218 14.7948 13.9218Z" fill="var(--fill-0, white)"/>
</g>
</svg>
