<svg preserveAspectRatio="none" width="100%" height="100%" overflow="visible" style="display: block;" viewBox="0 0 45 45" fill="none" xmlns="http://www.w3.org/2000/svg">
<g id="Group">
<path id="Vector" d="M44.9915 0H0V44.9915H44.9915V0Z" fill="var(--fill-0, #232323)"/>
<path id="Vector_2" d="M14.2769 22.4952L10.8913 25.8789L7.50195 22.4952L10.8857 19.1115L14.2769 22.4952ZM22.4991 14.273L28.303 20.075L31.6849 16.6932L22.4991 7.49805L13.3059 16.6932L16.6877 20.075L22.4991 14.273ZM34.105 19.1115L30.7251 22.4952L34.1069 25.8789L37.4888 22.4952L34.105 19.1115ZM22.501 30.7174L16.6971 24.9154L13.3134 28.2972L22.4991 37.4924L31.6849 28.2972L28.303 24.9154L22.501 30.7174ZM22.501 25.8789L25.881 22.4952L22.4972 19.1115L19.1079 22.4952L22.501 25.8789Z" fill="var(--fill-0, #F0B90B)"/>
</g>
</svg>
