<svg preserveAspectRatio="none" width="100%" height="100%" overflow="visible" style="display: block;" viewBox="0 0 28 32" fill="none" xmlns="http://www.w3.org/2000/svg">
<g id="Group">
<path id="Oval" fill-rule="evenodd" clip-rule="evenodd" d="M13.8117 18.7378C15.58 18.7378 17.0135 17.3211 17.0135 15.5735C17.0135 13.8259 15.58 12.4092 13.8117 12.4092C12.0434 12.4092 10.6099 13.8259 10.6099 15.5735C10.6099 17.3211 12.0434 18.7378 13.8117 18.7378Z" fill="var(--fill-0, white)" stroke="var(--stroke-0, #1F4F77)" stroke-width="1.45512"/>
<path id="Oval_2" fill-rule="evenodd" clip-rule="evenodd" d="M6.02691 22.3365C7.37915 22.3365 8.47535 21.2531 8.47535 19.9167C8.47535 18.5803 7.37915 17.4969 6.02691 17.4969C4.67468 17.4969 3.57848 18.5803 3.57848 19.9167C3.57848 21.2531 4.67468 22.3365 6.02691 22.3365Z" fill="var(--fill-0, white)" stroke="var(--stroke-0, #2C76B7)" stroke-width="0.795918"/>
<path id="Oval_3" fill-rule="evenodd" clip-rule="evenodd" d="M6.02691 13.588C7.34447 13.588 8.41257 12.5325 8.41257 11.2303C8.41257 9.92817 7.34447 8.87257 6.02691 8.87257C4.70935 8.87257 3.64126 9.92817 3.64126 11.2303C3.64126 12.5325 4.70935 13.588 6.02691 13.588Z" fill="var(--fill-0, white)" stroke="var(--stroke-0, #2C76B7)" stroke-width="0.77551"/>
<path id="Oval_4" fill-rule="evenodd" clip-rule="evenodd" d="M13.8117 7.2772C15.1466 7.2772 16.2287 6.20771 16.2287 4.88844C16.2287 3.56916 15.1466 2.49968 13.8117 2.49968C12.4768 2.49968 11.3946 3.56916 11.3946 4.88844C11.3946 6.20771 12.4768 7.2772 13.8117 7.2772Z" fill="var(--fill-0, white)" stroke="var(--stroke-0, #2C76B7)" stroke-width="0.785714"/>
<path id="Oval_5" fill-rule="evenodd" clip-rule="evenodd" d="M21.6278 13.557C22.9454 13.557 24.0135 12.5014 24.0135 11.1993C24.0135 9.89715 22.9454 8.84155 21.6278 8.84155C20.3103 8.84155 19.2422 9.89715 19.2422 11.1993C19.2422 12.5014 20.3103 13.557 21.6278 13.557Z" fill="var(--fill-0, white)" stroke="var(--stroke-0, #2C76B7)" stroke-width="0.77551"/>
<path id="Oval_6" fill-rule="evenodd" clip-rule="evenodd" d="M21.6278 22.3365C22.9627 22.3365 24.0449 21.267 24.0449 19.9477C24.0449 18.6284 22.9627 17.559 21.6278 17.559C20.2929 17.559 19.2108 18.6284 19.2108 19.9477C19.2108 21.267 20.2929 22.3365 21.6278 22.3365Z" fill="var(--fill-0, white)" stroke="var(--stroke-0, #2C76B7)" stroke-width="0.785714"/>
<path id="Oval_7" fill-rule="evenodd" clip-rule="evenodd" d="M13.8117 27.083C15.1813 27.083 16.2915 25.9857 16.2915 24.6322C16.2915 23.2786 15.1813 22.1814 13.8117 22.1814C12.4421 22.1814 11.3319 23.2786 11.3319 24.6322C11.3319 25.9857 12.4421 27.083 13.8117 27.083Z" fill="var(--fill-0, white)" stroke="var(--stroke-0, #2C76B7)" stroke-width="0.806122"/>
<path id="Oval_8" fill-rule="evenodd" clip-rule="evenodd" d="M1.38116 24.0738C2.14396 24.0738 2.76233 23.4626 2.76233 22.7088C2.76233 21.9549 2.14396 21.3438 1.38116 21.3438C0.618364 21.3438 -6.67572e-06 21.9549 -6.67572e-06 22.7088C-6.67572e-06 23.4626 0.618364 24.0738 1.38116 24.0738Z" fill="var(--fill-0, #2C76B7)"/>
<path id="Oval_9" fill-rule="evenodd" clip-rule="evenodd" d="M13.8117 31.147C14.5745 31.147 15.1928 30.5358 15.1928 29.782C15.1928 29.0281 14.5745 28.417 13.8117 28.417C13.0489 28.417 12.4305 29.0281 12.4305 29.782C12.4305 30.5358 13.0489 31.147 13.8117 31.147Z" fill="var(--fill-0, #2C76B7)"/>
<path id="Oval_10" fill-rule="evenodd" clip-rule="evenodd" d="M26.305 24.0738C27.0678 24.0738 27.6861 23.4626 27.6861 22.7088C27.6861 21.9549 27.0678 21.3438 26.305 21.3438C25.5422 21.3438 24.9238 21.9549 24.9238 22.7088C24.9238 23.4626 25.5422 24.0738 26.305 24.0738Z" fill="var(--fill-0, #2C76B7)"/>
<path id="Oval_11" fill-rule="evenodd" clip-rule="evenodd" d="M26.305 9.86531C27.0678 9.86531 27.6861 9.25417 27.6861 8.5003C27.6861 7.74643 27.0678 7.1353 26.305 7.1353C25.5422 7.1353 24.9238 7.74643 24.9238 8.5003C24.9238 9.25417 25.5422 9.86531 26.305 9.86531Z" fill="var(--fill-0, #2C76B7)"/>
<path id="Oval_12" fill-rule="evenodd" clip-rule="evenodd" d="M13.8117 2.73005C14.5745 2.73005 15.1928 2.11892 15.1928 1.36505C15.1928 0.611177 14.5745 4.3869e-05 13.8117 4.3869e-05C13.0489 4.3869e-05 12.4305 0.611177 12.4305 1.36505C12.4305 2.11892 13.0489 2.73005 13.8117 2.73005Z" fill="var(--fill-0, #2C76B7)"/>
<path id="Oval_13" fill-rule="evenodd" clip-rule="evenodd" d="M1.38116 9.86531C2.14396 9.86531 2.76233 9.25417 2.76233 8.5003C2.76233 7.74643 2.14396 7.1353 1.38116 7.1353C0.618364 7.1353 -6.67572e-06 7.74643 -6.67572e-06 8.5003C-6.67572e-06 9.25417 0.618364 9.86531 1.38116 9.86531Z" fill="var(--fill-0, #2C76B7)"/>
<path id="Shape" d="M2.07175 8.87258L1.95827 9.07352L3.71612 10.0662L3.8296 9.86531L3.94308 9.66437L2.18523 8.67164L2.07175 8.87258ZM2.13453 22.2806L2.24908 22.481L4.00693 21.4758L3.89238 21.2755L3.77783 21.0752L2.01998 22.0803L2.13453 22.2806ZM13.9318 29.2918H14.1626V27.2939H13.9318H13.701V29.2918H13.9318ZM25.6144 22.2806L25.7289 22.0803L23.9711 21.0752L23.8565 21.2755L23.742 21.4758L25.4998 22.481L25.6144 22.2806ZM25.5202 8.88498L25.3952 8.69099L23.7002 9.78299L23.8252 9.97699L23.9501 10.171L25.6452 9.07898L25.5202 8.88498ZM13.869 2.10339H13.6383V4.10126H13.869H14.0998V2.10339H13.869ZM8.66369 9.68537L8.77656 9.88666L11.6645 8.26726L11.5516 8.06598L11.4387 7.8647L8.55082 9.48409L8.66369 9.68537ZM16.2664 8.17766L16.1522 8.37818L19.0275 10.0162L19.1417 9.81567L19.256 9.61515L16.3806 7.97715L16.2664 8.17766ZM21.5282 14.1837H21.2975V17.4659H21.5282H21.759V14.1837H21.5282ZM19.1417 21.4554L19.0275 21.2549L16.1522 22.8929L16.2664 23.0934L16.3806 23.294L19.256 21.656L19.1417 21.4554ZM11.2314 23.0314L11.3456 22.8309L8.47029 21.1929L8.35606 21.3934L8.24184 21.5939L11.1172 23.2319L11.2314 23.0314ZM6.14704 17.3418H6.37781V14.0596H6.14704H5.91627V17.3418H6.14704Z" fill="var(--stroke-0, #2C76B7)"/>
</g>
</svg>
