<svg preserveAspectRatio="none" width="100%" height="100%" overflow="visible" style="display: block;" viewBox="0 0 30 30" fill="none" xmlns="http://www.w3.org/2000/svg">
<g id="btc" clip-path="url(#clip0_4868_792)">
<path id="Vector" d="M30 14.9997C30 17.9665 29.1202 20.8666 27.472 23.3333C25.8238 25.8 23.4811 27.7226 20.7402 28.8579C17.9993 29.9933 14.9833 30.2903 12.0736 29.7115C9.1639 29.1327 6.49115 27.7041 4.39337 25.6063C2.29558 23.5086 0.866965 20.8358 0.288187 17.9261C-0.290591 15.0164 0.00645863 12.0004 1.14177 9.25949C2.27709 6.5186 4.19968 4.17592 6.66641 2.5277C9.13315 0.879478 12.0332 -0.00025709 15 -0.00025709C18.9782 -0.00025709 22.7935 1.5801 25.6066 4.39314C28.4196 7.20619 30 11.0215 30 14.9997V14.9997Z" fill="var(--fill-0, #F7931A)"/>
<path id="Vector_2" fill-rule="evenodd" clip-rule="evenodd" d="M10.6609 6.84948L14.1081 7.77266L14.8786 4.90084L16.6022 5.36857L15.8618 8.12175L17.2677 8.49948L18.0095 5.71629L19.7631 6.18538L19.0077 8.98357C19.0077 8.98357 21.8713 9.61766 22.545 11.9467C23.2186 14.2758 21.064 15.499 20.3986 15.5454C20.3986 15.5454 22.9077 16.9213 22.0459 19.6281C21.184 22.3349 18.5386 22.819 15.7554 22.1986L15 25.1004L13.2463 24.6313L14.0168 21.7745L12.6259 21.3954L11.8554 24.2727L10.1154 23.8049L10.8872 20.9413L7.34859 19.9868L8.24041 18.0067C8.24041 18.0067 9.23859 18.2795 9.61632 18.3695C9.99405 18.4595 10.2368 18.0667 10.3431 17.674C10.4495 17.2813 12.0518 10.7727 12.2031 10.2367C12.3545 9.70084 12.2931 9.2822 11.6577 9.1172C11.0222 8.9522 10.1577 8.69448 10.1577 8.69448L10.6609 6.84948ZM14.1381 15.469L13.1836 19.264C13.1836 19.264 17.9168 20.9727 18.5222 18.5686C19.1277 16.1645 14.1381 15.469 14.1381 15.469ZM14.5772 13.669L15.514 10.1917C15.514 10.1917 19.5668 10.9172 19.0677 12.8522C18.5686 14.7872 16.1795 14.0454 14.5772 13.669Z" fill="var(--fill-0, white)"/>
</g>
<defs>
<clipPath id="clip0_4868_792">
<rect width="30" height="30" fill="white"/>
</clipPath>
</defs>
</svg>
