<svg preserveAspectRatio="none" width="100%" height="100%" overflow="visible" style="display: block;" viewBox="0 0 45 45" fill="none" xmlns="http://www.w3.org/2000/svg">
<g id="btc" clip-path="url(#clip0_4891_1164)">
<path id="Vector" d="M45.1331 22.1735C45.1331 26.6227 43.8137 30.972 41.3419 34.6714C38.87 38.3708 35.3567 41.2542 31.2461 42.9568C27.1355 44.6595 22.6124 45.105 18.2486 44.237C13.8849 43.369 9.87655 41.2264 6.73046 38.0804C3.58438 34.9343 1.44186 30.9259 0.573861 26.5622C-0.294142 22.1984 0.151349 17.6753 1.854 13.5647C3.55665 9.45417 6.43998 5.94081 10.1394 3.46895C13.8388 0.997087 18.1881 -0.322266 22.6374 -0.322266C28.6036 -0.322266 34.3255 2.04781 38.5442 6.26658C42.763 10.4854 45.1331 16.2072 45.1331 22.1735V22.1735Z" fill="var(--fill-0, #F7931A)"/>
<path id="Vector_2" fill-rule="evenodd" clip-rule="evenodd" d="M16.1293 9.94974L21.2993 11.3343L22.4547 7.02734L25.0397 7.7288L23.9292 11.8578L26.0377 12.4243L27.1502 8.25029L29.7802 8.9538L28.6472 13.1503C28.6472 13.1503 32.9418 14.1012 33.9521 17.5942C34.9624 21.0872 31.7311 22.9216 30.7332 22.9911C30.7332 22.9911 34.4961 25.0546 33.2036 29.1141C31.9111 33.1735 27.9437 33.8995 23.7697 32.969L22.6367 37.3209L20.0068 36.6174L21.1622 32.333L19.0763 31.7645L17.9208 36.0796L15.3113 35.3781L16.4688 31.0835L11.1619 29.6519L12.4993 26.6825C12.4993 26.6825 13.9963 27.0915 14.5628 27.2265C15.1293 27.3614 15.4933 26.7725 15.6528 26.1835C15.8123 25.5945 18.2153 15.8334 18.4423 15.0297C18.6693 14.226 18.5773 13.5981 17.6243 13.3507C16.6713 13.1032 15.3747 12.7167 15.3747 12.7167L16.1293 9.94974ZM21.3443 22.8766L19.9127 28.568C19.9127 28.568 27.0111 31.1305 27.9191 27.5251C28.8272 23.9196 21.3443 22.8766 21.3443 22.8766ZM22.0028 20.1771L23.4077 14.9622C23.4077 14.9622 29.4857 16.0502 28.7372 18.9521C27.9887 21.8541 24.4057 20.7416 22.0028 20.1771Z" fill="var(--fill-0, white)"/>
</g>
<defs>
<clipPath id="clip0_4891_1164">
<rect width="44.9915" height="44.9915" fill="white"/>
</clipPath>
</defs>
</svg>
