<svg preserveAspectRatio="none" width="100%" height="100%" overflow="visible" style="display: block;" viewBox="0 0 45 45" fill="none" xmlns="http://www.w3.org/2000/svg">
<g id="Flags">
<g clip-path="url(#clip0_4889_869)">
<rect width="44.9915" height="44.9915" rx="22.4957" fill="var(--fill-0, white)"/>
<g id="Vector 2">
<path d="M23.1235 34.8621H21.8879L22.1968 29.9197C22.1793 29.6595 22.0544 29.591 21.579 29.6108L16.6367 30.2286C16.6367 30.2286 17.5634 28.993 17.5634 28.3753C17.5634 27.7575 12.0032 23.7418 12.0032 23.7418C12.0032 23.7418 13.2388 23.4329 13.5477 23.124C13.8566 22.8151 12.3121 19.4173 12.3121 19.4173C12.3121 19.4173 15.4512 20.6528 15.71 20.344C15.9688 20.0351 16.3278 18.7995 16.3278 18.7995C16.3278 18.7995 18.7989 21.5795 19.4167 21.5795C20.0345 21.5795 18.1812 14.7838 18.1812 14.7838C18.1812 14.7838 19.7256 16.0194 20.3434 16.0194C20.9612 16.0194 22.5057 12.0037 22.5057 12.0037C22.5057 12.0037 24.0502 16.0194 24.3591 16.0194C24.668 16.0194 26.8303 14.7838 26.8303 14.7838C26.8303 14.7838 25.2858 21.2706 25.5947 21.5795C25.9036 21.8884 28.6836 18.7995 28.6836 18.7995C28.6836 18.7995 28.9925 20.0351 29.3014 20.344C29.6103 20.6528 32.6993 19.4173 32.6993 19.4173C32.6993 19.4173 31.1548 22.8151 31.4637 23.124C31.7726 23.4329 33.0082 23.7418 33.0082 23.7418C33.0082 23.7418 27.448 27.7575 27.448 28.3753C27.448 28.993 28.0658 30.2286 28.0658 30.2286L23.4324 29.6108C23.06 29.5041 22.9309 29.5851 22.8146 29.9197L23.1235 34.8621Z" fill="var(--fill-0, #F93939)"/>
</g>
<rect id="Rectangle 21" x="39.0093" width="15.0035" height="45.0106" fill="var(--fill-0, #F93939)"/>
<rect id="Rectangle 22" x="-9.00171" width="15.0035" height="45.0106" fill="var(--fill-0, #F93939)"/>
</g>
</g>
<defs>
<clipPath id="clip0_4889_869">
<rect width="44.9915" height="44.9915" rx="22.4957" fill="white"/>
</clipPath>
</defs>
</svg>
