<svg preserveAspectRatio="none" width="100%" height="100%" overflow="visible" style="display: block;" viewBox="0 0 30 28" fill="none" xmlns="http://www.w3.org/2000/svg">
<g id="Group">
<path id="Shape" d="M14.1399 26.9002C14.2538 26.3835 14.9162 26.1325 15.3527 26.407C15.6413 26.5321 15.7259 26.8583 15.8 27.1355C15.7605 27.2797 15.7244 27.4239 15.6897 27.5681C15.5109 27.7822 15.2811 27.9968 14.9836 27.989C14.4308 28.0542 13.9322 27.4224 14.1399 26.9002ZM7.15743 26.4998C7.27231 26.1503 7.5509 25.8025 7.95821 25.8933C8.55159 25.9363 8.72768 26.8404 8.20821 27.1189C7.74096 27.4372 7.19892 27.0013 7.15743 26.4998ZM22.1506 25.8094C22.5272 25.8868 22.9248 26.1732 22.8459 26.614C22.791 27.211 21.9273 27.3945 21.6311 26.8826C21.3425 26.4416 21.6821 25.9099 22.1506 25.8094ZM9.32247 22.3191C9.95323 21.9839 10.7998 22.5631 10.7424 23.2762C10.7615 23.8615 10.196 24.3605 9.62423 24.2742C9.15048 24.2639 8.84158 23.8345 8.68966 23.4265C8.6975 22.982 8.87827 22.4868 9.32247 22.3191ZM19.8078 22.3299C20.4563 21.9252 21.3776 22.506 21.3166 23.2683C21.3333 24.0652 20.2916 24.5759 19.6877 24.0525C19.103 23.6422 19.1745 22.6562 19.8078 22.3299ZM14.4992 21.0994C15.2397 20.7698 16.1827 21.4212 16.1125 22.2449C16.167 23.155 15.0005 23.7854 14.2766 23.239C13.4723 22.7696 13.6068 21.3881 14.4992 21.0994ZM3.32345 19.8631C3.88909 19.4828 4.70244 20.0496 4.5754 20.7176C4.50778 21.3082 3.77164 21.6461 3.28634 21.3113C2.7655 21.007 2.78462 20.1404 3.32345 19.8631ZM26.3576 19.7098C26.6588 19.7047 26.8699 19.9442 27.0627 20.1453C27.1023 20.4714 27.1683 20.8606 26.9006 21.1121C26.5365 21.5775 25.7109 21.4452 25.5129 20.8885C25.2205 20.3378 25.7524 19.6078 26.3576 19.7098ZM12.175 16.1668C13.3674 15.8536 14.6497 16.8583 14.6574 18.0984C14.7353 19.3518 13.4719 20.4631 12.2512 20.1736C11.3078 20.02 10.5673 19.1024 10.5979 18.1394C10.5953 17.2183 11.2838 16.3616 12.175 16.1668ZM16.8977 16.1648C18.1079 15.8231 19.4283 16.8453 19.4094 18.114C19.4733 19.3442 18.2501 20.4184 17.0549 20.1746C15.9301 20.0277 15.1002 18.779 15.4143 17.6765C15.5729 16.9421 16.1803 16.345 16.8977 16.1648ZM7.7922 16.9285C8.62966 16.7843 9.41497 17.7278 9.0754 18.531C8.82766 19.3871 7.59432 19.6189 7.04903 18.9197C6.40942 18.2482 6.88685 17.0212 7.7922 16.9285ZM21.6418 16.9656C22.3885 16.6497 23.3054 17.3023 23.2483 18.1209C23.2782 19.0222 22.1466 19.644 21.4162 19.118C20.5891 18.6457 20.7394 17.2556 21.6418 16.9656ZM9.7131 12.032C10.585 11.7897 11.5822 12.205 12.01 13.0144C12.4784 13.8294 12.2873 14.9616 11.5598 15.5594C10.6265 16.4361 8.9051 16.084 8.40841 14.8875C7.83793 13.7907 8.53104 12.3209 9.7131 12.032ZM19.1623 12.0271C20.0099 11.7822 21.0063 12.1125 21.4621 12.8924C22.0647 13.7846 21.7772 15.116 20.8801 15.6912C19.9404 16.359 18.4851 16.008 17.968 14.9637C17.3412 13.8835 17.9713 12.3568 19.1623 12.0271ZM4.1047 13.0457C4.85782 12.758 5.6926 13.5971 5.3879 14.3514C5.20149 15.0386 4.24262 15.2926 3.74728 14.7859C3.1677 14.3101 3.38217 13.252 4.1047 13.0457ZM25.5979 12.9168C26.1136 12.9995 26.6152 13.4199 26.5744 13.9871C26.6214 14.7361 25.7278 15.2451 25.0959 14.8933C24.7998 14.7413 24.6477 14.4344 24.5227 14.1404C24.5009 13.5099 24.9578 12.9516 25.5979 12.9168ZM0.400596 13.4158C0.853797 13.216 1.41423 13.6125 1.31075 14.1209C1.28646 14.6965 0.445102 14.9181 0.135948 14.4373C-0.137114 14.1033 0.0266608 13.5881 0.400596 13.4158ZM28.9758 13.4041C29.2948 13.1747 29.8072 13.3392 29.9338 13.7156C30.1483 14.1269 29.7544 14.6904 29.2961 14.6209C28.6529 14.6799 28.4449 13.6903 28.9758 13.4041ZM11.7404 7.99784C12.6814 7.5492 13.9479 7.92514 14.4025 8.89725C14.9375 9.84371 14.5239 11.1615 13.5676 11.6502C12.6101 12.1993 11.2595 11.7834 10.7961 10.7674C10.2766 9.78488 10.7378 8.45054 11.7404 7.99784ZM16.7229 7.8953C17.5719 7.58728 18.5807 7.95588 19.0647 8.72049C19.7031 9.65529 19.363 11.0796 18.3723 11.616C17.3458 12.2501 15.8472 11.7121 15.468 10.5545C15.0376 9.51789 15.6645 8.22023 16.7229 7.8953ZM7.97286 8.66776C8.59463 8.7435 9.09175 9.23136 9.15939 9.86698C9.11859 10.4962 8.63692 11.111 7.97677 11.1072C7.25067 11.1703 6.61384 10.4411 6.75216 9.72049C6.82368 9.10813 7.39586 8.70905 7.97286 8.66776ZM21.4865 8.80057C22.2321 8.36246 23.2677 9.00087 23.2346 9.866C23.2857 10.7828 22.1392 11.4292 21.3967 10.8914C20.6256 10.4435 20.6861 9.18182 21.4865 8.80057ZM3.3254 6.70487C3.93187 6.32828 4.75031 7.01597 4.52071 7.68143C4.39425 8.25694 3.62854 8.49112 3.19064 8.12381C2.72323 7.77953 2.7969 6.95126 3.3254 6.70487ZM25.7795 6.70389C26.294 6.30037 27.1436 6.7635 27.0822 7.41971C27.1166 8.01801 26.3821 8.46902 25.8713 8.16092C25.309 7.90538 25.2515 7.03135 25.7795 6.70389ZM14.9973 4.53788C15.4108 4.62167 15.8609 4.8 16.0383 5.22147C16.3689 5.80296 16.0761 6.60391 15.4787 6.87088C15.2055 7.02555 14.8817 6.96704 14.5842 6.94901C14.1296 6.72347 13.7471 6.28127 13.7824 5.74002C13.776 5.07729 14.3737 4.58302 14.9973 4.53788ZM19.3322 4.32108C19.6284 3.55005 20.8291 3.52657 21.1662 4.27713C21.4994 4.86125 21.089 5.5844 20.4953 5.78299C19.709 5.93106 18.9621 5.07278 19.3322 4.32108ZM9.19747 3.87088C9.86132 3.44677 10.8082 4.07838 10.7063 4.85721C10.6718 5.64355 9.63848 6.09936 9.05489 5.56815C8.49072 5.15052 8.57572 4.19203 9.19747 3.87088ZM7.59786 0.848423C7.99497 0.683338 8.49773 1.05091 8.45724 1.48807C8.49908 1.96249 7.9244 2.31123 7.51974 2.08573C6.98374 1.87574 7.04518 0.997153 7.59786 0.848423ZM21.8772 0.839634C22.3405 0.611405 22.7654 1.03953 22.8332 1.48319C22.736 1.86203 22.422 2.20892 21.9983 2.0994C21.3779 2.02345 21.2798 1.03805 21.8772 0.839634ZM14.6291 0.0827978C15.2828 -0.261429 16.0809 0.537376 15.7336 1.19706C15.5318 1.73469 14.7668 1.87742 14.3762 1.46756C13.9623 1.07417 14.0973 0.296841 14.6291 0.0827978Z" fill="var(--fill-0, white)"/>
</g>
</svg>
