<svg preserveAspectRatio="none" width="100%" height="100%" overflow="visible" style="display: block;" viewBox="0 0 30 18" fill="none" xmlns="http://www.w3.org/2000/svg">
<g id="Group">
<path id="Shape" d="M29.9516 2.80149C29.9208 2.28804 29.7702 1.78894 29.5117 1.34424C29.2825 0.885984 28.8747 0.528545 28.3981 0.345243C27.9121 0.103026 27.3736 -0.0150527 26.8309 0.00155101H6.49348L5.03623 4.36873H23.4627L20.5528 13.2955H2.13089L0.673634 17.6627H21.1072C21.7161 17.6451 22.3181 17.529 22.8899 17.319C23.4627 16.9937 24.118 16.6637 24.6725 16.2055C25.2138 15.7787 25.703 15.2896 26.1297 14.7482C26.4825 14.2178 26.7833 13.6546 27.0279 13.0664L29.727 4.57952C29.9726 4.02112 30.0506 3.40341 29.9516 2.80149V2.80149Z" fill="var(--fill-0, #2573C2)"/>
<path id="Shape_2" d="M12.2996 6.80666H1.45725L7.15256e-07 10.8439H10.9523L12.2996 6.80666Z" fill="var(--fill-0, #2573C2)"/>
</g>
</svg>
