<svg preserveAspectRatio="none" width="100%" height="100%" overflow="visible" style="display: block;" viewBox="0 0 28 21" fill="none" xmlns="http://www.w3.org/2000/svg">
<g id="Group">
<path id="_Pad_" fill-rule="evenodd" clip-rule="evenodd" d="M12.0064 12.5871H18.7416C21.244 12.5871 23.2939 10.6388 23.2939 8.20345C23.2939 5.7681 21.2707 3.84545 18.7683 3.84545H16.6119L12.0064 0.000146987H18.7416C23.4536 -0.0254883 27.2871 3.64036 27.2871 8.17782C27.3137 11.536 25.184 14.561 21.9362 15.8171L27.2605 20.2521H21.1908L12.0064 12.5871Z" fill="url(#paint0_linear_4916_14858)"/>
<path id="_Pad_2" fill-rule="evenodd" clip-rule="evenodd" d="M15.3075 7.69076H8.5723C6.0699 7.69076 4.02006 9.63904 4.02006 12.0744C4.02006 14.5098 6.04327 16.458 8.5723 16.458H10.7286L15.3075 20.3033H8.5723C3.86033 20.3033 0.0268604 16.6375 0.000239109 12.1257C-0.0263822 8.74181 2.10332 5.71684 5.35112 4.46071L0.0268604 0.00015831H6.12314L15.3075 7.69076Z" fill="var(--fill-0, #4971FA)"/>
<path id="_Pad_3" fill-rule="evenodd" clip-rule="evenodd" d="M15.3075 7.69076H8.5723C6.0699 7.69076 4.02006 9.63904 4.02006 12.0744C4.02006 14.5098 6.04327 16.458 8.5723 16.458H10.7286L15.3075 20.3033H8.5723C3.86033 20.3033 0.0268604 16.6375 0.000239109 12.1257C-0.0263822 8.74181 2.10332 5.71684 5.35112 4.46071L0.0268604 0.00015831H6.12314L15.3075 7.69076Z" fill="url(#paint1_linear_4916_14858)"/>
</g>
<defs>
<linearGradient id="paint0_linear_4916_14858" x1="12.0195" y1="20.2408" x2="27.2813" y2="20.2408" gradientUnits="userSpaceOnUse">
<stop stop-color="#62D0C9"/>
<stop offset="1" stop-color="#7DE2AC"/>
</linearGradient>
<linearGradient id="paint1_linear_4916_14858" x1="0.0479445" y1="20.2605" x2="15.31" y2="20.2605" gradientUnits="userSpaceOnUse">
<stop stop-color="#3268FB"/>
<stop offset="1" stop-color="#4795FA"/>
</linearGradient>
</defs>
</svg>
