<svg preserveAspectRatio="none" width="100%" height="100%" overflow="visible" style="display: block;" viewBox="0 0 27 26" fill="none" xmlns="http://www.w3.org/2000/svg">
<g id="Group">
<path id="Path" fill-rule="evenodd" clip-rule="evenodd" d="M0.0526561 6.63323H16.3744C16.3744 6.63323 22.0081 6.581 18.1119 13.7888C18.1119 13.7888 15.2688 19.4296 8.21355 19.3252L12.0202 9.69497C12.1122 9.46165 12.0834 9.19841 11.943 8.99017C11.8025 8.78192 11.5683 8.65501 11.3157 8.65036L6.31811 8.56575L5.24521e-06 23.817C5.24521e-06 23.817 2.10604 24.0259 3.26436 23.9214L2.63255 25.4883H5.61786C5.7856 25.4882 5.93571 25.385 5.99484 25.2293L6.52872 23.817L7.79234 23.7125L7.05523 25.4883H9.96155C10.1778 25.4882 10.372 25.3569 10.4512 25.1572L11.2684 23.0858C11.2684 23.0858 20.1137 21.6233 24.1152 14.52C24.1152 14.52 29.4856 6.26762 23.1675 3.34273C21.9361 2.78277 20.6194 2.42975 19.2713 2.29812L20.0147 0.495134C20.0603 0.384236 20.0473 0.258074 19.9799 0.158702C19.9124 0.05933 19.7996 -0.000186559 19.6788 -8.98959e-06H16.9536L16.1112 2.19366H14.9529L15.6068 0.489911C15.6494 0.378729 15.6342 0.253858 15.566 0.155989C15.4979 0.0581201 15.3855 -0.000215631 15.2656 -8.98959e-06H12.5278L11.6853 2.19366H3.17801C2.71127 2.19229 2.28223 2.44773 2.06392 2.85699L0.0526561 6.63323Z" fill="var(--fill-0, white)"/>
</g>
</svg>
