<svg preserveAspectRatio="none" width="100%" height="100%" overflow="visible" style="display: block;" viewBox="0 0 45 45" fill="none" xmlns="http://www.w3.org/2000/svg">
<g id="Group">
<path id="Vector" d="M22.4957 44.9919C34.9197 44.9919 44.9914 34.9202 44.9914 22.4962C44.9914 10.0721 34.9197 0.000446185 22.4957 0.000446185C10.0716 0.000446185 -7.04698e-05 10.0721 -7.04698e-05 22.4962C-7.04698e-05 34.9202 10.0716 44.9919 22.4957 44.9919Z" fill="var(--fill-0, #C3A634)"/>
<path id="Vector_2" fill-rule="evenodd" clip-rule="evenodd" d="M18.6261 20.5429H24.6915V23.757H18.6261V30.531H22.4518C23.966 30.531 25.2047 30.3272 26.1692 29.9166C27.1337 29.5075 27.8901 28.9409 28.4399 28.2154C29.0021 27.4609 29.3849 26.5882 29.559 25.6635C29.7622 24.6205 29.8611 23.5598 29.8543 22.4972C29.8611 21.4346 29.7622 20.374 29.559 19.331C29.3851 18.4062 29.0023 17.5334 28.4399 16.7791C27.8901 16.0536 27.1323 15.487 26.1692 15.0779C25.2047 14.6673 23.966 14.4634 22.4518 14.4634H18.6261V20.5443V20.5429ZM14.7372 23.757H12.6535V20.5443H14.7372V11.2494H23.9449C25.6462 11.2494 27.1183 11.5446 28.3625 12.1309C29.6068 12.72 30.622 13.5228 31.4107 14.5422C32.1981 15.5601 32.7844 16.7524 33.1682 18.1176C33.552 19.4828 33.7432 20.9436 33.7432 22.4972C33.7529 23.9766 33.5589 25.4503 33.1668 26.8769C32.7844 28.2407 32.1981 29.4344 31.4093 30.4523C30.622 31.4716 29.6068 32.2744 28.3625 32.8636C27.1183 33.4513 25.6448 33.7451 23.9449 33.7451H14.7372V23.757V23.757Z" fill="var(--fill-0, white)"/>
</g>
</svg>
