<svg preserveAspectRatio="none" width="100%" height="100%" overflow="visible" style="display: block;" viewBox="0 0 18 30" fill="none" xmlns="http://www.w3.org/2000/svg">
<g id="Group">
<g id="Vector">
<path d="M8.83693 -3.09944e-06L-1.90735e-06 14.6627L8.83693 19.8863L8.837 10.6461L8.83693 -3.09944e-06Z" fill="var(--fill-0, white)"/>
<path d="M8.83693 22.7614L8.72816 22.894V29.6756L8.83693 29.9933L17.6793 17.5405L8.83693 22.7614Z" fill="#C9C9C9"/>
<path d="M8.83693 29.9933V22.7614L-1.90735e-06 17.5405L8.83693 29.9933Z" fill="var(--fill-0, white)"/>
<path d="M-1.90735e-06 14.6627L8.83693 19.8863L8.837 10.6461L-1.90735e-06 14.6627Z" fill="var(--fill-0, white)"/>
<path fill-rule="evenodd" clip-rule="evenodd" d="M8.83693 -3.09944e-06L8.64391 0.656063V19.6936L8.83693 19.8863L8.837 10.6461L8.83693 -3.09944e-06Z" fill="#C9C9C9"/>
<path d="M8.83693 19.8863L17.6739 14.6627L8.837 10.6461L8.83693 19.8863Z" fill="#C9C9C9"/>
<path d="M17.6739 14.6627L8.83693 -3.09944e-06L8.837 10.6461L17.6739 14.6627Z" fill="#C9C9C9"/>
</g>
</g>
</svg>
