<svg preserveAspectRatio="none" width="100%" height="100%" overflow="visible" style="display: block;" viewBox="0 0 15 30" fill="none" xmlns="http://www.w3.org/2000/svg">
<g id="Group">
<g id="Vector">
<path fill-rule="evenodd" clip-rule="evenodd" d="M-2.38419e-06 13.5527L7.5291 8.65855L14.9967 13.5831L7.49628 0L-2.38419e-06 13.5527ZM0.287208 14.9663L7.53731 10.1886L14.693 14.9308L7.54141 19.7135L0.287208 14.9663ZM-2.38419e-06 16.3342C2.64237 18.0669 5.39962 19.8807 7.5291 21.2841L14.9967 16.3342C12.2928 21.2943 10.0402 25.4234 7.5291 29.9933L5.98908 27.2018C3.92064 23.4527 1.7871 19.5856 -2.38419e-06 16.3342Z" fill="white"/>
<path fill-rule="evenodd" clip-rule="evenodd" d="M7.49833 0L7.52646 8.65855L14.9967 13.5831L7.49833 0ZM7.53349 10.1886L14.7365 14.9308L7.53701 19.7135L7.53349 10.1886ZM7.52646 21.2841L14.9967 16.3342C12.6797 21.2943 7.52646 29.9933 7.52646 29.9933V21.2841Z" fill="var(--fill-0, #98E698)"/>
</g>
</g>
</svg>
