<svg preserveAspectRatio="none" width="100%" height="100%" overflow="visible" style="display: block;" viewBox="0 0 45 45" fill="none" xmlns="http://www.w3.org/2000/svg">
<g id="Flags">
<g clip-path="url(#clip0_4889_1036)">
<rect width="44.9915" height="44.9915" rx="22.4957" fill="var(--fill-0, #1A47B8)"/>
<path id="Vector" fill-rule="evenodd" clip-rule="evenodd" d="M-2.29715 0H-8.9978V7.49858L47.2533 44.9915L53.9903 44.9915V37.4929L-2.29715 0Z" fill="var(--fill-0, white)"/>
<path id="Vector_2" d="M-6.76293 0L53.9903 40.5986V44.9915H51.8078L-8.9978 4.35085V0H-6.76293Z" fill="var(--fill-0, #F93939)"/>
<path id="Vector_3" fill-rule="evenodd" clip-rule="evenodd" d="M47.9914 0H53.9903V7.49858C53.9903 7.49858 15.0271 32.478 -2.99894 44.9915H-8.9978V37.4929L47.9914 0Z" fill="var(--fill-0, white)"/>
<path id="Vector_4" d="M53.9903 0H51.9559L-8.9978 40.6336V44.9915H-6.76293L53.9903 4.38371V0Z" fill="var(--fill-0, #F93939)"/>
<path id="Vector_5" fill-rule="evenodd" clip-rule="evenodd" d="M13.9091 0H31.1358V13.8778H53.9903V31.1045H31.1358V44.9915H13.9091V31.1045H-8.9978V13.8778H13.9091V0Z" fill="var(--fill-0, white)"/>
<path id="Vector_6" fill-rule="evenodd" clip-rule="evenodd" d="M17.5235 0H27.469V17.3044H53.9903V27.6871H27.469V44.9915H17.5235V27.6871H-8.9978V17.3044H17.5235V0Z" fill="var(--fill-0, #F93939)"/>
</g>
</g>
<defs>
<clipPath id="clip0_4889_1036">
<rect width="44.9915" height="44.9915" rx="22.4957" fill="white"/>
</clipPath>
</defs>
</svg>
