<svg preserveAspectRatio="none" width="100%" height="100%" overflow="visible" style="display: block;" viewBox="0 0 45 45" fill="none" xmlns="http://www.w3.org/2000/svg">
<g id="Group">
<path id="Vector" d="M22.4957 44.9906C34.9197 44.9906 44.9914 34.9189 44.9914 22.4949C44.9914 10.0708 34.9197 -0.000885323 22.4957 -0.000885323C10.0716 -0.000885323 -7.04698e-05 10.0708 -7.04698e-05 22.4949C-7.04698e-05 34.9189 10.0716 44.9906 22.4957 44.9906Z" fill="var(--fill-0, #C3A634)"/>
<path id="Vector_2" fill-rule="evenodd" clip-rule="evenodd" d="M18.6261 20.5396H24.6915V23.7537H18.6261V30.5277H22.4518C23.966 30.5277 25.2047 30.3239 26.1692 29.9133C27.1337 29.5042 27.8901 28.9376 28.4399 28.2121C29.0021 27.4576 29.3849 26.5849 29.559 25.6602C29.7622 24.6172 29.8611 23.5565 29.8543 22.4939C29.8611 21.4313 29.7622 20.3707 29.559 19.3277C29.3851 18.4029 29.0023 17.5301 28.4399 16.7758C27.8901 16.0503 27.1323 15.4837 26.1692 15.0746C25.2047 14.664 23.966 14.4602 22.4518 14.4602H18.6261V20.541V20.5396ZM14.7372 23.7537H12.6535V20.541H14.7372V11.2461H23.9449C25.6462 11.2461 27.1183 11.5413 28.3625 12.1276C29.6068 12.7167 30.622 13.5195 31.4107 14.5389C32.1981 15.5568 32.7844 16.7491 33.1682 18.1143C33.552 19.4795 33.7432 20.9403 33.7432 22.4939C33.7529 23.9734 33.5589 25.4471 33.1668 26.8736C32.7844 28.2374 32.1981 29.4311 31.4093 30.449C30.622 31.4683 29.6068 32.2712 28.3625 32.8603C27.1183 33.448 25.6448 33.7418 23.9449 33.7418H14.7372V23.7537V23.7537Z" fill="var(--fill-0, white)"/>
</g>
</svg>
