<svg preserveAspectRatio="none" width="100%" height="100%" overflow="visible" style="display: block;" viewBox="0 0 13 29" fill="none" xmlns="http://www.w3.org/2000/svg">
<g id="#1c2143ff">
<path id="Path" fill-rule="evenodd" clip-rule="evenodd" d="M8.56421 -3.09944e-06H8.92849C9.43571 0.466625 9.92219 0.96642 10.2807 1.55771C11.3459 3.26525 12.0548 5.20839 12.2497 7.21215C12.388 8.07106 12.4018 8.96314 12.1747 9.80834C11.9488 10.8548 11.3217 11.7423 10.7706 12.6401C9.37462 14.6187 7.70885 16.4189 6.58027 18.5725C6.06728 19.6315 5.75719 20.7855 5.70646 21.9601C5.85056 22.5548 5.85978 23.1747 6.04077 23.7626C6.26902 24.4602 6.44655 25.1819 6.81659 25.8235C7.15897 26.5795 7.63622 27.2669 7.94632 28.0377C7.90828 28.0857 7.83104 28.1807 7.79185 28.2287C6.52494 28.2447 5.34564 27.6328 4.32543 26.9375C3.62339 26.5017 3.10463 25.8521 2.50864 25.2963C1.29822 23.9433 0.453234 22.2678 0.131607 20.4836C-0.107019 19.0894 -0.0217127 17.6404 0.392136 16.2862C1.03308 14.0743 2.53977 12.2364 4.19862 10.681C5.07243 9.70655 5.96123 8.72754 6.63561 7.59986C7.13937 6.68948 7.61547 5.75508 7.91981 4.75663C8.3302 3.20692 8.60917 1.60689 8.56421 -3.09944e-06Z" fill="var(--fill-0, #1C2143)"/>
</g>
</svg>
