<svg preserveAspectRatio="none" width="100%" height="100%" overflow="visible" style="display: block;" viewBox="0 0 27 30" fill="none" xmlns="http://www.w3.org/2000/svg">
<g id="Group">
<path id="Vector" fill-rule="evenodd" clip-rule="evenodd" d="M8.45116 14.9967L17.068 23.7792L22.5364 18.3109C23.5307 17.3166 25.0221 17.3166 25.8506 18.3109C26.8449 19.3051 26.8449 20.9622 25.8506 21.9564L18.7251 29.2476C17.7309 30.2419 16.2395 30.2419 15.2452 29.2476L4.97127 18.6423V24.9392C4.97127 26.2649 3.8113 27.4248 2.48563 27.4248C1.15996 27.4248 -3.8147e-06 26.2649 -3.8147e-06 24.9392V5.05413C-3.8147e-06 3.72846 1.15996 2.56849 2.48563 2.56849C3.8113 2.56849 4.97127 3.72846 4.97127 5.05413V11.3511L15.2452 0.745694C16.2395 -0.24856 17.7309 -0.24856 18.7251 0.745694L25.8506 8.03689C26.8449 9.03114 26.8449 10.6882 25.8506 11.6825C24.8563 12.6767 23.365 12.6767 22.5364 11.6825L17.068 6.04838L8.45116 14.9967ZM17.068 12.511C18.3937 12.511 19.5537 13.671 19.5537 14.9967C19.5537 16.3223 18.3937 17.4823 17.068 17.4823C15.7424 17.4823 14.5824 16.3223 14.5824 14.9967C14.5824 13.671 15.7424 12.511 17.068 12.511Z" fill="var(--fill-0, white)"/>
</g>
</svg>
