<svg preserveAspectRatio="none" width="100%" height="100%" overflow="visible" style="display: block;" viewBox="0 0 26 30" fill="none" xmlns="http://www.w3.org/2000/svg">
<g id="Group">
<path id="Path" fill-rule="evenodd" clip-rule="evenodd" d="M10.0444 29.9274L14.0109 25.5295C14.0777 25.4636 14.0332 25.3536 13.9217 25.3536H9.55414C9.53185 25.3536 9.48729 25.3316 9.465 25.3096L5.76591 21.2196C5.74362 21.1756 5.72134 21.1317 5.74362 21.0877L11.9385 10.5988C11.9608 10.5548 11.9608 10.5109 11.9385 10.4889L9.37587 6.135C9.3313 6.06904 9.21988 6.06904 9.17531 6.135L0.0167042 21.6594C-0.00557951 21.7034 -0.00557951 21.7474 0.0167042 21.7913L7.37033 29.9494C7.39262 29.9713 7.4149 29.9933 7.45947 29.9933H9.95525C9.97753 29.9713 10.0221 29.9494 10.0444 29.9274V29.9274Z" fill="var(--fill-0, white)"/>
<path id="Shape" d="M10.1781 4.41983C10.1558 4.46381 10.1558 4.50779 10.1781 4.52978L12.8521 9.05957L19.9384 21.0657C19.9606 21.1097 19.9606 21.1537 19.9161 21.1976L16.1724 25.3316L12.1836 29.7734C12.1168 29.8394 12.1613 29.9494 12.2728 29.9494H18.2448C18.2671 29.9494 18.3116 29.9274 18.3339 29.9054L25.6876 21.7474C25.7098 21.7034 25.7321 21.6594 25.7098 21.6154L12.9413 0.0659625C12.919 -0.0219945 12.8076 -0.0219945 12.763 0.0659625L10.1781 4.41983Z" fill="var(--fill-0, white)"/>
</g>
</svg>
