<svg preserveAspectRatio="none" width="100%" height="100%" overflow="visible" style="display: block;" viewBox="0 0 32 32" fill="none" xmlns="http://www.w3.org/2000/svg">
<g id="Group">
<path id="Shape" d="M28.5543 23.9181H22.4081V15.5735L15.5735 22.3171L8.73884 15.5735V23.9181H2.5926H2.39592C5.14943 28.236 10.0173 31.1469 15.5735 31.1469C21.1297 31.1469 25.9975 28.2845 28.751 23.9181H28.5543Z" fill="var(--fill-0, white)"/>
<path id="Shape_2" d="M5.5023 20.3653V7.5337L15.5735 17.4976L25.6446 7.5337V20.3653H30.3118C30.8522 18.81 31.1469 17.1574 31.1469 15.4076C31.1469 6.90184 24.1708 -2.38419e-07 15.5735 -2.38419e-07C6.97612 -2.38419e-07 -4.76837e-07 6.90184 -4.76837e-07 15.4076C-4.76837e-07 17.1574 0.294765 18.81 0.835169 20.3653H5.5023V20.3653Z" fill="var(--fill-0, white)"/>
</g>
</svg>
