<svg preserveAspectRatio="none" width="100%" height="100%" overflow="visible" style="display: block;" viewBox="0 0 45 45" fill="none" xmlns="http://www.w3.org/2000/svg">
<g id="btc" clip-path="url(#clip0_4916_107)">
<path id="Vector" d="M44.9915 22.4957C44.9915 26.945 43.6721 31.2943 41.2003 34.9937C38.7284 38.6931 35.2151 41.5764 31.1045 43.2791C26.9939 44.9817 22.4708 45.4272 18.107 44.5592C13.7433 43.6912 9.73494 41.5487 6.58886 38.4026C3.44277 35.2565 1.30026 31.2482 0.432259 26.8844C-0.435744 22.5207 0.00974696 17.9976 1.7124 13.887C3.41505 9.77643 6.29838 6.26308 9.99779 3.79122C13.6972 1.31935 18.0465 0 22.4957 0C28.462 0 34.1839 2.37008 38.4026 6.58885C42.6214 10.8076 44.9915 16.5295 44.9915 22.4957V22.4957Z" fill="var(--fill-0, #F7931A)"/>
<path id="Vector_2" fill-rule="evenodd" clip-rule="evenodd" d="M15.9878 10.2667L21.1578 11.6512L22.3132 7.34431L24.8982 8.04577L23.7877 12.1748L25.8962 12.7412L27.0087 8.56726L29.6387 9.27076L28.5057 13.4672C28.5057 13.4672 32.8003 14.4182 33.8106 17.9112C34.8209 21.4041 31.5897 23.2386 30.5917 23.3081C30.5917 23.3081 34.3546 25.3716 33.0621 29.431C31.7696 33.4905 27.8022 34.2165 23.6282 33.286L22.4952 37.6379L19.8653 36.9344L21.0208 32.65L18.9348 32.0814L17.7793 36.3965L15.1698 35.6951L16.3273 31.4004L11.0204 29.9689L12.3578 26.9994C12.3578 26.9994 13.8548 27.4085 14.4213 27.5434C14.9878 27.6784 15.3518 27.0894 15.5113 26.5005C15.6709 25.9115 18.0738 16.1504 18.3008 15.3467C18.5278 14.5429 18.4358 13.9151 17.4828 13.6677C16.5298 13.4202 15.2332 13.0337 15.2332 13.0337L15.9878 10.2667ZM21.2028 23.1936L19.7712 28.885C19.7712 28.885 26.8696 31.4475 27.7777 27.842C28.6857 24.2366 21.2028 23.1936 21.2028 23.1936ZM21.8613 20.4941L23.2662 15.2792C23.2662 15.2792 29.3442 16.3671 28.5957 19.2691C27.8472 22.171 24.2642 21.0585 21.8613 20.4941Z" fill="var(--fill-0, white)"/>
</g>
<defs>
<clipPath id="clip0_4916_107">
<rect width="44.9915" height="44.9915" fill="white"/>
</clipPath>
</defs>
</svg>
