<svg preserveAspectRatio="none" width="100%" height="100%" overflow="visible" style="display: block;" viewBox="0 0 45 45" fill="none" xmlns="http://www.w3.org/2000/svg">
<g id="Group">
<path id="Vector" d="M22.4957 44.9923C34.9197 44.9923 44.9914 34.9207 44.9914 22.4966C44.9914 10.0726 34.9197 0.000871229 22.4957 0.000871229C10.0716 0.000871229 -7.04698e-05 10.0726 -7.04698e-05 22.4966C-7.04698e-05 34.9207 10.0716 44.9923 22.4957 44.9923Z" fill="var(--fill-0, #23292F)"/>
<path id="Vector_2" d="M32.4355 11.2478H36.4988L28.0418 19.6233C26.5632 21.08 24.5709 21.8966 22.4952 21.8966C20.4196 21.8966 18.4272 21.08 16.9486 19.6233L8.4846 11.2478H12.5549L18.9803 17.6071C19.9159 18.5306 21.1777 19.0485 22.4924 19.0485C23.8071 19.0485 25.0689 18.5306 26.0046 17.6071L32.4355 11.2478ZM12.5057 34.5351H8.43539L16.9486 26.1091C18.4272 24.6523 20.4196 23.8357 22.4952 23.8357C24.5709 23.8357 26.5632 24.6523 28.0418 26.1091L36.5551 34.5337H32.4847L26.0102 28.1196C25.0745 27.1961 23.8127 26.6783 22.498 26.6783C21.1834 26.6783 19.9216 27.1961 18.9859 28.1196L12.5043 34.5351H12.5057Z" fill="var(--fill-0, white)"/>
</g>
</svg>
