<svg preserveAspectRatio="none" width="100%" height="100%" overflow="visible" style="display: block;" viewBox="0 0 11 16" fill="none" xmlns="http://www.w3.org/2000/svg">
<g id="Vector_2_">
<path id="path2_fill" fill-rule="evenodd" clip-rule="evenodd" d="M5.53772 15.806C5.55987 15.5873 5.58479 15.3907 5.59586 15.1831C5.654 14.0396 5.41036 12.9543 4.86771 11.9493C4.34721 10.9914 3.61907 10.2273 2.68604 9.65139C2.60576 9.59325 2.51162 9.54895 2.43133 9.49081C1.14946 8.68237 0.363176 7.53893 0.086315 6.04942C-0.409267 3.3694 1.27682 0.783511 3.92085 0.146729C4.85664 -0.0719917 5.76751 -0.0498428 6.68116 0.238093C7.43145 0.470657 8.14852 0.780742 8.86283 1.11574C9.35841 1.34831 9.83184 1.60025 10.308 1.86604C10.3662 1.90203 10.4105 1.92418 10.4825 1.96848C10.4825 2.01554 10.4935 2.04877 10.4935 2.09583C10.4935 2.7077 10.4575 3.33064 10.4133 3.9425C10.333 4.8423 10.1945 5.74487 10.009 6.62252C9.44147 9.23333 8.43923 11.6476 6.98294 13.8874C6.57872 14.5103 6.14128 15.1111 5.67892 15.6897C5.63185 15.7257 5.60693 15.77 5.53772 15.806V15.806Z" fill="var(--fill-0, #67B2E8)"/>
</g>
</svg>
