<svg preserveAspectRatio="none" width="100%" height="100%" overflow="visible" style="display: block;" viewBox="0 0 15 12" fill="none" xmlns="http://www.w3.org/2000/svg">
<g id="Vector_3_">
<path id="path3_fill" fill-rule="evenodd" clip-rule="evenodd" d="M9.5185 11.2465C9.34408 11.1773 8.81527 10.8534 8.2477 10.4741C6.98798 9.63243 5.8224 8.66065 4.75925 7.57535C3.69887 6.48728 2.752 5.29955 1.9408 4.01768C1.17943 2.82717 0.545417 1.5813 0.0359915 0.263437C0.0249171 0.227445 0.0138426 0.205296 -4.76837e-07 0.147155C0.0581404 0.183147 0.0802894 0.194221 0.116281 0.21637C0.520499 0.529224 0.946866 0.795011 1.40922 0.988814C1.99894 1.24353 2.6108 1.41795 3.25589 1.47332C4.55991 1.60068 5.78364 1.33489 6.94092 0.687035C7.54171 0.352033 8.18956 0.133312 8.87064 0.0391789C11.2849 -0.259832 13.688 1.17154 14.4383 3.66607C14.8204 4.94793 14.7041 6.19381 14.1144 7.40923C14.0341 7.56981 13.9649 7.72209 13.8818 7.87159C13.8348 7.96296 13.7794 8.05709 13.6963 8.1263C12.4754 9.28359 11.1354 10.2997 9.68185 11.1552C9.62371 11.1884 9.56557 11.2244 9.5185 11.2465V11.2465Z" fill="var(--fill-0, #00C4B3)"/>
</g>
</svg>
