<svg preserveAspectRatio="none" width="100%" height="100%" overflow="visible" style="display: block;" viewBox="0 0 15 12" fill="none" xmlns="http://www.w3.org/2000/svg">
<g id="Vector_1_">
<path id="path1_fill" fill-rule="evenodd" clip-rule="evenodd" d="M0.0110759 2.93888C1.48952 2.08338 3.03717 1.41337 4.66512 0.928864C6.88278 0.269934 9.13366 -0.0401512 11.4455 0.00414665C12.5197 0.0262956 14.3082 0.200718 14.61 0.317C14.6211 0.339149 14.5989 0.352992 14.574 0.352992C14.4716 0.400059 14.3553 0.433282 14.2501 0.480349C12.3453 1.27771 10.9942 2.95272 10.601 4.98489C10.5429 5.31989 10.5097 5.65489 10.4986 5.98989C10.4875 6.49932 10.4405 7.00598 10.2909 7.50156C9.78152 9.29285 8.31692 10.6882 6.50348 11.1063C4.12247 11.6462 1.71931 10.4695 0.681081 8.26293C0.62294 8.13557 0.578642 8.00821 0.553725 7.88086C0.379302 7.13056 0.254714 6.38027 0.160581 5.61613C0.0581424 4.77447 1.43051e-06 3.93004 1.43051e-06 3.08838C0.0110759 3.03024 0.0110759 2.99702 0.0110759 2.93888Z" fill="var(--fill-0, #F7A800)"/>
</g>
</svg>
