<svg preserveAspectRatio="none" width="100%" height="100%" overflow="visible" style="display: block;" viewBox="0 0 28 28" fill="none" xmlns="http://www.w3.org/2000/svg">
<g id="Group">
<path id="Shape" fill-rule="evenodd" clip-rule="evenodd" d="M20.7046 2.30926C21.153 2.12351 21.4453 1.68581 21.4453 1.20029H21.4459C21.4459 0.88194 21.3195 0.576621 21.0945 0.351516C20.8695 0.12641 20.5644 -3.6238e-05 20.2462 1.2812e-07C19.7609 -0.000223406 19.3233 0.292075 19.1374 0.740574C18.9516 1.18907 19.0541 1.70543 19.3971 2.04882C19.7402 2.39222 20.2563 2.49501 20.7046 2.30926ZM8.27006 1.29548C8.27012 1.78103 7.97781 2.2188 7.52946 2.40464C7.0811 2.59048 6.565 2.48778 6.22183 2.14445C5.87867 1.80111 5.77602 1.28475 5.96177 0.836172C6.14752 0.387591 6.58507 0.0951375 7.07038 0.0951935C7.73295 0.0951935 8.27006 0.63258 8.27006 1.29548ZM14.9239 1.03372C14.4161 0.507029 13.8254 -0.105658 13.0322 0.239642V0.239227C12.1887 0.5641 12.0481 1.78639 12.7364 2.34896C13.4628 2.98924 14.1516 3.67111 14.8402 4.35289L14.8403 4.35296L14.8403 4.35298L14.8403 4.353L14.8404 4.35302L14.8404 4.35304L14.8404 4.35306L14.8404 4.35308L14.8404 4.3531L14.8405 4.35312L14.8405 4.35314L14.8405 4.35316L14.8405 4.35318L14.8405 4.3532L14.8406 4.35322L14.8406 4.35324L14.8406 4.35326L14.8406 4.35328L14.8406 4.3533C15.2041 4.71316 15.5676 5.073 15.9366 5.42668C16.3436 5.83014 16.992 6.04848 17.5229 5.75875C18.2134 5.4502 18.4191 4.43615 17.9113 3.88201C17.0261 2.94612 16.0909 2.05889 15.1097 1.22422C15.0489 1.16342 14.9871 1.09928 14.924 1.0338L14.9239 1.03375L14.9239 1.03372ZM24.5003 3.73701C24.3323 3.01697 23.3651 2.75243 22.7606 3.07785H22.7608C21.9109 3.79486 21.1662 4.62049 20.4217 5.4459L20.4216 5.44593L20.4216 5.44594L20.4216 5.44595L20.4216 5.44597L20.4216 5.44598L20.4216 5.44599L20.4216 5.44601L20.4216 5.44602L20.4216 5.44603L20.4215 5.44604L20.4215 5.44606L20.4215 5.44607L20.4215 5.44608L20.4215 5.4461L20.4215 5.44611L20.4215 5.44612L20.4215 5.44613L20.4215 5.44615C20.0042 5.90876 19.587 6.37129 19.1513 6.81459C18.612 7.35835 18.805 8.43314 19.5206 8.72923C20.0158 8.95808 20.6327 8.84476 20.9832 8.42055C21.9439 7.41701 22.9054 6.41361 23.8938 5.43747C24.345 5.01118 24.7563 4.37735 24.5003 3.73701ZM3.44366 3.27737C4.0733 2.89743 4.85175 3.14925 5.31766 3.66575C5.97736 4.33188 6.65011 4.98397 7.32234 5.63555L7.32237 5.63557L7.32253 5.63573C7.71784 6.0189 8.11297 6.40189 8.50516 6.78747C9.20603 7.43611 8.71716 8.80907 7.7393 8.81336C7.139 8.90581 6.74532 8.49439 6.36195 8.09375C6.22266 7.94818 6.08472 7.80403 5.93873 7.68599C4.9787 6.89041 4.09902 6.00489 3.22806 5.11219C2.73491 4.60412 2.88233 3.67212 3.44421 3.27737H3.44366ZM5.68399 11.3722C6.34227 10.455 5.31185 9.12398 4.2564 9.53132L4.25765 9.53118C3.32772 10.1619 2.57847 11.0144 1.82932 11.8667L1.82931 11.8667L1.8293 11.8668C1.39161 12.3647 0.953957 12.8627 0.480325 13.3163C-0.231052 13.9762 0.260025 15.3359 1.23789 15.3736C1.91157 15.4549 2.34624 14.9544 2.75237 14.4868C2.84979 14.3747 2.94557 14.2644 3.04261 14.1645C3.3944 13.767 3.77439 13.3941 4.15419 13.0213L4.1542 13.0213L4.15421 13.0213C4.69126 12.4942 5.22793 11.9674 5.68399 11.3722ZM25.6587 12.4744C26.3847 12 27.4801 12.5394 27.5034 13.4153C27.5815 14.0165 27.1667 14.4105 26.7624 14.7945C26.6134 14.936 26.4659 15.0762 26.3449 15.2249C25.5539 16.1779 24.6854 17.0661 23.789 17.9205C23.1343 18.5396 21.9108 18.105 21.7933 17.2089C21.6701 16.4646 22.2072 15.947 22.7072 15.4652C22.8292 15.3475 22.9491 15.232 23.0566 15.1159C23.4686 14.7332 23.8515 14.3194 24.234 13.906C24.6931 13.41 25.1514 12.9146 25.6585 12.4748L25.6587 12.4744ZM8.80166 19.9206C8.78493 19.0642 7.71482 18.5625 7.00953 18.9845V18.9851C6.43008 19.4913 5.90072 20.051 5.37088 20.6112L5.37086 20.6112L5.37085 20.6113C4.94673 21.0597 4.52231 21.5085 4.07164 21.9303L4.05214 21.9493C3.53231 22.454 2.86629 23.1008 3.14204 23.8989C3.30578 24.7364 4.53548 25.0179 5.11257 24.4342C6.00013 23.5692 6.87939 22.6934 7.66849 21.7387C7.78697 21.5923 7.93139 21.454 8.07727 21.3142C8.48172 20.9267 8.8973 20.5285 8.80166 19.9206ZM19.5417 18.9529C19.9321 18.8187 20.4268 18.8082 20.7566 19.0895C21.1711 19.4834 21.5944 19.8679 22.0178 20.2524C22.8421 21.0011 23.6664 21.7497 24.4248 22.568C24.7794 22.9271 24.8109 23.5295 24.576 23.9619C24.2441 24.7386 23.1069 24.7575 22.555 24.2075C22.0248 23.7071 21.5045 23.1949 20.9841 22.6824C20.4106 22.1178 19.837 21.553 19.2498 21.0038C18.5722 20.477 18.7315 19.2572 19.5416 18.9528L19.5417 18.9529ZM11.8193 22.3475C11.4017 21.9046 10.7192 21.6064 10.1384 21.9213L10.1383 21.9208C9.44154 22.2253 9.23175 23.2517 9.748 23.8039C10.6043 24.7007 11.4905 25.572 12.4447 26.3636C12.5949 26.4852 12.7359 26.6343 12.8783 26.7848C13.2566 27.1849 13.6443 27.5948 14.2389 27.5244C15.2525 27.514 15.7387 26.1263 15.0196 25.4419C13.9261 24.4384 12.8728 23.393 11.8194 22.3475L11.8194 22.3475L11.8193 22.3475ZM10.5676 5.68818C11.2301 5.68816 11.7672 5.15078 11.7672 4.4879C11.7672 4.16954 11.6408 3.86422 11.4158 3.63912C11.1908 3.41402 10.8856 3.28757 10.5674 3.28761C9.90483 3.28769 9.36778 3.82511 9.36783 4.48799C9.36788 5.15087 9.90501 5.68821 10.5676 5.68818ZM2.39969 7.42061C2.3998 7.90616 2.10754 8.34396 1.65921 8.52985C1.21087 8.71575 0.694759 8.61311 0.351554 8.26981C0.00834861 7.92652 -0.0943541 7.41017 0.0913399 6.96157C0.277034 6.51297 0.714551 6.22046 1.19986 6.22046C1.51804 6.22042 1.8232 6.34685 2.04821 6.57192C2.27322 6.79699 2.39965 7.10227 2.39969 7.42061ZM27.6587 7.11953C27.6587 7.78243 27.1216 8.31982 26.459 8.31982C25.7964 8.31982 25.2593 7.78243 25.2593 7.11953C25.2593 6.45663 25.7964 5.91925 26.459 5.91925C27.1216 5.91925 27.6587 6.45663 27.6587 7.11953ZM23.1802 11.7688C23.8428 11.7687 24.3798 11.2312 24.3798 10.5683C24.3797 10.25 24.2533 9.94472 24.0283 9.71965C23.8033 9.49457 23.4981 9.36815 23.1799 9.36819C22.5174 9.36826 21.9803 9.90571 21.9804 10.5686C21.9805 11.2315 22.5176 11.7688 23.1802 11.7688ZM27.6531 20.2621C27.6531 20.925 27.116 21.4623 26.4535 21.4624C25.7909 21.4624 25.2538 20.9251 25.2538 20.2622C25.2537 19.5993 25.7908 19.0619 26.4533 19.0618C26.7715 19.0618 27.0767 19.1882 27.3017 19.4133C27.5267 19.6384 27.6531 19.9437 27.6531 20.2621ZM17.5557 24.2985C18.004 24.1127 18.2963 23.6749 18.2963 23.1894C18.2963 22.871 18.1699 22.5657 17.9448 22.3406C17.7198 22.1155 17.4146 21.9891 17.0964 21.9891C16.6111 21.9891 16.1736 22.2816 15.9879 22.7302C15.8022 23.1788 15.9049 23.6951 16.2481 24.0384C16.5913 24.3817 17.1074 24.4844 17.5557 24.2985ZM21.7481 26.472C21.7482 26.9576 21.4559 27.3954 21.0076 27.5813C20.5592 27.7672 20.0431 27.6645 19.6999 27.3212C19.3567 26.9779 19.254 26.4616 19.4397 26.013C19.6254 25.5644 20.0629 25.2719 20.5482 25.2719C20.8664 25.2718 21.1716 25.3983 21.3966 25.6233C21.6216 25.8484 21.748 26.1537 21.7481 26.472ZM7.86855 27.5812C8.31691 27.3954 8.60921 26.9576 8.60916 26.472C8.60916 25.8091 8.07204 25.2717 7.40947 25.2717C6.92416 25.2717 6.48661 25.5641 6.30086 26.0127C6.11512 26.4613 6.21776 26.9777 6.56093 27.321C6.90409 27.6643 7.42019 27.767 7.86855 27.5812ZM5.68303 17.0712C5.68308 17.5567 5.39077 17.9945 4.94242 18.1804C4.49406 18.3662 3.97796 18.2635 3.6348 17.9202C3.29163 17.5768 3.18899 17.0605 3.37473 16.6119C3.56048 16.1633 3.99803 15.8708 4.48334 15.8709C5.14591 15.8709 5.68303 16.4083 5.68303 17.0712ZM1.65911 21.6687C2.10745 21.4829 2.39974 21.0451 2.39969 20.5596C2.39969 20.2412 2.27327 19.9359 2.04826 19.7108C1.82324 19.4857 1.51806 19.3592 1.19986 19.3593C0.714564 19.3593 0.277055 19.6518 0.0913531 20.1004C-0.0943489 20.5489 0.00832837 21.0653 0.351505 21.4086C0.694681 21.7519 1.21077 21.8546 1.65911 21.6687Z" fill="var(--fill-0, #03E8B0)"/>
</g>
</svg>
