<svg preserveAspectRatio="none" width="100%" height="100%" overflow="visible" style="display: block;" viewBox="0 0 9 18" fill="none" xmlns="http://www.w3.org/2000/svg">
<g id="#2ea7e0ff">
<path id="Path" fill-rule="evenodd" clip-rule="evenodd" d="M4.98425 0.136122C5.03478 0.101797 5.13584 0.0343299 5.18749 4.76837e-06C5.95552 0.834462 6.80664 1.60855 7.34673 2.64068C7.52302 3.00168 7.79924 3.30942 7.90142 3.70831C9.19158 6.45432 9.12982 9.86317 7.68584 12.5275C7.28498 13.2957 6.73029 13.9561 6.18009 14.6071C5.56926 15.1386 4.99548 15.7505 4.26226 16.0961C3.58406 16.4394 2.91484 16.9022 2.58472 17.6431C2.2546 17.5662 2.07494 17.2478 1.88294 16.9874C1.02059 15.9517 0.277257 14.7184 0.0740207 13.3371C-0.0539845 12.8861 0.0313523 12.4115 0.00889525 11.9487C-0.0674587 10.7663 0.362594 9.6442 0.735381 8.55289C1.0509 7.93504 1.29681 7.27694 1.65724 6.68631C2.19621 5.70627 2.86655 4.81618 3.42798 3.85153C3.89172 3.04311 4.27012 2.18735 4.66424 1.33987C4.80347 0.949273 4.94832 0.556309 4.98425 0.136122Z" fill="var(--fill-0, #2EA7E0)"/>
</g>
</svg>
