<svg preserveAspectRatio="none" width="100%" height="100%" overflow="visible" style="display: block;" viewBox="0 0 23 30" fill="none" xmlns="http://www.w3.org/2000/svg">
<g id="Group">
<g id="Vector">
<path fill-rule="evenodd" clip-rule="evenodd" d="M0 11.3884C0 5.09233 5.12107 0 11.3884 0C17.6558 0 22.7786 5.09233 22.7786 11.3884C22.7766 14.2577 21.6929 17.0208 19.7437 19.1263C17.7945 21.2319 15.1231 22.5252 12.2625 22.7481C11.6691 22.7837 11.0766 22.8339 10.4856 22.8986C9.66875 23.0098 8.90619 23.3707 8.30217 23.9317C7.69814 24.4928 7.28213 25.2267 7.111 26.0331C7.111 26.0331 6.62747 28.2327 6.59873 28.4136C6.50918 28.8202 6.26262 29.1751 5.91274 29.4008C5.56285 29.6266 5.13795 29.705 4.73053 29.619C4.32387 29.5295 3.96904 29.2829 3.74328 28.9331C3.51752 28.5832 3.43909 28.1583 3.52507 27.7508C3.5555 27.5699 7.111 10.9979 7.111 10.9979C7.20056 10.5912 7.44711 10.2364 7.797 10.0106C8.14688 9.78487 8.57178 9.70645 8.97921 9.79243C9.38555 9.88236 9.73997 10.1291 9.96539 10.4789C10.1908 10.8288 10.269 11.2534 10.183 11.6606L8.70701 18.4707L8.43481 19.7945C8.40607 19.8858 8.49567 19.9771 8.58697 19.9467C8.68281 19.9329 8.79707 19.9128 8.92992 19.8895C9.09003 19.8614 9.27712 19.8285 9.49148 19.7962C10.2743 19.6745 11.872 19.5849 11.872 19.5849C13.9643 19.4633 15.9312 18.5471 17.3705 17.0236C18.8098 15.5001 19.6128 13.4843 19.6153 11.3884C19.6138 10.274 19.3857 9.17149 18.9448 8.14799C18.5038 7.1245 17.8593 6.2014 17.0503 5.43485C16.2414 4.6683 15.285 4.07432 14.2392 3.68903C13.1935 3.30375 12.0804 3.13522 10.9675 3.1937C6.71877 3.40334 3.2833 6.89967 3.16326 11.1467C3.13104 12.1412 3.28411 13.133 3.61468 14.0715C3.74644 14.4712 3.71611 14.9066 3.5302 15.2841C3.3443 15.6616 3.01767 15.951 2.62056 16.0902C2.2207 16.2219 1.78514 16.1913 1.4076 16.0051C1.03006 15.8188 0.740729 15.4918 0.601882 15.0944C0.209644 13.8906 0 12.6547 0 11.3884Z" fill="var(--fill-0, black)"/>
<path d="M12.2016 26.214C11.9563 26.1611 11.7029 26.1574 11.4562 26.2031C11.2094 26.2488 10.9742 26.3431 10.7641 26.4803C10.554 26.6176 10.3732 26.7952 10.2323 27.0029C10.0913 27.2105 9.99295 27.4441 9.9429 27.69C9.73156 28.7145 10.3656 29.7391 11.4189 29.9504C11.6644 30.0036 11.9181 30.0074 12.1651 29.9617C12.4122 29.916 12.6477 29.8216 12.858 29.6842C13.0683 29.5467 13.2492 29.3688 13.3902 29.1609C13.5312 28.9529 13.6295 28.719 13.6793 28.4728C13.8889 27.4195 13.2566 26.4237 12.2016 26.214Z" fill="#E6007A"/>
</g>
</g>
</svg>
