<svg preserveAspectRatio="none" width="100%" height="100%" overflow="visible" style="display: block;" viewBox="0 0 30 26" fill="none" xmlns="http://www.w3.org/2000/svg">
<g id="Group">
<path id="Vector" d="M22.6329 7.78771C22.0795 7.46528 21.3612 7.46528 20.7524 7.78771L16.4348 10.2681L13.503 11.8848L9.18549 14.3637C8.63212 14.6876 7.91378 14.6876 7.30492 14.3637L3.8737 12.4232C3.32033 12.1007 2.93342 11.5084 2.93342 10.8605V7.03338C2.93342 6.38703 3.26484 5.79466 3.8737 5.47074L7.24793 3.58417C7.80281 3.26024 8.52264 3.26024 9.1315 3.58417L12.5057 5.47074C13.0606 5.79466 13.4475 6.38703 13.4475 7.03338V9.51381L16.3794 7.8417V5.36276C16.3826 5.04079 16.2964 4.72424 16.1304 4.44834C15.9644 4.17245 15.7251 3.94805 15.4391 3.80012L9.18549 0.242929C8.63212 -0.0809968 7.91378 -0.0809968 7.30492 0.242929L0.940371 3.80012C0.654377 3.94805 0.415053 4.17245 0.249041 4.44834C0.0830293 4.72424 -0.00315443 5.04079 8.57252e-05 5.36276V12.5311C8.57252e-05 13.179 0.33151 13.7713 0.940371 14.0953L7.30492 17.6525C7.85829 17.9749 8.57813 17.9749 9.18549 17.6525L13.503 15.226L16.4348 13.5554L20.7524 11.1304C21.3057 10.8065 22.0241 10.8065 22.6329 11.1304L26.0087 13.017C26.5635 13.3394 26.9489 13.9318 26.9489 14.5797V18.4068C26.9489 19.0531 26.619 19.6455 26.0087 19.9694L22.6344 21.91C22.0795 22.2339 21.3597 22.2339 20.7524 21.91L17.3766 20.0234C16.8217 19.6995 16.4348 19.1071 16.4348 18.4608V15.9803L13.503 17.6525V20.1314C13.503 20.7777 13.8344 21.3716 14.4433 21.694L20.8078 25.2512C21.3612 25.5751 22.0795 25.5751 22.6884 25.2512L29.053 21.694C29.6063 21.3716 29.9932 20.7792 29.9932 20.1314V12.963C29.9965 12.6411 29.9103 12.3245 29.7443 12.0486C29.5783 11.7727 29.339 11.5483 29.053 11.4004L22.6344 7.78771H22.6329Z" fill="var(--fill-0, white)"/>
</g>
</svg>
