<svg preserveAspectRatio="none" width="100%" height="100%" overflow="visible" style="display: block;" viewBox="0 0 23 22" fill="none" xmlns="http://www.w3.org/2000/svg">
<g id="Lines">
<path id="Shape" fill-rule="evenodd" clip-rule="evenodd" d="M7.42178 21.3182H14.0816L19.3803 17.3488L19.4552 17.2718L21.4989 10.736L19.4552 4.20027L14.0816 0.153889H7.41737L2.04374 4.20027L0 10.736L2.04815 17.2718L7.42178 21.3182ZM13.9318 20.8475H7.57153L2.42694 16.9595L0.45808 10.736L2.42694 4.51258L7.57153 0.62461H13.9318L19.0808 4.51258L21.0497 10.736L19.0808 16.9595L13.9318 20.8475Z" fill="var(--fill-0, #2E9AD0)"/>
<path id="Path" fill-rule="evenodd" clip-rule="evenodd" d="M22.2609 20.2274L19.1557 17.3488L16.1253 16.181L10.7517 16.8826L5.30316 16.181L2.27278 17.3488L2.12302 16.8826L5.22387 15.6379H5.30316L10.7517 16.4164L16.2046 15.6379L16.2795 15.7148L19.4596 16.9595L22.5604 19.9151L22.2609 20.2274Z" fill="var(--fill-0, #2E9AD0)"/>
<path id="Path_2" fill-rule="evenodd" clip-rule="evenodd" d="M13.9318 21.549L10.7517 17.0365L7.42178 21.549L4.99924 16.0271L5.45291 15.7918L7.57153 20.6166L10.7517 16.181L13.8569 20.6166L15.9755 15.7918L18.8518 9.8806L19.5345 17.1134H19.0808L18.5478 11.5915L16.4292 16.0271L13.9318 21.549Z" fill="var(--fill-0, #2E9AD0)"/>
<path id="Path_3" fill-rule="evenodd" clip-rule="evenodd" d="M0.303918 10.5007H21.3492V10.9669H0.303918V10.5007Z" fill="var(--fill-0, #2E9AD0)"/>
<path id="Path_4" fill-rule="evenodd" clip-rule="evenodd" d="M18.8518 11.5915L16.2046 6.22347L13.9318 11.2792L10.7517 5.44497L7.49666 11.2792L5.22387 6.22347L2.5767 11.5915L1.96886 4.43563L2.42694 4.35869L2.88062 9.95755L5.22387 5.21413L7.49666 10.2699L10.7517 4.51258L13.8569 10.2699L16.2046 5.21413L18.5478 9.8806L18.9266 4.35869H19.3847L18.8518 11.5915Z" fill="var(--fill-0, #2E9AD0)"/>
<path id="Shape_2" fill-rule="evenodd" clip-rule="evenodd" d="M13.8569 0.932388L15.9755 5.83422L16.4292 5.60338L13.9318 0L10.7517 4.58952L7.42178 0L5.07412 5.60338L5.45291 5.83422L7.57153 0.932388L10.7517 5.44497L13.8569 0.932388ZM18.5478 11.5915L19.0808 17.1134H19.5345L18.8518 9.8806L16.2046 15.4025L13.9318 10.2699L10.7517 16.1041L7.49666 10.2699L5.22387 15.3256L2.5767 9.8806L1.96886 17.1134H2.42694L2.88062 11.5915L5.22387 16.4164L7.49666 11.2792L10.7517 17.1134L13.8569 11.2792L16.2046 16.4164L18.5478 11.5915Z" fill="var(--fill-0, #2E9AD0)"/>
<path id="Path_5" fill-rule="evenodd" clip-rule="evenodd" d="M16.2046 5.99263L10.6768 5.21413L5.22387 5.99263L2.12302 4.58952L2.27278 4.12333L5.30316 5.44497L10.6768 4.74794L16.2046 5.44497L19.1557 4.12333L19.3847 4.58952L16.2046 5.99263Z" fill="var(--fill-0, #2E9AD0)"/>
</g>
</svg>
