<svg preserveAspectRatio="none" width="100%" height="100%" overflow="visible" style="display: block;" viewBox="0 0 25 23" fill="none" xmlns="http://www.w3.org/2000/svg">
<g id="Circles">
<path id="Oval" fill-rule="evenodd" clip-rule="evenodd" d="M8.10009 22.4814C8.60121 22.4814 9.00744 22.064 9.00744 21.549C9.00744 21.0341 8.60121 20.6166 8.10009 20.6166C7.59898 20.6166 7.19274 21.0341 7.19274 21.549C7.19274 22.064 7.59898 22.4814 8.10009 22.4814Z" fill="var(--fill-0, #2E9AD0)"/>
<path id="Oval_2" fill-rule="evenodd" clip-rule="evenodd" d="M14.4604 22.4814C14.9615 22.4814 15.3677 22.064 15.3677 21.549C15.3677 21.0341 14.9615 20.6166 14.4604 20.6166C13.9592 20.6166 13.553 21.0341 13.553 21.549C13.553 22.064 13.9592 22.4814 14.4604 22.4814Z" fill="var(--fill-0, #2E9AD0)"/>
<path id="Oval_3" fill-rule="evenodd" clip-rule="evenodd" d="M8.10009 1.86477C8.60121 1.86477 9.00744 1.44733 9.00744 0.932384C9.00744 0.41744 8.60121 -4.29153e-06 8.10009 -4.29153e-06C7.59898 -4.29153e-06 7.19274 0.41744 7.19274 0.932384C7.19274 1.44733 7.59898 1.86477 8.10009 1.86477Z" fill="var(--fill-0, #2E9AD0)"/>
<path id="Oval_4" fill-rule="evenodd" clip-rule="evenodd" d="M14.4604 1.86477C14.9615 1.86477 15.3677 1.44733 15.3677 0.932384C15.3677 0.41744 14.9615 -4.29153e-06 14.4604 -4.29153e-06C13.9592 -4.29153e-06 13.553 0.41744 13.553 0.932384C13.553 1.44733 13.9592 1.86477 14.4604 1.86477Z" fill="var(--fill-0, #2E9AD0)"/>
<path id="Oval_5" fill-rule="evenodd" clip-rule="evenodd" d="M19.7591 5.75727C20.2602 5.75727 20.6665 5.33982 20.6665 4.82488C20.6665 4.30993 20.2602 3.89249 19.7591 3.89249C19.258 3.89249 18.8518 4.30993 18.8518 4.82488C18.8518 5.33982 19.258 5.75727 19.7591 5.75727Z" fill="var(--fill-0, #2E9AD0)"/>
<path id="Oval_6" fill-rule="evenodd" clip-rule="evenodd" d="M2.80134 5.75727C3.30245 5.75727 3.70869 5.33982 3.70869 4.82488C3.70869 4.30993 3.30245 3.89249 2.80134 3.89249C2.30022 3.89249 1.89399 4.30993 1.89399 4.82488C1.89399 5.33982 2.30022 5.75727 2.80134 5.75727Z" fill="var(--fill-0, #2E9AD0)"/>
<path id="Oval_7" fill-rule="evenodd" clip-rule="evenodd" d="M2.80134 18.5934C3.30245 18.5934 3.70869 18.176 3.70869 17.6611C3.70869 17.1461 3.30245 16.7287 2.80134 16.7287C2.30022 16.7287 1.89399 17.1461 1.89399 17.6611C1.89399 18.176 2.30022 18.5934 2.80134 18.5934Z" fill="var(--fill-0, #2E9AD0)"/>
<path id="Oval_8" fill-rule="evenodd" clip-rule="evenodd" d="M0.907354 12.1346C1.40847 12.1346 1.8147 11.7172 1.8147 11.2022C1.8147 10.6873 1.40847 10.2698 0.907354 10.2698C0.406238 10.2698 3.33786e-06 10.6873 3.33786e-06 11.2022C3.33786e-06 11.7172 0.406238 12.1346 0.907354 12.1346Z" fill="var(--fill-0, #2E9AD0)"/>
<path id="Oval_9" fill-rule="evenodd" clip-rule="evenodd" d="M21.8777 12.1346C22.3788 12.1346 22.7851 11.7172 22.7851 11.2022C22.7851 10.6873 22.3788 10.2698 21.8777 10.2698C21.3766 10.2698 20.9704 10.6873 20.9704 11.2022C20.9704 11.7172 21.3766 12.1346 21.8777 12.1346Z" fill="var(--fill-0, #2E9AD0)"/>
<path id="Oval_10" fill-rule="evenodd" clip-rule="evenodd" d="M19.3054 12.1346C19.8065 12.1346 20.2128 11.7172 20.2128 11.2022C20.2128 10.6873 19.8065 10.2698 19.3054 10.2698C18.8043 10.2698 18.3981 10.6873 18.3981 11.2022C18.3981 11.7172 18.8043 12.1346 19.3054 12.1346Z" fill="var(--fill-0, #2E9AD0)"/>
<path id="Oval_11" fill-rule="evenodd" clip-rule="evenodd" d="M3.32989 12.1346C3.83101 12.1346 4.23724 11.7172 4.23724 11.2022C4.23724 10.6873 3.83101 10.2698 3.32989 10.2698C2.82878 10.2698 2.42254 10.6873 2.42254 11.2022C2.42254 11.7172 2.82878 12.1346 3.32989 12.1346Z" fill="var(--fill-0, #2E9AD0)"/>
<path id="Oval_12" fill-rule="evenodd" clip-rule="evenodd" d="M8.10009 12.1346C8.60121 12.1346 9.00744 11.7172 9.00744 11.2022C9.00744 10.6873 8.60121 10.2698 8.10009 10.2698C7.59898 10.2698 7.19274 10.6873 7.19274 11.2022C7.19274 11.7172 7.59898 12.1346 8.10009 12.1346Z" fill="var(--fill-0, #2E9AD0)"/>
<path id="Oval_13" fill-rule="evenodd" clip-rule="evenodd" d="M14.4604 12.1346C14.9615 12.1346 15.3677 11.7172 15.3677 11.2022C15.3677 10.6873 14.9615 10.2698 14.4604 10.2698C13.9592 10.2698 13.553 10.6873 13.553 11.2022C13.553 11.7172 13.9592 12.1346 14.4604 12.1346Z" fill="var(--fill-0, #2E9AD0)"/>
<path id="Oval_14" fill-rule="evenodd" clip-rule="evenodd" d="M12.2509 5.59531C12.3312 5.08702 11.9953 4.60809 11.5007 4.52559C11.006 4.44309 10.54 4.78827 10.4597 5.29656C10.3794 5.80485 10.7153 6.28378 11.2099 6.36628C11.7046 6.44878 12.1707 6.10361 12.2509 5.59531Z" fill="var(--fill-0, #2E9AD0)"/>
<path id="Oval_15" fill-rule="evenodd" clip-rule="evenodd" d="M5.82731 7.15585C6.32843 7.15585 6.73466 6.73841 6.73466 6.22346C6.73466 5.70852 6.32843 5.29107 5.82731 5.29107C5.32619 5.29107 4.91996 5.70852 4.91996 6.22346C4.91996 6.73841 5.32619 7.15585 5.82731 7.15585Z" fill="var(--fill-0, #2E9AD0)"/>
<path id="Oval_16" fill-rule="evenodd" clip-rule="evenodd" d="M16.808 7.15585C17.3091 7.15585 17.7154 6.73841 17.7154 6.22346C17.7154 5.70852 17.3091 5.29107 16.808 5.29107C16.3069 5.29107 15.9007 5.70852 15.9007 6.22346C15.9007 6.73841 16.3069 7.15585 16.808 7.15585Z" fill="var(--fill-0, #2E9AD0)"/>
<path id="Oval_17" fill-rule="evenodd" clip-rule="evenodd" d="M11.3551 18.0458C11.8562 18.0458 12.2625 17.6283 12.2625 17.1134C12.2625 16.5985 11.8562 16.181 11.3551 16.181C10.854 16.181 10.4478 16.5985 10.4478 17.1134C10.4478 17.6283 10.854 18.0458 11.3551 18.0458Z" fill="var(--fill-0, #2E9AD0)"/>
<path id="Oval_18" fill-rule="evenodd" clip-rule="evenodd" d="M5.82731 17.2673C6.32843 17.2673 6.73466 16.8498 6.73466 16.3349C6.73466 15.82 6.32843 15.4025 5.82731 15.4025C5.32619 15.4025 4.91996 15.82 4.91996 16.3349C4.91996 16.8498 5.32619 17.2673 5.82731 17.2673Z" fill="var(--fill-0, #2E9AD0)"/>
<path id="Oval_19" fill-rule="evenodd" clip-rule="evenodd" d="M16.808 17.2673C17.3091 17.2673 17.7154 16.8498 17.7154 16.3349C17.7154 15.82 17.3091 15.4025 16.808 15.4025C16.3069 15.4025 15.9007 15.82 15.9007 16.3349C15.9007 16.8498 16.3069 17.2673 16.808 17.2673Z" fill="var(--fill-0, #2E9AD0)"/>
<path id="Oval_20" fill-rule="evenodd" clip-rule="evenodd" d="M23.0141 21.7844C23.6831 21.7844 24.2254 21.2271 24.2254 20.5397C24.2254 19.8523 23.6831 19.295 23.0141 19.295C22.3452 19.295 21.8029 19.8523 21.8029 20.5397C21.8029 21.2271 22.3452 21.7844 23.0141 21.7844Z" fill="var(--fill-0, #2E9AD0)"/>
</g>
</svg>
