<svg preserveAspectRatio="none" width="100%" height="100%" overflow="visible" style="display: block;" viewBox="0 0 30 30" fill="none" xmlns="http://www.w3.org/2000/svg">
<g id="Group">
<path id="Shape" fill-rule="evenodd" clip-rule="evenodd" d="M23.4717 1.73978C23.4717 2.69906 22.7288 3.47957 21.8127 3.47957C20.8967 3.47957 20.1538 2.70342 20.1538 1.74414C20.1538 0.784864 20.8967 0.00436028 21.8127 0C22.7288 0 23.4717 0.780504 23.4717 1.73978ZM23.7077 6.52753C23.7077 7.34292 23.0787 8.00133 22.302 8.00133C21.5253 8.00133 20.8963 7.34292 20.8963 6.52753C20.8963 5.71215 21.5253 5.05373 22.302 5.05373C23.0787 5.05373 23.7077 5.71651 23.7077 6.52753ZM26.1605 8.57682C26.933 8.57682 27.562 7.91841 27.562 7.10738C27.562 6.29635 26.933 5.63794 26.1605 5.63794C25.388 5.63794 24.759 6.29635 24.759 7.10738C24.759 7.91841 25.388 8.57682 26.1605 8.57682ZM26.896 11.1895C26.896 11.8828 26.3599 12.4453 25.6971 12.4453C25.0344 12.4453 24.4983 11.8828 24.4983 11.1895C24.4983 10.4962 25.0344 9.93371 25.6971 9.93371C26.3599 9.93371 26.896 10.4962 26.896 11.1895ZM28.786 13.6999C29.453 13.6999 29.9933 13.133 29.9933 12.4353C29.9933 11.7377 29.453 11.1708 28.786 11.1708C28.119 11.1708 27.5787 11.7377 27.5787 12.4353C27.5787 13.133 28.119 13.6999 28.786 13.6999ZM23.0436 10.6355C23.0436 11.3462 22.4948 11.9218 21.8152 11.9218C21.1355 11.9218 20.5867 11.3419 20.5867 10.6355C20.5867 9.92476 21.1355 9.34919 21.8152 9.34919C22.4948 9.34919 23.0436 9.92476 23.0436 10.6355ZM20.702 15.0001C21.2718 15.0001 21.732 14.5161 21.732 13.9231C21.732 13.3258 21.2718 12.8461 20.702 12.8461C20.1321 12.8461 19.672 13.3301 19.672 13.9231C19.672 14.5161 20.1321 15.0001 20.702 15.0001ZM25.5867 14.4715C25.5867 15.0646 25.1308 15.5442 24.5651 15.5442C23.9994 15.5442 23.5393 15.0646 23.5435 14.4715C23.5435 13.8785 23.9994 13.3989 24.5651 13.3989C25.1308 13.3989 25.5867 13.8785 25.5867 14.4715ZM27.6453 16.794C28.2152 16.794 28.6753 16.31 28.6753 15.7127C28.6753 15.1153 28.2152 14.6313 27.6453 14.6313C27.0754 14.6313 26.6153 15.1153 26.6153 15.7127C26.6153 16.31 27.0754 16.794 27.6453 16.794ZM26.9933 18.2177C26.9933 18.7192 26.6049 19.129 26.1237 19.129C25.6424 19.129 25.2541 18.7192 25.2541 18.2177C25.2541 17.7163 25.6424 17.3064 26.1237 17.3064C26.6049 17.3064 26.9933 17.7163 26.9933 18.2177ZM23.0289 17.8991C23.5186 17.8991 23.9196 17.4805 23.9196 16.966C23.9196 16.4515 23.5228 16.0329 23.0289 16.0329C22.535 16.0329 22.1382 16.4515 22.1382 16.966C22.1382 17.4805 22.5392 17.8991 23.0289 17.8991ZM20.0532 16.405C20.0532 16.9151 19.6564 17.3294 19.1709 17.3294C18.6812 17.3294 18.2886 16.9151 18.2886 16.405C18.2886 15.8948 18.6854 15.4806 19.1709 15.4806C19.6606 15.4806 20.0532 15.8948 20.0532 16.405ZM21.3154 19.5227C21.7417 19.5227 22.0837 19.1608 22.0837 18.7204C22.0837 18.2756 21.7417 17.9181 21.3154 17.9181C20.889 17.9181 20.5471 18.28 20.5471 18.7204C20.5471 19.1651 20.889 19.5227 21.3154 19.5227ZM25.1856 19.9619C25.1856 20.411 24.8353 20.7729 24.4089 20.7729C23.9825 20.7729 23.6364 20.411 23.6322 19.9619C23.6322 19.5128 23.9825 19.1509 24.4089 19.1509C24.8395 19.1509 25.1856 19.5128 25.1856 19.9619ZM22.6664 21.7111C23.0042 21.7111 23.2785 21.4234 23.2785 21.0702C23.2785 20.717 23.0042 20.4292 22.6664 20.4292C22.3287 20.4292 22.0543 20.717 22.0543 21.0702C22.0586 21.4234 22.3287 21.7111 22.6664 21.7111ZM21.569 21.6344C21.569 21.9527 21.3241 22.2143 21.016 22.2143C20.7078 22.2143 20.4587 21.957 20.463 21.6344C20.463 21.3161 20.7078 21.0544 21.016 21.0544C21.3199 21.0544 21.569 21.3117 21.569 21.6344ZM19.5703 20.5468C19.9333 20.5468 20.2288 20.2372 20.2288 19.8579C20.2288 19.4785 19.9333 19.1689 19.5703 19.1689C19.2073 19.1689 18.9118 19.4785 18.9118 19.8579C18.9118 20.2372 19.2073 20.5468 19.5703 20.5468ZM18.2166 18.1636C18.2166 18.6084 17.8704 18.9659 17.4483 18.9659C17.0261 18.9659 16.6842 18.6084 16.68 18.1636C16.68 17.7189 17.0261 17.3613 17.4483 17.3613C17.8746 17.3613 18.2166 17.7189 18.2166 18.1636ZM23.7401 29.0135C24.6519 29.0135 25.3907 28.2374 25.3907 27.2825C25.3907 26.3276 24.6519 25.5514 23.7401 25.5514C22.8283 25.5514 22.0896 26.3276 22.0896 27.2825C22.0896 28.2374 22.8283 29.0135 23.7401 29.0135ZM20.9216 25.3785C20.9216 26.1765 20.3053 26.8218 19.5454 26.8218C18.7856 26.8218 18.1693 26.1765 18.1693 25.3785C18.1693 24.5806 18.7856 23.9353 19.5454 23.9353C20.3053 23.9353 20.9216 24.5806 20.9216 25.3785ZM17.1494 29.9933C17.9177 29.9933 18.5382 29.3436 18.5382 28.537C18.5382 27.7347 17.9177 27.0806 17.1494 27.0806C16.3811 27.0806 15.7606 27.7303 15.7606 28.537C15.7606 29.3393 16.3811 29.9933 17.1494 29.9933ZM17.6321 22.8899C17.6321 23.5875 17.0917 24.15 16.429 24.15C15.7662 24.15 15.2259 23.5832 15.2259 22.8899C15.2259 22.1922 15.7662 21.6297 16.429 21.6297C17.0917 21.6297 17.6321 22.1922 17.6321 22.8899ZM14.0379 27.3641C14.7006 27.3641 15.2367 26.8016 15.2367 26.1084C15.2367 25.4151 14.7006 24.8526 14.0379 24.8526C13.3751 24.8526 12.839 25.4151 12.839 26.1084C12.8348 26.8016 13.3751 27.3641 14.0379 27.3641ZM12.6563 28.2954C12.6563 28.9843 12.1244 29.5468 11.4616 29.5468C10.8031 29.5468 10.267 28.9843 10.267 28.2954C10.267 27.6064 10.7989 27.0439 11.4616 27.0439C12.1201 27.0439 12.6563 27.6021 12.6563 28.2954ZM9.31738 26.7063C9.87882 26.7063 10.3389 26.2267 10.3389 25.638C10.3389 25.0494 9.88304 24.5697 9.31738 24.5697C8.75594 24.5697 8.29581 25.0494 8.29581 25.638C8.30003 26.2267 8.75594 26.7063 9.31738 26.7063ZM12.92 23.4466C12.92 24.0352 12.4641 24.5149 11.8984 24.5149C11.3327 24.5149 10.8768 24.0352 10.8768 23.4466C10.8768 22.8579 11.3327 22.3783 11.8984 22.3783C12.4641 22.3783 12.92 22.8536 12.92 23.4466ZM14.307 21.3008C14.8727 21.3008 15.3286 20.8212 15.3286 20.2282C15.3286 19.6352 14.8727 19.1555 14.307 19.1555C13.7414 19.1555 13.2855 19.6352 13.2855 20.2282C13.2855 20.8212 13.7414 21.3008 14.307 21.3008ZM11.5096 20.8147C11.5096 21.3292 11.1128 21.7435 10.6231 21.7435C10.1334 21.7435 9.73661 21.3292 9.73661 20.8147C9.73661 20.3002 10.1334 19.8859 10.6231 19.8859C11.1128 19.8859 11.5096 20.3002 11.5096 20.8147ZM8.05563 23.9264C8.54109 23.9264 8.93368 23.5165 8.93368 23.0063C8.93368 22.4962 8.54109 22.0863 8.05563 22.0863C7.57018 22.0863 7.17759 22.4962 7.17759 23.0063C7.17759 23.5165 7.57018 23.9264 8.05563 23.9264ZM8.22448 20.5743C8.22448 21.0104 7.88255 21.3679 7.46463 21.3679C7.04672 21.3679 6.70479 21.0147 6.70479 20.5743C6.70479 20.1383 7.04672 19.7808 7.46463 19.7808C7.88255 19.7808 8.22448 20.1339 8.22448 20.5743ZM7.44305 19.1232C7.80187 19.1232 8.09314 18.818 8.09314 18.4387C8.09314 18.0637 7.80187 17.7541 7.44305 17.7541C7.08424 17.7541 6.79296 18.0593 6.79296 18.4387C6.79296 18.818 7.08424 19.1232 7.44305 19.1232ZM8.3541 16.6765C8.3541 16.9948 8.10927 17.2564 7.80111 17.2564C7.49295 17.2564 7.24811 16.9948 7.24811 16.6765C7.24811 16.3582 7.49295 16.0966 7.80111 16.0966C8.10504 16.0966 8.3541 16.3582 8.3541 16.6765ZM10.015 16.9449C10.3781 16.9449 10.6736 16.6354 10.6736 16.256C10.6736 15.8767 10.3781 15.5671 10.015 15.5671C9.65201 15.5671 9.35652 15.8767 9.35652 16.256C9.35652 16.6354 9.65201 16.9449 10.015 16.9449ZM13.2133 15.1641C13.2133 15.6045 12.8671 15.9664 12.445 15.9664C12.0186 15.9664 11.6767 15.6089 11.6767 15.1641C11.6767 14.7237 12.0229 14.3618 12.445 14.3618C12.8714 14.3618 13.2133 14.7194 13.2133 15.1641ZM13.0234 18.5124C13.5047 18.5124 13.8973 18.1025 13.8973 17.5967C13.8973 17.0909 13.5047 16.681 13.0234 16.681C12.5422 16.681 12.1496 17.0909 12.1496 17.5967C12.1496 18.1025 12.538 18.5124 13.0234 18.5124ZM10.8053 18.3921C10.8053 18.8325 10.4676 19.19 10.0455 19.19C9.62333 19.19 9.2814 18.8325 9.28562 18.3921C9.28562 17.9517 9.62333 17.5941 10.0455 17.5941C10.4634 17.5941 10.8053 17.9517 10.8053 18.3921ZM1.64633 18.0073C2.55392 18.0073 3.29266 17.2355 3.29266 16.285C3.29266 15.3344 2.55392 14.5627 1.64633 14.5627C0.738738 14.5627 0 15.3344 0 16.285C0 17.2355 0.738738 18.0073 1.64633 18.0073ZM6.79322 13.4527C6.79322 14.268 6.16423 14.9308 5.38328 14.9308C4.60655 14.9308 3.97334 14.2724 3.97334 13.4527C3.97334 12.6373 4.60233 11.9745 5.38328 11.9745C6.16001 11.9745 6.79322 12.6373 6.79322 13.4527ZM3.92502 11.1378C4.70175 11.1378 5.32652 10.4794 5.32652 9.66838C5.32652 8.85735 4.69753 8.19894 3.92502 8.19894C3.14829 8.19894 2.52353 8.85735 2.52353 9.66838C2.51931 10.4794 3.14829 11.1378 3.92502 11.1378ZM8.73076 8.08045C8.73076 8.77811 8.19043 9.34059 7.52767 9.34059C6.86492 9.34059 6.32458 8.77811 6.32458 8.08045C6.32458 7.38279 6.86492 6.82031 7.52767 6.82031C8.19043 6.82031 8.73076 7.38279 8.73076 8.08045ZM8.9992 13.1246C9.66617 13.1246 10.2065 12.5578 10.2065 11.8601C10.2065 11.1625 9.66617 10.5956 8.9992 10.5956C8.33222 10.5956 7.79189 11.1625 7.79189 11.8601C7.79189 12.5578 8.33222 13.1246 8.9992 13.1246ZM13.3039 11.2618C13.3039 11.8592 12.8438 12.3388 12.2781 12.3388C11.7082 12.3388 11.2481 11.8548 11.2523 11.2618C11.2523 10.6644 11.7125 10.1848 12.2781 10.1848C12.8438 10.1848 13.3039 10.6688 13.3039 11.2618ZM15.1092 12.3485C15.5988 12.3485 15.9957 11.9342 15.9957 11.4241C15.9957 10.9139 15.5988 10.4997 15.1092 10.4997C14.6195 10.4997 14.2227 10.9139 14.2227 11.4241C14.2269 11.9342 14.6237 12.3485 15.1092 12.3485ZM18.1965 12.1247C18.1965 12.5564 17.8588 12.9052 17.4493 12.9052C17.0398 12.9052 16.7063 12.552 16.7021 12.1247C16.7021 11.693 17.0398 11.3442 17.4493 11.3442C17.863 11.3442 18.1965 11.693 18.1965 12.1247ZM17.7543 10.0568C18.1131 10.0568 18.4043 9.75162 18.4043 9.37663C18.4043 9.00164 18.1131 8.69642 17.7543 8.69642C17.3954 8.69642 17.1042 9.00164 17.1042 9.37663C17.1042 9.75162 17.3954 10.0568 17.7543 10.0568ZM16.7064 8.33538C16.7064 8.77142 16.3687 9.12461 15.955 9.12461C15.5371 9.12461 15.2036 8.77142 15.2036 8.33538C15.2036 7.89935 15.5413 7.54616 15.955 7.54616C16.3687 7.54616 16.7064 7.89935 16.7064 8.33538ZM13.642 8.55977C14.1275 8.55977 14.5201 8.14554 14.5201 7.63973C14.5201 7.12957 14.1275 6.7197 13.642 6.7197C13.1566 6.7197 12.764 7.13393 12.764 7.63973C12.764 8.1499 13.1566 8.55977 13.642 8.55977ZM11.8454 7.48641C11.8454 8.07942 11.3852 8.56342 10.8154 8.56342C10.2497 8.56342 9.78957 8.08378 9.78535 7.48641C9.78535 6.8934 10.2455 6.4094 10.8154 6.4094C11.3852 6.4094 11.8454 6.8934 11.8454 7.48641ZM7.00788 5.87007C7.65374 5.87007 8.17297 5.32503 8.17297 4.64917C8.17297 3.97331 7.64952 3.42827 7.00788 3.42827C6.36201 3.42827 5.84278 3.97331 5.84278 4.64917C5.84278 5.32503 6.36623 5.87007 7.00788 5.87007ZM11.3148 4.05318C11.3148 4.64619 10.8547 5.13019 10.2848 5.13019C9.71493 5.13019 9.2548 4.64619 9.2548 4.05318C9.2548 3.46018 9.71493 2.97618 10.2848 2.97618C10.8547 2.97618 11.3148 3.46018 11.3148 4.05318ZM13.1158 5.14414C13.6055 5.14414 14.0023 4.7299 14.0023 4.21538C14.0023 3.70086 13.6055 3.28662 13.1158 3.28662C12.6261 3.28662 12.2293 3.70086 12.2293 4.21538C12.2293 4.72554 12.6261 5.14414 13.1158 5.14414ZM16.1855 4.91617C16.1855 5.34784 15.852 5.69667 15.4383 5.69667C15.0288 5.69667 14.6911 5.34348 14.6911 4.91617C14.6911 4.48449 15.0246 4.13566 15.4383 4.13566C15.852 4.13566 16.1855 4.48449 16.1855 4.91617ZM17.2231 6.654C17.5904 6.654 17.8901 6.34006 17.8901 5.95635C17.8901 5.56827 17.5904 5.25869 17.2231 5.25869C16.8559 5.25869 16.5562 5.57263 16.5562 5.95635C16.5562 6.34006 16.8559 6.654 17.2231 6.654ZM19.0811 7.17658C19.0811 7.49488 18.8363 7.75215 18.5324 7.75215C18.2284 7.75215 17.9794 7.49488 17.9836 7.17658C17.9836 6.85827 18.2284 6.60101 18.5324 6.60101C18.8363 6.60101 19.0811 6.85827 19.0811 7.17658Z" fill="var(--fill-0, white)"/>
</g>
</svg>
