<svg preserveAspectRatio="none" width="100%" height="100%" overflow="visible" style="display: block;" viewBox="0 0 30 25" fill="none" xmlns="http://www.w3.org/2000/svg">
<g id="Group">
<path id="Vector" d="M25.5993 0H29.9333L20.9128 8.93351C19.3357 10.4874 17.2106 11.3584 14.9967 11.3584C12.7827 11.3584 10.6576 10.4874 9.08048 8.93351L0.0524848 0H4.39402L11.2475 6.78299C12.2455 7.76806 13.5914 8.3204 14.9937 8.3204C16.396 8.3204 17.7418 7.76806 18.7398 6.78299L25.5993 0ZM4.34153 24.839H-3.33786e-06L9.08048 15.8515C10.6576 14.2976 12.7827 13.4266 14.9967 13.4266C17.2106 13.4266 19.3357 14.2976 20.9128 15.8515L29.9933 24.8375H25.6518L18.7458 17.996C17.7478 17.0109 16.402 16.4586 14.9997 16.4586C13.5974 16.4586 12.2515 17.0109 11.2535 17.996L4.34003 24.839H4.34153Z" fill="var(--fill-0, white)"/>
</g>
</svg>
