<svg preserveAspectRatio="none" width="100%" height="100%" overflow="visible" style="display: block;" viewBox="0 0 30 30" fill="none" xmlns="http://www.w3.org/2000/svg">
<g id="Group">
<path id="Vector" d="M21.7084 2.64054C20.9367 3.41232 20.2296 4.24881 19.601 5.14075L19.4023 5.07605C18.2562 4.70172 17.0685 4.47064 15.8715 4.39207C15.511 4.36435 14.1662 4.36435 13.7271 4.39207C12.4007 4.47988 11.3841 4.6786 10.2287 5.08067C10.1825 5.09916 10.1409 5.11303 10.0993 5.12689C9.44771 4.23957 8.7221 3.4077 7.92259 2.64516C11.7584 0.681036 16.2459 0.445341 20.2619 1.99353C20.6917 2.15528 21.1122 2.34477 21.5236 2.54811L21.7084 2.64054Z" fill="var(--fill-0, #F00500)"/>
<path id="Vector_2" d="M28.8625 20.1698C28.2802 21.829 27.4067 23.3679 26.2744 24.7081C25.6598 25.429 24.9804 26.0899 24.2503 26.6907C22.5403 28.0679 20.5438 29.0523 18.4133 29.5699C16.0564 30.1383 13.5978 30.1383 11.2408 29.5699C9.10569 29.0523 7.11384 28.0679 5.4039 26.6907C4.6737 26.0899 3.99434 25.429 3.37969 24.7081C0.121553 20.8584 -0.86744 15.5714 0.791667 10.8067C1.10593 9.92404 1.49875 9.07366 1.97014 8.26491C2.18735 7.89518 2.45539 7.47925 2.5848 7.30826C3.02846 9.21692 3.57379 10.8945 3.77714 11.4999C3.76327 11.5323 3.74479 11.5693 3.7263 11.6016C2.6495 13.783 2.0672 15.8857 1.92855 18.1225C1.92855 18.1502 1.92392 18.1826 1.92392 18.2103C1.88696 18.8804 1.90544 19.1993 2.01636 19.6199C2.36297 20.9369 3.43053 22.3881 5.1035 23.8115C7.84403 26.1408 11.5597 27.8229 14.3741 28.0171C17.3088 28.2158 21.6391 26.5013 24.5229 23.9964C24.9758 23.5944 25.401 23.1691 25.7984 22.7162C26.0849 22.3835 26.5102 21.8104 26.4778 21.8104C26.4686 21.8104 26.4778 21.8012 26.4963 21.7919C26.5102 21.7827 26.524 21.7689 26.5148 21.7596C26.5102 21.755 26.5194 21.7411 26.5332 21.7365C26.5471 21.7319 26.5564 21.7226 26.5517 21.7134C26.5471 21.7041 26.5517 21.6949 26.5703 21.6902C26.5841 21.6856 26.5887 21.6718 26.5841 21.6625C26.5794 21.6533 26.5841 21.644 26.5933 21.644C26.6026 21.644 26.6118 21.6302 26.6118 21.621C26.6118 21.6117 26.6211 21.5978 26.6303 21.5978C26.6395 21.5978 26.6488 21.5886 26.6488 21.5794C26.6627 21.5424 26.6857 21.5054 26.7089 21.4731C26.7781 21.3668 27.0555 20.8723 27.0924 20.7891C27.3559 20.1929 27.5223 19.6615 27.6008 19.1299C27.6377 18.8758 27.6609 18.4091 27.6424 18.2981C27.6377 18.2796 27.6377 18.2473 27.6331 18.1965C27.624 18.104 27.6193 17.9654 27.6101 17.8267C27.6008 17.6187 27.5823 17.3276 27.5685 17.1843C27.3698 15.0862 26.8336 13.3716 25.817 11.5554C25.7753 11.486 25.7383 11.4168 25.7153 11.3613C25.706 11.3474 25.7014 11.3335 25.6968 11.3244C25.84 10.8945 26.4269 9.09677 26.8937 7.04021L26.903 7.04946L26.9723 7.14189C27.0924 7.30364 27.4113 7.78427 27.5546 8.01534C28.2062 9.07828 28.7146 10.2198 29.0751 11.4121C29.9115 14.2821 29.8422 17.3415 28.8625 20.1698Z" fill="var(--fill-0, #F00500)"/>
<path id="Vector_3" d="M22.8638 14.6471C22.85 14.721 22.6328 14.9428 22.4155 15.1045C21.7778 15.5713 20.6363 16.0058 19.4763 16.2137C18.8155 16.3339 18.1546 16.3524 17.9559 16.2553C17.8264 16.1906 17.808 16.1398 17.8542 15.9734C17.9512 15.6268 18.2655 15.2478 18.7554 14.892C19.0049 14.7117 20.017 14.0971 20.4884 13.8383C21.2648 13.4131 21.8934 13.1589 22.3185 13.0988C22.4525 13.0804 22.6143 13.0757 22.6651 13.0988C22.7483 13.1312 22.8408 13.3761 22.8777 13.6719C22.8962 13.829 22.887 14.5222 22.8638 14.6471Z" fill="var(--fill-0, black)"/>
<path id="Vector_4" d="M11.9757 16.1768C11.9479 16.2322 11.8092 16.2923 11.6521 16.3155C11.495 16.3385 11.0144 16.3247 10.7417 16.2923C9.76198 16.163 8.72213 15.8626 7.9642 15.4928C7.53903 15.2849 7.23401 15.0769 7.00756 14.8505L6.87815 14.7164L6.86429 14.5408C6.84119 14.2358 6.84581 13.7552 6.88277 13.5842C6.90589 13.4409 6.95672 13.3023 7.02604 13.1775C7.06302 13.1313 7.06302 13.1313 7.22939 13.1313C7.43273 13.1313 7.60373 13.1636 7.88102 13.2515C8.44946 13.427 9.29519 13.8522 10.3258 14.4715C11.1761 14.9798 11.495 15.2294 11.74 15.5714C11.9063 15.784 12.0172 16.0844 11.9757 16.1768Z" fill="var(--fill-0, black)"/>
<path id="Vector_5" d="M18.5197 22.6099C18.5197 22.6238 18.4642 22.8455 18.3949 23.109C18.3256 23.3724 18.2702 23.585 18.2702 23.5942C18.2193 23.5988 18.1731 23.6035 18.1223 23.5988H17.9744L17.771 24.0795C17.6601 24.3429 17.5584 24.5879 17.5445 24.6248L17.5169 24.6896L17.4198 24.5324L17.3228 24.3753V23.0951L17.2857 23.1044C17.2072 23.1229 16.648 23.1968 16.4031 23.2199C15.3909 23.3216 14.3742 23.2984 13.3667 23.1552C13.2049 23.1321 13.0663 23.1136 13.0617 23.1182C13.0571 23.1229 13.0617 23.4186 13.071 23.7838L13.0848 24.44L13.0062 24.5601C12.9647 24.6248 12.9231 24.6803 12.9231 24.6849C12.9092 24.6987 12.863 24.6248 12.7567 24.4122C12.6412 24.1904 12.558 23.9547 12.4979 23.7098L12.4655 23.5758L12.3223 23.585L12.179 23.5988L12.1421 23.4279C12.1236 23.3354 12.1004 23.1921 12.0913 23.1136L12.0774 22.9657L11.9572 22.8594C11.8879 22.7993 11.8185 22.7392 11.8047 22.73C11.7816 22.7115 11.7723 22.6792 11.7723 22.6514V22.596L12.35 22.6006L12.9277 22.6052L12.9462 22.6653L12.9646 22.7254L13.1634 22.7346C13.2743 22.7392 13.6255 22.7485 13.9398 22.7578L14.5175 22.7716L14.6653 22.5405L14.8178 22.3095H15.012L15.0074 21.8288L15.0028 21.3482L14.7486 21.2373C13.9306 20.8768 13.45 20.4655 13.2697 19.9664C13.2327 19.8647 13.2327 19.8277 13.2235 19.3655C13.2188 18.9081 13.2188 18.8664 13.2512 18.7648C13.3159 18.5337 13.4962 18.3535 13.7272 18.2934C13.8058 18.2703 14.0137 18.2703 15.1044 18.2703L16.3892 18.2749L16.5324 18.3443C16.7035 18.4274 16.782 18.4875 16.879 18.6169C16.99 18.7648 17.0223 18.8803 17.0223 19.1622C17.0223 19.5643 16.9946 19.911 16.953 20.0496C16.8929 20.239 16.8005 20.4193 16.6849 20.581C16.4539 20.8768 16.0333 21.1726 15.6498 21.3066L15.5388 21.3482L15.5435 21.8334L15.5481 22.3187L15.6498 22.328L15.7514 22.3372L15.8901 22.5451L16.024 22.7531H16.6434C16.9853 22.7531 17.2857 22.7577 17.3135 22.7624C17.3597 22.7716 17.369 22.767 17.4152 22.6884L17.4706 22.6052H18.0021C18.3995 22.5867 18.5197 22.596 18.5197 22.6099Z" fill="var(--fill-0, black)"/>
<path id="Vector_6" d="M16.0794 23.9364C15.9916 23.9872 15.9315 24.0102 15.9176 24.0011C15.9038 23.9965 15.8391 23.941 15.7697 23.8902L15.645 23.7885L15.5156 23.9271C15.2337 24.2321 15.2244 24.246 15.1413 24.2506C15.0119 24.2644 14.9841 24.2414 14.827 24.0056C14.7438 23.8855 14.6791 23.7838 14.6791 23.7838C14.6791 23.7838 14.619 23.7746 14.5498 23.77L14.4203 23.7561L14.3602 23.8809L14.3002 24.0056L14.1939 23.9733C14.1106 23.9456 14.0275 23.9132 13.949 23.8763L13.8103 23.8069V23.5436L15.0396 23.5482L16.2689 23.5527L16.2735 23.6775C16.2781 23.8254 16.2828 23.8208 16.0794 23.9364Z" fill="var(--fill-0, black)"/>
<path id="Vector_7" d="M27.6331 18.2982C27.6285 18.2797 27.6285 18.2474 27.624 18.1966C26.5148 18.0764 23.3491 18.0025 20.4098 20.4287C20.4098 20.4287 19.4624 16.0845 15.0258 16.0845C10.5891 16.0845 8.94394 20.4287 8.94394 20.4287C6.45758 17.7529 3.13013 17.947 1.92854 18.1226C1.92854 18.1503 1.92392 18.1827 1.92392 18.2103C1.88695 18.8805 1.90544 19.1994 2.01635 19.6199C2.36296 20.937 3.43052 22.3882 5.1035 23.8116C7.84402 26.1409 11.5597 27.823 14.3741 28.0171C17.3088 28.2158 21.6391 26.5013 24.5229 23.9964C24.9758 23.5944 25.401 23.1693 25.7984 22.7163C26.0849 22.3835 26.5102 21.8105 26.4778 21.8105C26.4686 21.8105 26.4778 21.8013 26.4963 21.792C26.5102 21.7828 26.524 21.769 26.5148 21.7597C26.5102 21.7551 26.5194 21.7412 26.5332 21.7365C26.5471 21.7319 26.5564 21.7228 26.5517 21.7135C26.5471 21.7042 26.5517 21.695 26.5703 21.6903C26.5841 21.6857 26.5887 21.6719 26.5841 21.6627C26.5794 21.6534 26.5841 21.6441 26.5933 21.6441C26.6026 21.6441 26.6118 21.6302 26.6118 21.6211C26.6118 21.6118 26.6211 21.5979 26.6303 21.5979C26.6395 21.5979 26.6488 21.5887 26.6488 21.5794C26.6627 21.5425 26.6857 21.5055 26.7089 21.4731C26.7781 21.3669 27.0555 20.8723 27.0924 20.7892C27.3559 20.193 27.5223 19.6616 27.6008 19.1301C27.6285 18.8759 27.6516 18.4091 27.6331 18.2982ZM16.0795 23.9364C15.9917 23.9872 15.9316 24.0103 15.9177 24.0011C15.9039 23.9964 15.8392 23.941 15.7698 23.8901L15.6451 23.7885L15.5156 23.9272C15.2337 24.2322 15.2245 24.246 15.1413 24.2506C15.0119 24.2645 14.9842 24.2414 14.8271 24.0057C14.7439 23.8855 14.6792 23.7839 14.6792 23.7839C14.6792 23.7839 14.6191 23.7747 14.5498 23.77L14.4204 23.7561L14.3603 23.881L14.3003 24.0057L14.1939 23.9734C14.1107 23.9456 14.0275 23.9133 13.949 23.8763L13.8103 23.807V23.5435L15.0397 23.5482L16.2689 23.5528L16.2735 23.6776C16.2782 23.8255 16.2828 23.8209 16.0795 23.9364ZM18.3902 23.1045C18.3209 23.368 18.2655 23.5806 18.2655 23.5897C18.2146 23.5944 18.1684 23.599 18.1176 23.5944H17.9697L17.771 24.0797C17.66 24.343 17.5584 24.588 17.5445 24.625L17.5168 24.6897L17.4198 24.5326L17.3226 24.3755V23.0953L17.2857 23.1045C17.2071 23.123 16.6479 23.1969 16.403 23.2201C15.3909 23.3218 14.3741 23.2986 13.3667 23.1554C13.2049 23.1322 13.0663 23.1138 13.0616 23.1184C13.057 23.123 13.0616 23.4188 13.0709 23.7839L13.0848 24.4401L13.0062 24.5603C12.9646 24.625 12.923 24.6805 12.923 24.6851C12.9091 24.6989 12.8629 24.625 12.7566 24.4124C12.6411 24.1905 12.5579 23.9549 12.4978 23.7099L12.4655 23.5759L12.3222 23.5851L12.179 23.599L12.142 23.4281C12.1235 23.3356 12.1004 23.1923 12.0912 23.1138L12.0773 22.9659L11.9571 22.8596C11.8878 22.7995 11.8185 22.7394 11.8046 22.7302C11.7815 22.7117 11.7723 22.6794 11.7723 22.6516V22.5961L12.3499 22.6008L12.9276 22.6054L12.9462 22.6655L12.9646 22.7256L13.1633 22.7348C13.2743 22.7394 13.6255 22.7487 13.9398 22.7579L14.5174 22.7718L14.6653 22.5407L14.8178 22.3096H15.0119L15.0073 21.829L15.0027 21.3484L14.7485 21.2374C13.9305 20.8769 13.4499 20.4657 13.2696 19.9665C13.2327 19.8649 13.2327 19.8279 13.2234 19.3657C13.2188 18.9083 13.2188 18.8666 13.2511 18.7649C13.3158 18.5339 13.4961 18.3537 13.7272 18.2936C13.8057 18.2704 14.0137 18.2704 15.1044 18.2704L16.3891 18.2751L16.5324 18.3444C16.7034 18.4276 16.7819 18.4877 16.879 18.617C16.9899 18.7649 17.0222 18.8805 17.0222 19.1624C17.0222 19.5644 16.9945 19.9111 16.953 20.0498C16.8929 20.2392 16.8004 20.4194 16.6849 20.5812C16.4538 20.8769 16.0333 21.1727 15.6497 21.3068L15.5388 21.3484L15.5434 21.8336L15.548 22.3189L15.6497 22.3281L15.7514 22.3373L15.89 22.5453L16.024 22.7533H16.6433C16.9853 22.7533 17.2857 22.7579 17.3134 22.7626C17.3597 22.7718 17.3689 22.7672 17.4151 22.6886L17.4706 22.6054H18.002C18.4133 22.6054 18.5334 22.61 18.5334 22.6239C18.5197 22.6193 18.4596 22.8457 18.3902 23.1045Z" fill="var(--fill-0, white)"/>
<path id="Vector_8" d="M27.5962 17.8267C27.5869 17.6187 27.5685 17.3276 27.5546 17.1843C27.3559 15.0862 26.8198 13.3717 25.8031 11.5554C25.7615 11.486 25.7245 11.4168 25.7014 11.3613C25.6922 11.3474 25.6875 11.3335 25.6829 11.3244C25.8261 10.8945 26.4131 9.09678 26.8798 7.04022C27.513 4.24886 27.9151 0.986105 26.6857 0.00635067C26.6857 0.00635067 24.5599 -0.15078 21.7131 2.64058C20.9413 3.41237 20.2342 4.24886 19.6057 5.1408L19.407 5.0761C18.2609 4.70176 17.0731 4.47069 15.8761 4.39212C15.5156 4.3644 14.1708 4.3644 13.7318 4.39212C12.4054 4.47994 11.3887 4.67866 10.2334 5.08072C10.1871 5.09921 10.1455 5.11308 10.1039 5.12694C9.45231 4.23961 8.72674 3.40775 7.92723 2.64521C4.96487 -0.160022 2.76043 0.00172891 2.76043 0.00172891C1.45717 1.01383 1.90084 4.42448 2.57556 7.30827C3.01923 9.21694 3.56457 10.8945 3.7679 11.4999C3.75404 11.5322 3.73556 11.5693 3.71707 11.6016C2.64027 13.783 2.05796 15.8857 1.91932 18.1225C3.12552 17.9469 6.44836 17.7482 8.93933 20.4286C8.93933 20.4286 10.5846 16.0845 15.0212 16.0845C19.4578 16.0845 20.4052 20.4286 20.4052 20.4286C23.3445 18.0024 26.5102 18.0809 27.6193 18.1965C27.6147 18.1041 27.6054 17.9654 27.5962 17.8267ZM4.64136 9.75767C4.64136 9.75767 2.91293 5.43657 3.35659 2.96871C3.43053 2.55278 3.56919 2.18769 3.7864 1.9104C3.7864 1.9104 5.7459 2.1045 8.90698 5.61681C8.90698 5.61681 8.30619 5.90796 7.50205 6.52724C7.50205 6.52724 7.49743 6.53186 7.49281 6.53186C6.61935 7.20198 5.50096 8.26492 4.64136 9.75767ZM11.9756 16.1769C11.9479 16.2323 11.8092 16.2924 11.6521 16.3155C11.495 16.3386 11.0144 16.3247 10.7417 16.2924C9.76199 16.163 8.72213 15.8626 7.9642 15.4929C7.53903 15.2849 7.23401 15.077 7.00756 14.8505L6.87816 14.7165L6.86429 14.5409C6.84118 14.2359 6.84581 13.7552 6.88278 13.5843C6.90588 13.4409 6.95672 13.3023 7.02604 13.1776C7.06302 13.1314 7.06302 13.1314 7.22939 13.1314C7.43273 13.1314 7.60372 13.1637 7.88101 13.2515C8.44945 13.4271 9.29519 13.8522 10.3258 14.4715C11.1761 14.9799 11.495 15.2295 11.74 15.5714C11.9063 15.7841 12.0172 16.0845 11.9756 16.1769ZM22.8638 14.6472C22.85 14.7211 22.6328 14.943 22.4155 15.1047C21.7778 15.5714 20.6363 16.0058 19.4763 16.2138C18.8154 16.334 18.1545 16.3525 17.9558 16.2554C17.8264 16.1908 17.8079 16.1399 17.8542 15.9735C17.9512 15.6269 18.2655 15.248 18.7553 14.8921C19.0049 14.7118 20.017 14.0972 20.4884 13.8385C21.2648 13.4132 21.8934 13.159 22.3185 13.0989C22.4525 13.0805 22.6142 13.0759 22.6651 13.0989C22.7483 13.1314 22.8407 13.3763 22.8777 13.672C22.8962 13.8292 22.8869 14.5224 22.8638 14.6472ZM22.0967 6.52724L22.0874 6.52262C21.311 5.90334 20.7287 5.61219 20.7287 5.61219C23.7835 2.09988 25.6736 1.90578 25.6736 1.90578C25.8816 2.18769 26.0157 2.54816 26.0896 2.96409C26.5194 5.43195 24.8511 9.75767 24.8511 9.75767C24.1532 8.51448 23.215 7.41457 22.0967 6.52724Z" fill="var(--fill-0, #FFA409)"/>
<path id="Vector_9" d="M26.0942 2.96402C25.7337 2.91781 24.0284 2.90857 22.0966 6.52718L22.0874 6.52255C21.3109 5.90328 20.7287 5.61212 20.7287 5.61212C23.7834 2.09981 25.6736 1.9057 25.6736 1.9057C25.8862 2.18761 26.0202 2.54809 26.0942 2.96402Z" fill="var(--fill-0, #FF9300)"/>
<path id="Vector_10" d="M24.8557 9.75768C24.1532 8.50984 23.2196 7.41455 22.0966 6.52722C24.0284 2.90861 25.7291 2.91786 26.0942 2.96407C26.5239 5.43656 24.8557 9.75768 24.8557 9.75768Z" fill="var(--fill-0, #FF8300)"/>
<path id="Vector_11" d="M26.1635 2.97791C26.1404 2.97329 26.1173 2.96867 26.0942 2.96405L26.1635 2.97791Z" fill="var(--fill-0, #FF8300)"/>
<path id="Vector_12" d="M8.90704 5.61212C8.90704 5.61212 8.30625 5.90328 7.50211 6.52255C7.50211 6.52255 7.49749 6.52718 7.49287 6.52718C5.49177 2.90395 3.731 2.91781 3.35203 2.96402C3.42597 2.54809 3.56463 2.18299 3.78184 1.9057C3.78646 1.9057 5.74595 2.09981 8.90704 5.61212Z" fill="var(--fill-0, #FF9300)"/>
<path id="Vector_13" d="M7.4975 6.52722C6.61942 7.20196 5.50103 8.26028 4.64143 9.75768C4.64143 9.75768 2.913 5.43656 3.35667 2.96407C3.731 2.91786 5.4964 2.90861 7.4975 6.52722Z" fill="var(--fill-0, #FF8300)"/>
<path id="Vector_14" d="M3.35664 2.96405C3.33353 2.96867 3.3058 2.97329 3.28269 2.97791L3.35664 2.96405Z" fill="var(--fill-0, #FF8300)"/>
<path id="Vector_15" d="M20.1788 12.1561C20.1788 12.1561 18.6998 12.2485 18.8847 11.0932C19.0696 9.93781 20.225 9.79918 20.5484 9.84539C20.8719 9.8916 22.1659 10.3538 21.9349 11.3242C21.7038 12.2947 21.3803 12.1099 21.1954 12.1561C21.0106 12.2023 20.1788 12.1561 20.1788 12.1561Z" fill="var(--fill-0, white)"/>
<path id="Vector_16" d="M9.27206 12.1561C9.27206 12.1561 7.7932 12.2485 7.97805 11.0932C8.16291 9.93781 9.31827 9.79918 9.64183 9.84539C9.96529 9.8916 11.2593 10.3538 11.0282 11.3242C10.7971 12.2947 10.4737 12.1099 10.2887 12.1561C10.1039 12.2023 9.27206 12.1561 9.27206 12.1561Z" fill="var(--fill-0, white)"/>
</g>
</svg>
