<svg preserveAspectRatio="none" width="100%" height="100%" overflow="visible" style="display: block;" viewBox="0 0 30 28" fill="none" xmlns="http://www.w3.org/2000/svg">
<g id="Group">
<path id="Combined Shape" d="M14.2842 0C17.377 0 20.1104 0.570008 22.4844 1.70898C24.8582 2.84796 26.7037 4.45109 28.0195 6.51953C29.3354 8.58813 29.9932 10.9977 29.9932 13.7471C29.9931 16.4963 29.3353 18.9051 28.0195 20.9736C26.7037 23.0422 24.8584 24.6461 22.4844 25.7852C20.1106 26.9241 19.3303 27.4941 14.2842 27.4941H5.41309V15.7109H0V11.7832H5.41309V0H14.2842ZM12.0059 11.7832H18.3135V15.7109H12.0059V22.2705H13.959C16.8076 22.2705 19.0797 21.5043 20.7754 19.9727C22.4711 18.4409 23.3193 16.3655 23.3193 13.7471C23.3193 11.1286 22.4711 9.05329 20.7754 7.52148C19.0797 5.98976 16.8076 5.22365 13.959 5.22363H12.0059V11.7832Z" fill="var(--fill-0, white)"/>
</g>
</svg>
