<svg preserveAspectRatio="none" width="100%" height="100%" overflow="visible" style="display: block;" viewBox="0 0 28 21" fill="none" xmlns="http://www.w3.org/2000/svg">
<g id="Group">
<path id="Shape" fill-rule="evenodd" clip-rule="evenodd" d="M16.6039 0.587751L7.26423 20.7646H6.91186C6.04449 20.7646 5.21584 20.5983 4.45302 20.3045L13.8508 0C14.8305 0.00386706 15.7598 0.212673 16.6039 0.587751ZM4.02708 20.1266C1.65343 19.0323 0 16.6349 0 13.8431C0 10.0188 3.09388 6.92154 6.91186 6.92154C6.91186 3.26356 9.7463 0.278408 13.3319 0.0232008L4.02708 20.1266ZM17.8663 20.7646H15.45L21.8159 7.01048C22.5632 7.13035 23.268 7.36235 23.9146 7.69876L17.8663 20.7646ZM11.7134 20.7646H14.331L20.7394 6.92154C20.7394 5.62617 20.3793 4.41973 19.7598 3.38343L11.7134 20.7646ZM27.2254 11.4727C27.4964 12.2152 27.6513 13.0117 27.6513 13.8469C27.6513 16.8244 25.7655 19.361 23.1208 20.3354L27.2254 11.4727ZM21.4132 20.7298L26.4238 9.91056C26.0134 9.31121 25.5061 8.7892 24.933 8.34838L19.1867 20.7646H20.7394C20.964 20.7646 21.1925 20.753 21.4132 20.7298ZM7.97671 20.7646H10.7995L19.2138 2.58688C18.6562 1.89472 17.967 1.31084 17.1848 0.873893L7.97671 20.7646Z" fill="var(--fill-0, #0072FF)"/>
</g>
</svg>
