<svg preserveAspectRatio="none" width="100%" height="100%" overflow="visible" style="display: block;" viewBox="0 0 32 16" fill="none" xmlns="http://www.w3.org/2000/svg">
<g id="Group">
<path id="Path" fill-rule="evenodd" clip-rule="evenodd" d="M18.2221 6.61922C31.8452 9.08176 13.3108 22.9171 9.53674e-07 10.3921C15.699 20.4365 23.7846 10.9976 18.1044 6.87526C18.0385 6.82707 18.0244 6.7367 18.0746 6.67344C18.1092 6.62976 18.1656 6.60868 18.2221 6.61922Z" fill="var(--fill-0, #0082C6)"/>
<path id="Path_2" fill-rule="evenodd" clip-rule="evenodd" d="M10.6402 1.10977C-1.14702 4.87963 12.3568 13.7734 13.5289 9.28057C13.5493 9.20375 13.5022 9.12393 13.4206 9.10435C13.394 9.09682 13.3641 9.09832 13.3375 9.10585C11.6036 9.66915 2.04926 6.99877 10.6402 1.10977Z" fill="var(--fill-0, #0082C6)"/>
<path id="Path_3" fill-rule="evenodd" clip-rule="evenodd" d="M31.1359 3.375C20.9304 -3.90266 1.77938 2.0993 11.6585 7.23674C11.7323 7.27439 11.8233 7.24728 11.8625 7.17649C11.8845 7.13733 11.886 7.08914 11.8672 7.04847C7.84871 -1.43862 28.2566 1.1429 31.1359 3.375Z" fill="var(--fill-0, #0082C6)"/>
<path id="Path_4" fill-rule="evenodd" clip-rule="evenodd" d="M22.6674 13.9496C28.062 11.4961 23.6748 3.10239 16.5385 4.72299C16.4569 4.73956 16.3768 4.68986 16.3596 4.61305C16.347 4.56033 16.3674 4.50611 16.4114 4.47147C21.9645 0.297962 32.3865 10.0382 22.6674 13.9496Z" fill="var(--fill-0, #0082C6)"/>
</g>
</svg>
