<svg preserveAspectRatio="none" width="100%" height="100%" overflow="visible" style="display: block;" viewBox="0 0 45 45" fill="none" xmlns="http://www.w3.org/2000/svg">
<g id="Group">
<path id="Vector" d="M44.9915 0H0V44.9915H44.9915V0Z" fill="url(#paint0_linear_4891_1139)"/>
<path id="Vector_2" d="M33.181 15.6701C32.9941 15.8418 32.7505 15.9386 32.4967 15.9419H8.46377C7.61081 15.9419 7.18151 14.9671 7.77015 14.3953L11.7182 10.5898C11.9021 10.4135 12.1458 10.3131 12.4005 10.3086H36.5272C37.3895 10.3086 37.8113 11.2909 37.2115 11.8645L33.181 15.6701ZM33.181 34.4259C32.9935 34.5946 32.7498 34.6884 32.4967 34.6884H8.46377C7.61081 34.6884 7.18151 33.721 7.77015 33.1511L11.7182 29.3344C11.9025 29.1599 12.1467 29.0627 12.4005 29.0625H36.5272C37.3895 29.0625 37.8113 30.0374 37.2115 30.6091L33.181 34.4259ZM33.181 19.9536C32.9927 19.7853 32.7492 19.6919 32.4967 19.6912H8.46377C7.61081 19.6912 7.18151 20.6566 7.77015 21.2284L11.7182 25.0433C11.9056 25.2139 12.1493 25.3114 12.4005 25.3133H36.5272C37.3895 25.3133 37.8113 24.3384 37.2115 23.7685L33.181 19.9536Z" fill="var(--fill-0, white)"/>
</g>
<defs>
<linearGradient id="paint0_linear_4891_1139" x1="7.50045" y1="94.2159" x2="38.2578" y2="93.9347" gradientUnits="userSpaceOnUse">
<stop stop-color="#599DB0"/>
<stop offset="1" stop-color="#47F8C3"/>
</linearGradient>
</defs>
</svg>
