<svg preserveAspectRatio="none" width="100%" height="100%" overflow="visible" style="display: block;" viewBox="0 0 30 27" fill="none" xmlns="http://www.w3.org/2000/svg">
<g id="Group">
<path id="Vector" d="M25.7601 3.43447L22.1486 5.33738L4.70914 14.5239C4.65017 14.0587 4.62049 13.5901 4.62031 13.1209C4.62269 11.2491 5.09789 9.41042 5.99882 7.78697C6.89975 6.16352 8.19516 4.81165 9.75672 3.86527C11.3183 2.91889 13.0918 2.41084 14.9017 2.39144C16.7115 2.37205 18.4949 2.84198 20.0751 3.75468L22.1422 2.66543L22.4506 2.5027C20.5569 1.08127 18.3202 0.228996 15.9874 0.0400599C13.6547 -0.148876 11.3169 0.332887 9.23239 1.4321C7.14787 2.53132 5.39781 4.20519 4.17563 6.2687C2.95345 8.33222 2.30674 10.705 2.30698 13.1249C2.30698 13.4591 2.31925 13.792 2.34378 14.1236C2.37814 14.5932 2.27744 15.0627 2.05435 15.4733C1.83127 15.8838 1.49576 16.2169 1.09004 16.4307L-3.33786e-06 17.0055V19.6866L3.20922 17.995L4.2485 17.4465L5.27256 16.9071L23.6574 7.21929L25.7233 6.13135L29.9933 3.88067V1.20084L25.7601 3.43447ZM29.9933 6.56312L6.31692 19.0305L4.25104 20.121L-3.33786e-06 22.3612V25.0397L4.22185 22.8153L7.83334 20.9124L25.2905 11.7128C25.3495 12.181 25.3792 12.6527 25.3794 13.1249C25.3782 14.9989 24.9032 16.84 24.0014 18.4654C23.0996 20.0908 21.8024 21.444 20.2385 22.3907C18.6747 23.3374 16.8987 23.8446 15.0867 23.862C13.2748 23.8794 11.4899 23.4063 9.90937 22.4898L9.78247 22.5594L7.54147 23.7405C9.43468 25.162 11.671 26.0145 14.0034 26.2039C16.3357 26.3933 18.6733 25.9122 20.7578 24.8137C22.8423 23.7152 24.5927 22.0422 25.8154 19.9794C27.0381 17.9166 27.6856 15.5444 27.6863 13.1249C27.6863 12.7876 27.6737 12.4503 27.6495 12.117C27.6152 11.6476 27.7158 11.1782 27.9387 10.7677C28.1615 10.3572 28.4966 10.024 28.902 9.80988L29.9933 9.23507V6.56312Z" fill="var(--fill-0, white)"/>
</g>
</svg>
