<svg preserveAspectRatio="none" width="100%" height="100%" overflow="visible" style="display: block;" viewBox="0 0 24 30" fill="none" xmlns="http://www.w3.org/2000/svg">
<g id="Group">
<path id="Vector" d="M11.9687 0.0723908C12.0629 0.149084 12.1414 0.247586 12.216 0.342764C12.2406 0.374077 12.2657 0.404913 12.291 0.435697C12.2998 0.446438 12.3086 0.457179 12.3177 0.468246C12.3265 0.479017 12.3354 0.489789 12.3445 0.500887C12.362 0.52237 12.3796 0.543856 12.3972 0.565344C12.4059 0.57598 12.4146 0.586615 12.4236 0.597573C13.3465 1.72558 13.3465 1.72558 13.373 1.75804C13.39 1.77877 13.407 1.79949 13.4239 1.82021C13.4831 1.89237 13.5419 1.96473 13.6007 2.03715C13.6545 2.10336 13.7085 2.1694 13.7625 2.23538C13.7801 2.25686 13.7977 2.27835 13.8153 2.29984C13.824 2.31047 13.8327 2.32111 13.8416 2.33207C15.582 4.45916 15.582 4.45916 17.0061 6.19975C17.0231 6.22047 17.04 6.2412 17.057 6.26191C17.1161 6.33408 17.175 6.40644 17.2338 6.47886C17.2876 6.54507 17.3415 6.61111 17.3956 6.67709C17.4132 6.69857 17.4307 6.72006 17.4483 6.74155C17.457 6.75218 17.4657 6.76282 17.4747 6.77378C19.215 8.90087 19.215 8.90087 20.639 10.6413C20.6564 10.6625 20.6738 10.6837 20.6913 10.7049C20.7537 10.7806 20.814 10.8577 20.8735 10.9357C20.8963 10.9656 20.9193 10.9953 20.9422 11.025C20.9519 11.0377 20.9617 11.0504 20.9714 11.063C20.9896 11.0868 21.0079 11.1105 21.0262 11.1342C21.1246 11.2613 21.2197 11.3897 21.3092 11.5232C21.3353 11.5621 21.3626 11.6 21.3904 11.6378C21.4409 11.7069 21.4881 11.778 21.5348 11.8498C21.5391 11.8564 21.5434 11.863 21.5478 11.8698C21.7531 12.1852 21.9422 12.5091 22.1186 12.8416C22.1252 12.854 22.1318 12.8665 22.1387 12.8793C22.6327 13.8101 22.9877 14.8199 23.4046 17.1817C23.4075 17.2112 23.4106 17.2407 23.4136 17.2701C23.4806 17.9315 23.4787 18.6319 23.4107 19.2931C23.4075 19.3244 23.4045 19.3558 23.4014 19.3872C23.2993 20.4351 23.065 21.47 22.2226 23.4971C22.2074 23.5281 22.1923 23.5592 22.1772 23.5902C22.1067 23.7341 22.0299 23.8737 21.95 24.0125C21.9315 24.0447 21.9133 24.077 21.8951 24.1093C21.8231 24.237 21.7477 24.3618 21.6685 24.485C21.6486 24.5161 21.629 24.5473 21.6094 24.5785C21.5304 24.7041 21.4488 24.8271 21.3621 24.9476C21.3451 24.9713 21.3283 24.9952 21.3117 25.0192C21.0657 25.3728 20.7951 25.7151 20.5039 26.0326C20.4814 26.0573 20.4594 26.0822 20.4375 26.1074C20.3628 26.1932 20.2862 26.2776 20.2049 26.3572C20.1851 26.3774 20.1667 26.3984 20.1484 26.4199C20.0987 26.4769 20.0457 26.5302 19.9922 26.5835C19.978 26.5977 19.978 26.5977 19.9635 26.6123C19.9127 26.663 19.861 26.7117 19.8066 26.7584C19.781 26.7808 19.7573 26.8045 19.7336 26.8289C19.6948 26.8681 19.655 26.905 19.6131 26.9409C19.5873 26.9635 19.5621 26.9866 19.537 27.0099C19.4769 27.0657 19.4155 27.1188 19.3516 27.1702C19.313 27.2017 19.2754 27.2343 19.2378 27.2669C19.1635 27.3309 19.0872 27.3918 19.0097 27.4518C18.9899 27.4672 18.9702 27.4828 18.9505 27.4985C18.8368 27.589 18.7203 27.6753 18.6027 27.7606C18.5951 27.7661 18.5874 27.7717 18.5796 27.7774C18.3185 27.9668 18.0475 28.1462 17.7706 28.3114C17.7543 28.3211 17.7543 28.3211 17.7376 28.3311C17.5636 28.4347 17.387 28.5329 17.2081 28.6278C17.196 28.6343 17.1838 28.6407 17.1714 28.6474C16.6662 28.916 16.1421 29.1411 15.6025 29.331C15.5938 29.334 15.5851 29.3371 15.5761 29.3403C14.6841 29.6545 13.7471 29.8535 12.8054 29.9379C12.7782 29.9404 12.7509 29.943 12.7237 29.9457C12.0596 30.0097 11.3624 30.0095 10.6985 29.9434C10.667 29.9402 10.6356 29.9373 10.6041 29.9343C9.75062 29.8529 8.90481 29.6814 8.09026 29.413C8.08087 29.4099 8.07147 29.4068 8.06179 29.4037C7.81027 29.3209 7.56172 29.2325 7.31677 29.1317C7.29768 29.1239 7.29768 29.1239 7.27819 29.1159C7.08549 29.0365 6.89586 28.9511 6.70736 28.8622C6.69511 28.8564 6.68285 28.8507 6.67023 28.8448C6.10127 28.5769 5.55974 28.2596 5.04318 27.9012C5.03407 27.8949 5.02496 27.8886 5.01557 27.882C4.89377 27.7974 4.77452 27.7097 4.65644 27.6199C4.64803 27.6136 4.63962 27.6072 4.63095 27.6006C4.52843 27.523 4.42726 27.4442 4.32829 27.3621C4.30754 27.3452 4.28679 27.3284 4.26603 27.3116C4.15633 27.2218 4.04903 27.1292 3.94406 27.0339C3.92075 27.0129 3.89718 26.9922 3.87342 26.9717C3.78287 26.8927 3.69406 26.8114 3.61003 26.7255C3.58995 26.7058 3.56915 26.6876 3.54775 26.6694C3.49073 26.6197 3.43743 26.5667 3.38413 26.5132C3.37462 26.5037 3.36511 26.4942 3.35531 26.4845C3.30462 26.4337 3.25595 26.382 3.20917 26.3276C3.18684 26.302 3.16311 26.2782 3.13875 26.2546C3.09925 26.2156 3.06205 26.1755 3.02591 26.1333C3.0001 26.1036 2.97349 26.0748 2.94685 26.0458C2.89824 25.9926 2.85242 25.9377 2.80717 25.8816C2.78229 25.8515 2.75648 25.8226 2.73004 25.7939C2.67072 25.7287 2.61705 25.6596 2.56315 25.5899C2.54277 25.5637 2.52214 25.5376 2.5015 25.5116C2.36693 25.3413 2.23546 25.1695 2.11426 24.9894C2.08509 24.9461 2.05509 24.9035 2.02468 24.8611C1.95057 24.7576 1.88186 24.6514 1.81485 24.5432C1.79679 24.5141 1.77858 24.4851 1.76033 24.4561C1.21578 23.5882 0.791013 22.6478 0.0469911 19.4104C0.0456647 19.3971 0.0456647 19.3971 0.0443115 19.3835C0.0377302 19.3163 0.0322955 19.2491 0.0272143 19.1818C0.0262049 19.1689 0.025195 19.1559 0.024155 19.1425C0.0031619 18.8654 -0.000483892 18.5889 4.77843e-05 18.3111C0.000113894 18.276 0.000146541 18.2409 0.000177254 18.2058C0.000587337 17.8836 0.00277734 17.5626 0.0359661 17.2418C0.0390952 17.2114 0.0420711 17.181 0.0450283 17.1505C0.145095 16.1314 0.372398 15.1295 1.47502 12.5668C1.49584 12.5304 1.51599 12.4937 1.53609 12.4569C1.64851 12.2513 1.7734 12.0527 1.90234 11.8571C1.90704 11.85 1.91174 11.8428 1.91659 11.8354C2.08848 11.5733 2.27213 11.319 2.46488 11.0719C2.47223 11.0624 2.47223 11.0624 2.47972 11.0528C2.56422 10.9439 2.6514 10.8373 2.73931 10.7311C2.78087 10.6808 2.82208 10.6302 2.86335 10.5797C2.88092 10.5582 2.8985 10.5367 2.91608 10.5152C2.92478 10.5046 2.93349 10.494 2.94245 10.483C4.07632 9.09718 4.07632 9.09718 4.10292 9.06467C4.11974 9.04411 4.13656 9.02354 4.15337 9.00296C4.21475 8.92785 4.27639 8.85295 4.33808 8.77808C4.39357 8.71073 4.44887 8.64324 4.50408 8.57566C4.52166 8.55417 4.53924 8.53268 4.55682 8.5112C4.56552 8.50056 4.57422 8.48993 4.58319 8.47897C5.92801 6.8353 5.92801 6.8353 5.95461 6.8028C5.97143 6.78223 5.98825 6.76166 6.00505 6.74109C6.06644 6.66597 6.12808 6.59107 6.18977 6.51621C6.24525 6.44886 6.30056 6.38136 6.35577 6.31378C6.37335 6.2923 6.39093 6.27081 6.40851 6.24933C6.41721 6.23869 6.42591 6.22805 6.43488 6.2171C7.67422 4.70234 7.67422 4.70234 7.70082 4.66984C7.71764 4.64928 7.73446 4.62871 7.75127 4.60813C7.81265 4.53302 7.87429 4.45812 7.93598 4.38325C7.99147 4.3159 8.04678 4.24841 8.10198 4.18083C8.11956 4.15934 8.13714 4.13785 8.15472 4.11637C8.16342 4.10573 8.17213 4.0951 8.18109 4.08414C9.42043 2.56939 9.42043 2.56939 9.44703 2.53688C9.46385 2.51632 9.48067 2.49575 9.49748 2.47517C9.55886 2.40006 9.62051 2.32516 9.68219 2.25029C9.73768 2.18294 9.79299 2.11545 9.8482 2.04787C9.86577 2.02638 9.88335 2.00489 9.90093 1.98341C9.90964 1.97277 9.91834 1.96214 9.9273 1.95118C11.1666 0.436429 11.1666 0.436429 11.1931 0.404155C11.2105 0.382832 11.2279 0.361499 11.2453 0.340155C11.2628 0.318821 11.2802 0.297534 11.2978 0.276293C11.3166 0.253161 11.3352 0.229759 11.3534 0.206158C11.5003 0.0184706 11.7541 -0.0745903 11.9687 0.0723908ZM11.36 4.35662C11.3504 4.36385 11.3408 4.37109 11.3309 4.37855C11.3002 4.40452 11.2766 4.43141 11.2516 4.46283C11.2425 4.4742 11.2334 4.48558 11.224 4.4973C11.2101 4.51468 11.2101 4.51468 11.1959 4.53241C11.1784 4.55392 11.1608 4.57541 11.1432 4.59687C11.1175 4.62827 11.0918 4.65967 11.0662 4.69108C11.0048 4.7662 10.9431 4.8411 10.8814 4.91596C10.826 4.98332 10.7707 5.05081 10.7154 5.11839C10.6979 5.13988 10.6803 5.16136 10.6627 5.18285C10.6497 5.1988 10.6497 5.1988 10.6363 5.21508C10.3463 5.56959 10.3463 5.56959 10.3197 5.60209C10.3029 5.62266 10.286 5.64323 10.2692 5.66381C10.2296 5.71236 10.1898 5.76086 10.1499 5.8092C10.1078 5.86012 10.0659 5.91112 10.024 5.9622C10.0178 5.9697 10.0117 5.97719 10.0053 5.98492C9.74571 6.3021 9.53068 6.64772 9.33774 7.00881C9.32166 7.03882 9.30539 7.06873 9.28909 7.09863C8.97793 7.67456 8.75887 8.30383 8.60592 8.93896C8.60294 8.95133 8.60294 8.95133 8.5999 8.96394C8.55098 9.16792 8.5148 9.37299 8.48507 9.58061C8.48362 9.59068 8.48217 9.60076 8.48068 9.61114C8.43784 9.91284 8.41567 10.2135 8.41548 10.5182C8.41547 10.5299 8.41547 10.5416 8.41546 10.5536C8.41636 11.4033 8.60999 12.2108 8.99267 12.9705C8.99803 12.9812 9.0034 12.992 9.00892 13.003C9.15067 13.2857 9.32633 13.5528 9.52005 13.8026C9.52761 13.8123 9.52761 13.8123 9.53533 13.8223C9.63179 13.9465 9.72939 14.0694 9.83533 14.1857C9.85634 14.2088 9.87689 14.2323 9.89727 14.256C9.99918 14.3725 10.1066 14.484 10.2159 14.5936C10.2245 14.6023 10.2332 14.611 10.2421 14.62C10.2894 14.6672 10.3378 14.7122 10.3884 14.7559C10.4234 14.7863 10.4569 14.8182 10.4906 14.85C10.5491 14.9048 10.6089 14.9569 10.6714 15.007C10.7003 15.0304 10.7286 15.0543 10.7568 15.0786C10.8445 15.154 10.9357 15.2243 11.0281 15.2939C11.0561 15.315 11.084 15.3362 11.1119 15.3574C11.5427 15.6838 12.0001 15.9739 12.4703 16.2401C12.6172 16.3233 12.7613 16.4109 12.9053 16.499C12.9484 16.5253 12.9918 16.5512 13.0353 16.5771C13.221 16.6876 13.4034 16.8036 13.5825 16.9247C13.6103 16.9435 13.6381 16.9622 13.6659 16.9809C13.8206 17.085 13.9742 17.1901 14.1245 17.3004C14.1508 17.3196 14.1772 17.3385 14.2036 17.3575C14.3082 17.4325 14.411 17.509 14.5126 17.588C14.531 17.602 14.5494 17.6161 14.5678 17.6301C14.6495 17.6924 14.7293 17.757 14.8089 17.822C14.8434 17.8503 14.8782 17.8782 14.9132 17.9059C14.9772 17.9569 15.0395 18.0098 15.1017 18.0629C15.1223 18.0805 15.143 18.0981 15.1637 18.1156C15.2391 18.1799 15.3135 18.2451 15.3865 18.3121C15.4104 18.3338 15.4345 18.3551 15.4589 18.3761C15.5751 18.4773 15.6863 18.584 15.794 18.6941C15.821 18.7215 15.847 18.747 15.8774 18.7705C15.9113 18.7985 15.9379 18.8297 15.9664 18.863C16.007 18.909 16.051 18.9514 16.0947 18.9943C16.1533 19.0519 16.2102 19.1099 16.2637 19.1722C16.2901 19.2027 16.3177 19.2321 16.3452 19.2617C16.395 19.3156 16.442 19.3711 16.4881 19.4283C16.5217 19.4692 16.5564 19.509 16.5913 19.5488C16.6579 19.625 16.7212 19.7033 16.7829 19.7835C16.7972 19.8021 16.8117 19.8207 16.8262 19.8393C16.8506 19.8708 16.8749 19.9024 16.899 19.9342C16.91 19.9486 16.921 19.9631 16.932 19.9775C17.1343 20.2425 17.3188 20.5244 17.4893 20.8109C17.4993 20.8275 17.4993 20.8275 17.5095 20.8445C18.0203 21.7018 18.3583 22.6272 18.5614 23.6744C18.5733 23.7362 18.5868 23.7971 18.6027 23.8579C18.651 23.8114 18.6942 23.7618 18.7367 23.71C18.7439 23.7013 18.751 23.6927 18.7583 23.6837C18.8392 23.5844 18.9147 23.4814 18.9894 23.3774C18.9955 23.3691 19.0015 23.3608 19.0077 23.3522C19.2236 23.0519 19.4203 22.7404 19.5989 22.4164C19.6058 22.404 19.6127 22.3915 19.6198 22.3786C19.8717 21.9224 20.0762 21.445 20.2434 20.9515C20.2478 20.9387 20.2522 20.926 20.2567 20.9128C20.5089 20.1718 20.6547 19.3886 20.7005 18.6076C20.7015 18.5923 20.7015 18.5923 20.7025 18.5768C20.7635 17.623 20.6481 16.6539 19.7981 14.1424C19.7924 14.1306 19.7867 14.1188 19.7808 14.1066C19.6998 13.9387 19.6106 13.7761 19.5168 13.6151C19.5103 13.6038 19.5038 13.5925 19.4971 13.5809C19.3227 13.2804 19.1302 12.9887 18.9191 12.7127C18.9089 12.6991 18.8987 12.6856 18.8885 12.672C18.8114 12.5703 18.7305 12.4716 18.6496 12.3728C18.6399 12.3609 18.6302 12.349 18.6201 12.3368C18.5948 12.3058 18.5695 12.2748 18.5441 12.2439C18.5265 12.2224 18.5089 12.2009 18.4914 12.1794C18.4827 12.1688 18.474 12.1581 18.465 12.1472C18.1925 11.8142 17.92 11.4811 17.6476 11.1481C17.6388 11.1374 17.63 11.1266 17.621 11.1156C17.6041 11.095 17.5873 11.0745 17.5705 11.0539C17.5163 10.9875 17.4618 10.9213 17.4073 10.8551C17.3446 10.7791 17.2821 10.7029 17.2198 10.6266C17.2022 10.6051 17.1846 10.5836 17.1671 10.5621C16.7803 10.0894 16.3936 9.61674 16.0068 9.14405C15.998 9.13333 15.9893 9.1226 15.9802 9.11155C15.9634 9.09099 15.9466 9.07042 15.9298 9.04984C15.8755 8.98346 15.8211 8.91723 15.7666 8.85106C15.7039 8.77502 15.6414 8.69885 15.5791 8.62253C15.5615 8.60105 15.5439 8.57956 15.5263 8.55808C15.1396 8.08539 14.7528 7.6127 14.3661 7.14001C14.3573 7.12928 14.3485 7.11856 14.3395 7.10751C14.3227 7.08694 14.3058 7.06637 14.289 7.0458C14.2348 6.97941 14.1803 6.91319 14.1258 6.84702C14.0632 6.77097 14.0007 6.6948 13.9383 6.61849C13.9207 6.597 13.9032 6.57552 13.8856 6.55403C13.4637 6.03837 13.0418 5.52271 12.6199 5.00705C12.6111 4.99633 12.6023 4.9856 12.5933 4.97455C12.5764 4.95398 12.5596 4.93342 12.5428 4.91284C12.4814 4.83773 12.4198 4.76282 12.3581 4.68798C12.3277 4.65113 12.2974 4.61427 12.2673 4.57714C12.2425 4.54643 12.2174 4.51591 12.1921 4.48553C12.1836 4.47531 12.1751 4.46508 12.1664 4.45454C12.0689 4.34133 11.9563 4.25238 11.8031 4.23681C11.6341 4.2257 11.4968 4.25163 11.36 4.35662ZM5.4768 11.5407C5.45654 11.5622 5.43768 11.5838 5.41894 11.6066C5.4132 11.6135 5.40747 11.6204 5.40156 11.6275C5.3566 11.6817 5.31303 11.737 5.26976 11.7925C5.2201 11.8562 5.16886 11.9184 5.11742 11.9807C5.07069 12.0372 5.0242 12.0939 4.97799 12.1508C4.96864 12.1624 4.96864 12.1624 4.95909 12.1741C4.94653 12.1896 4.93396 12.2051 4.9214 12.2206C4.8961 12.2518 4.87078 12.283 4.84544 12.3142C4.83272 12.3298 4.82 12.3455 4.8073 12.3611C4.77586 12.3999 4.74431 12.4386 4.71252 12.477C4.61503 12.5953 4.52345 12.7173 4.43376 12.8416C4.42793 12.8496 4.42209 12.8577 4.41607 12.8659C3.80905 13.7034 3.35977 14.6443 2.74615 17.5645C2.74513 17.5798 2.74513 17.5798 2.7441 17.5953C2.6838 18.5254 2.78943 19.4744 3.46104 21.6312C3.46558 21.6417 3.47012 21.6523 3.47479 21.6631C3.80244 22.4178 4.23511 23.1182 4.75609 23.7544C4.77169 23.7735 4.78718 23.7927 4.80266 23.8119C4.85599 23.878 4.91151 23.9414 4.96897 24.0039C4.9919 24.0289 5.01437 24.0542 5.03659 24.0799C5.14691 24.2063 5.26328 24.326 5.38207 24.4445C5.4088 24.4711 5.43547 24.4979 5.46213 24.5246C5.4794 24.5419 5.49666 24.5591 5.51393 24.5764C5.52176 24.5842 5.52959 24.5921 5.53765 24.6002C5.58322 24.6455 5.63001 24.6888 5.67874 24.7307C5.70906 24.7569 5.73825 24.7843 5.7676 24.8116C5.82106 24.861 5.87589 24.908 5.93259 24.9536C5.96072 24.9763 5.98864 24.9992 6.01645 25.0223C6.11207 25.1018 6.20831 25.1794 6.30889 25.2526C6.31639 25.258 6.32388 25.2635 6.33161 25.2692C6.3941 25.3148 6.45689 25.3599 6.51984 25.4049C6.52935 25.4117 6.53885 25.4185 6.54863 25.4255C6.68844 25.5252 6.83051 25.6199 6.97691 25.7096C6.98792 25.7164 6.99893 25.7232 7.01027 25.7302C7.19479 25.8435 7.38242 25.9497 7.5746 26.0495C7.58483 26.0548 7.58483 26.0548 7.59526 26.0602C8.38111 26.468 9.22394 26.7538 11.1959 27.0457C11.2082 27.0465 11.2205 27.0474 11.2332 27.0483C12.1874 27.1116 13.1613 26.9933 15.5486 26.2042C15.5791 26.1901 15.5791 26.1901 15.6121 26.1788C15.6455 26.1661 15.6695 26.1552 15.6963 26.1315C15.715 26.0814 15.7172 26.0323 15.7197 25.9792C15.7221 25.9542 15.7246 25.9293 15.7271 25.9043C15.7979 24.9789 15.68 24.0376 15.2275 22.8618C15.222 22.8498 15.2166 22.8379 15.211 22.8255C15.0034 22.372 14.7378 21.9531 14.4305 21.5609C14.422 21.55 14.4135 21.5391 14.4047 21.5279C14.3566 21.467 14.3067 21.4078 14.2564 21.3488C14.2211 21.3072 14.1865 21.2651 14.1522 21.2225C14.1172 21.1795 14.0811 21.1396 14.0411 21.1012C14.0208 21.0809 14.0022 21.0598 13.9836 21.0379C13.9351 20.9821 13.8834 20.93 13.8311 20.8778C13.821 20.8678 13.8109 20.8577 13.8006 20.8473C13.7794 20.8261 13.7582 20.805 13.737 20.7838C13.7048 20.7516 13.6726 20.7194 13.6404 20.6871C13.6197 20.6665 13.599 20.6458 13.5784 20.6251C13.5688 20.6156 13.5593 20.6061 13.5495 20.5962C13.4935 20.5404 13.4358 20.4873 13.3758 20.4358C13.3569 20.4188 13.3381 20.4017 13.3194 20.3846C13.2691 20.3391 13.2172 20.2961 13.1645 20.2535C13.1257 20.2216 13.0878 20.1889 13.0498 20.156C12.9763 20.0926 12.9008 20.0322 12.824 19.9728C12.7999 19.954 12.7758 19.9351 12.7517 19.9161C12.6393 19.8278 12.5252 19.7425 12.4087 19.6596C12.3872 19.6443 12.3659 19.629 12.3445 19.6135C12.2292 19.5302 12.1113 19.451 11.9929 19.3723C11.9828 19.3656 11.9727 19.3588 11.9623 19.3519C11.8096 19.2504 11.6566 19.1494 11.5007 19.0529C11.4823 19.0416 11.4823 19.0416 11.4635 19.03C11.2935 18.9251 11.1218 18.8239 10.9481 18.7252C10.7324 18.6027 10.5179 18.4782 10.3093 18.3439C10.2796 18.3249 10.2498 18.3061 10.22 18.2874C10.0662 18.1906 9.91553 18.0899 9.76616 17.9865C9.7561 17.9795 9.74603 17.9725 9.73566 17.9654C9.46347 17.7772 9.19838 17.5798 8.94243 17.37C8.91567 17.3481 8.88863 17.3267 8.86156 17.3053C8.7589 17.2233 8.65935 17.1377 8.56211 17.0494C8.53787 17.0275 8.51339 17.0059 8.48873 16.9844C8.43347 16.9362 8.37898 16.8872 8.32466 16.8379C8.30869 16.8235 8.30869 16.8235 8.29241 16.8088C8.19042 16.7159 8.09245 16.6193 7.99507 16.5216C7.96851 16.495 7.94188 16.4684 7.91525 16.4419C7.89805 16.4246 7.88085 16.4074 7.86366 16.3902C7.85584 16.3824 7.84803 16.3746 7.83997 16.3666C7.79482 16.3212 7.75176 16.2746 7.71001 16.2261C7.68186 16.1936 7.65235 16.1624 7.62295 16.1311C7.57069 16.0749 7.52115 16.0173 7.47311 15.9575C7.44735 15.9258 7.42096 15.895 7.39424 15.8642C7.32837 15.7882 7.26567 15.7104 7.20515 15.6301C7.18547 15.6042 7.16548 15.5786 7.14547 15.553C7.03427 15.4099 6.93207 15.2624 6.83299 15.1107C6.81596 15.0848 6.79871 15.059 6.7812 15.0334C6.64254 14.8306 6.51854 14.6168 6.40265 14.4003C6.39663 14.3891 6.39061 14.3779 6.38441 14.3664C5.93555 13.5282 5.63879 12.6081 5.50024 11.5407C5.49251 11.5407 5.48477 11.5407 5.4768 11.5407Z" fill="var(--fill-0, white)"/>
</g>
</svg>
