<svg preserveAspectRatio="none" width="100%" height="100%" overflow="visible" style="display: block;" viewBox="0 0 30 28" fill="none" xmlns="http://www.w3.org/2000/svg">
<g id="Group">
<g id="Vector">
<path d="M11.8886 11.5033V5.37324H3.57435V1.43051e-06H26.8075V5.44892H18.4933V11.5033H11.8886Z" fill="var(--fill-0, white)"/>
<path fill-rule="evenodd" clip-rule="evenodd" d="M-1.90735e-06 12.1844C-1.90735e-06 10.1411 6.68245 8.47613 14.9967 8.47613C23.3109 8.47613 29.9933 10.1411 29.9933 12.1844C29.9933 14.2278 23.3109 15.8927 14.9967 15.8927C6.68245 15.8927 -1.90735e-06 14.2278 -1.90735e-06 12.1844ZM28.7501 12.1844C28.2061 11.4276 23.6994 9.08154 14.9966 9.08154C6.29392 9.08154 1.78715 11.3519 1.24323 12.1844C1.78715 12.9412 6.29392 14.0764 14.9966 14.0764C23.7771 14.0764 28.2061 12.9412 28.7501 12.1844Z" fill="var(--fill-0, white)"/>
<path d="M18.4933 13.3953V9.15721C17.4055 9.08153 16.2399 9.00585 15.0744 9.00585C13.9865 9.00585 12.9764 9.00585 11.9663 9.08153V13.3196C12.8987 13.3196 13.9865 13.3953 15.0744 13.3953C16.2399 13.4709 17.4055 13.4709 18.4933 13.3953Z" fill="var(--fill-0, white)"/>
<path d="M14.9967 15.8927C13.9088 15.8927 12.8987 15.8927 11.8885 15.817V27.0932H18.4156V15.7413C17.3278 15.817 16.1622 15.8927 14.9967 15.8927Z" fill="var(--fill-0, white)"/>
</g>
</g>
</svg>
