<svg preserveAspectRatio="none" width="100%" height="100%" overflow="visible" style="display: block;" viewBox="0 0 19 26" fill="none" xmlns="http://www.w3.org/2000/svg">
<g id="Group">
<path id="Path" fill-rule="evenodd" clip-rule="evenodd" d="M7.43428 0.22552C8.97308 0.227481 10.5119 0.223559 12.0507 0.227481C11.6921 1.8199 11.353 3.41427 11.008 5.00865C12.886 5.00473 14.7639 5.00865 16.6399 5.00669C16.3163 6.3422 16.0139 7.68555 15.6961 9.02303C13.822 9.01714 11.948 9.02891 10.0739 9.01518C9.52542 11.4979 8.99828 13.9846 8.45563 16.4674C8.34516 17.0537 8.23469 17.7205 8.57385 18.2539C8.87037 18.7305 9.46146 18.8815 9.98473 18.8776C11.4983 18.8854 13.0139 18.8736 14.5294 18.8795C14.198 20.2484 13.9015 21.627 13.5817 22.9978C11.7522 22.988 9.92465 23.0116 8.09515 22.988C6.66295 22.9253 5.07764 22.5782 4.12219 21.4054C3.35279 20.47 3.32372 19.16 3.54853 18.0206C4.19971 15.0201 4.84508 12.0176 5.49625 9.01714C3.83536 9.02303 2.17253 9.02106 0.511638 9.0191C0.815909 7.68163 1.10855 6.3422 1.4167 5.00669C3.07565 5.01061 4.73461 4.99884 6.39162 5.01257C6.74435 3.41819 7.08544 1.82186 7.43428 0.22552Z" fill="var(--fill-0, #2C58A7)"/>
<path id="Path_2" fill-rule="evenodd" clip-rule="evenodd" d="M13.3918 -7.15256e-06C13.634 0.527529 13.8763 1.0531 14.1282 1.57476C13.9654 2.29644 13.8104 3.02009 13.6592 3.74374C13.291 3.74766 12.9228 3.74766 12.5526 3.74962C12.8433 2.5004 13.0817 1.24333 13.3918 -7.15256e-06Z" fill="var(--fill-0, #2C58A7)"/>
<path id="Path_3" fill-rule="evenodd" clip-rule="evenodd" d="M17.9597 4.77724C18.2156 5.31262 18.4675 5.84996 18.7117 6.39123C18.3221 8.05032 17.9248 9.70941 17.5527 11.3724C15.6767 11.3862 13.8027 11.3724 11.9266 11.3803C11.4886 13.4708 11.0158 15.5515 10.5816 17.6421C10.2309 17.6362 9.87814 17.5989 9.53899 17.4989C10.0099 15.0868 10.5603 12.6903 11.0797 10.2879C12.946 10.2977 14.8143 10.2821 16.6806 10.2958C17.1109 8.45823 17.5566 6.62264 17.9597 4.77724Z" fill="var(--fill-0, #2C58A7)"/>
<path id="Path_4" fill-rule="evenodd" clip-rule="evenodd" d="M-1.90735e-06 10.286C1.31398 10.2958 2.62991 10.2899 3.94583 10.2919C3.86443 10.6527 3.78303 11.0155 3.70357 11.3783C2.94193 11.3626 2.17834 11.4136 1.41864 11.3607C0.899244 11.0724 0.47094 10.6468 -1.90735e-06 10.286Z" fill="var(--fill-0, #2C58A7)"/>
<path id="Path_5" fill-rule="evenodd" clip-rule="evenodd" d="M14.574 24.2726C14.9887 22.3938 15.4558 20.5288 15.8337 18.6442C16.0818 19.1815 16.4171 19.6914 16.5643 20.2719C16.2465 21.9761 15.7949 23.6548 15.4384 25.3512C13.2019 25.3492 10.9634 25.3767 8.72501 25.3276C6.74047 25.257 4.63964 24.4765 3.54853 22.7037C4.22103 23.1861 4.92841 23.645 5.73269 23.8705C7.30056 24.3961 8.9692 24.2078 10.5913 24.2529C11.9189 24.302 13.2464 24.2922 14.574 24.2726Z" fill="var(--fill-0, #2C58A7)"/>
</g>
</svg>
