<svg preserveAspectRatio="none" width="100%" height="100%" overflow="visible" style="display: block;" viewBox="0 0 45 45" fill="none" xmlns="http://www.w3.org/2000/svg">
<g id="Group">
<path id="Vector" d="M22.4957 44.9915C34.9197 44.9915 44.9914 34.9198 44.9914 22.4957C44.9914 10.0717 34.9197 -7.04698e-06 22.4957 -7.04698e-06C10.0716 -7.04698e-06 -7.04698e-05 10.0717 -7.04698e-05 22.4957C-7.04698e-05 34.9198 10.0716 44.9915 22.4957 44.9915Z" fill="var(--fill-0, #EF0027)"/>
<path id="Vector_2" d="M30.8357 13.9351L10.5446 10.2008L21.223 37.072L36.1025 18.9432L30.8357 13.9351ZM30.5095 15.5801L33.6139 18.5313L25.1246 20.068L30.5095 15.5801V15.5801ZM23.28 19.7601L14.3323 12.3393L28.9573 15.0304L23.28 19.7601V19.7601ZM22.6431 21.0733L21.1836 33.1366L13.3172 13.3362L22.6431 21.0719V21.0733ZM23.9928 21.713L33.3946 20.0118L22.6107 33.1479L23.9928 21.713Z" fill="var(--fill-0, white)"/>
</g>
</svg>
