<svg preserveAspectRatio="none" width="100%" height="100%" overflow="visible" style="display: block;" viewBox="0 0 27 30" fill="none" xmlns="http://www.w3.org/2000/svg">
<g id="Group">
<path id="Vector" d="M7.90798 3.36527C7.53638 3.3079 7.52073 3.30008 7.69545 3.274C8.03055 3.22185 8.8233 3.29356 9.36963 3.42264C10.6435 3.72645 11.8027 4.50225 13.0413 5.88044L13.3699 6.24553L13.8393 6.17121C15.8212 5.85176 17.8383 6.10601 19.5242 6.88443C19.9884 7.09826 20.7198 7.52463 20.8111 7.63546C20.8411 7.66936 20.8946 7.89493 20.9298 8.13484C21.0549 8.96541 20.9923 9.6017 20.7394 10.0776C20.6012 10.3358 20.5934 10.4166 20.6859 10.6383C20.7299 10.7298 20.7986 10.8072 20.8844 10.8616C20.9701 10.916 21.0694 10.9452 21.171 10.946C21.5908 10.946 22.042 10.268 22.2506 9.32528L22.334 8.95106L22.4983 9.13752C23.4006 10.1598 24.1086 11.5536 24.2299 12.5445L24.2625 12.804L24.1099 12.5693C23.8491 12.1651 23.5884 11.8887 23.252 11.6657C22.647 11.2654 22.0068 11.1298 20.3117 11.0399C18.781 10.959 17.9139 10.8286 17.056 10.5483C15.5943 10.0724 14.8576 9.43741 13.1209 7.15954C12.3503 6.14774 11.8731 5.58838 11.3998 5.13854C10.3215 4.1137 9.26271 3.5765 7.90798 3.36527Z" fill="var(--fill-0, white)"/>
<path id="Vector_2" d="M21.1566 5.62489C21.1958 4.94687 21.287 4.49964 21.4722 4.09153C21.5452 3.92985 21.6143 3.79686 21.6247 3.79686C21.6131 3.88838 21.589 3.97788 21.553 4.06285C21.4187 4.45922 21.3966 5.00164 21.4891 5.63141C21.6065 6.43198 21.6743 6.54672 22.5192 7.41119C22.9169 7.8167 23.3784 8.32781 23.5453 8.54817L23.8491 8.94715L23.5453 8.66161C23.1737 8.31347 22.3184 7.63155 22.1293 7.53506C22.0029 7.46987 21.9833 7.47117 21.9051 7.5481C21.8334 7.62112 21.8177 7.72803 21.8086 8.23785C21.7929 9.0306 21.6847 9.54172 21.4226 10.0502C21.2818 10.324 21.2597 10.2667 21.3874 9.95505C21.4826 9.72296 21.4917 9.62126 21.4917 8.85328C21.4917 7.30949 21.3079 6.93919 20.2322 6.3029C19.9085 6.11508 19.5761 5.94278 19.236 5.78657C19.068 5.71917 18.9051 5.63987 18.7484 5.54926C18.7784 5.51927 19.8267 5.82438 20.2478 5.98736C20.8763 6.22858 20.9793 6.25987 21.0562 6.22988C21.1071 6.21033 21.1319 6.06168 21.1566 5.62489ZM8.63034 8.26523C7.8754 7.22604 7.40861 5.63141 7.50901 4.43967L7.5403 4.07067L7.71241 4.10196C8.03577 4.16064 8.59253 4.36795 8.8533 4.52703C9.56782 4.96121 9.87814 5.53361 10.1924 7.00178C10.285 7.43205 10.4062 7.9184 10.4623 8.08399C10.5509 8.34868 10.8899 8.96802 11.1664 9.37091C11.3646 9.66037 11.2316 9.79728 10.7935 9.75816C10.1233 9.69688 9.21578 9.07102 8.63034 8.26523ZM20.2413 16.0037C16.7117 14.5825 15.4692 13.349 15.4692 11.268C15.4692 10.9616 15.4796 10.7113 15.4913 10.7113C15.5044 10.7113 15.6413 10.8117 15.7951 10.9356C16.5109 11.5093 17.3128 11.7544 19.5307 12.0778C20.8359 12.2694 21.5713 12.4233 22.2493 12.6475C24.4033 13.3621 25.7358 14.812 26.054 16.786C26.1453 17.3597 26.0918 18.4354 25.9419 19.0026C25.8245 19.4512 25.4633 20.2583 25.3682 20.2895C25.3421 20.2974 25.316 20.197 25.3082 20.0575C25.2717 19.3169 24.8975 18.5945 24.2677 18.0534C23.5519 17.4393 22.5922 16.949 20.2413 16.0037ZM17.764 16.5931C17.7223 16.3412 17.6652 16.0921 17.5932 15.8473L17.5019 15.5787L17.6701 15.7664C17.9009 16.0272 18.0847 16.3584 18.2386 16.8017C18.3572 17.1394 18.3703 17.2398 18.369 17.7887C18.369 18.3285 18.3546 18.4407 18.2451 18.7458C18.0928 19.1931 17.8378 19.5986 17.5006 19.9297C16.8552 20.5868 16.0272 20.9493 14.8303 21.1006C14.6216 21.1266 14.0166 21.171 13.4834 21.1983C12.1404 21.2688 11.2576 21.4122 10.4636 21.6912C10.392 21.7233 10.3151 21.7419 10.2367 21.746C10.2054 21.7134 10.7452 21.3913 11.1924 21.1762C11.8222 20.8724 12.4481 20.7068 13.8523 20.4734C14.546 20.3573 15.2631 20.2178 15.4444 20.1618C17.1629 19.635 18.0469 18.2764 17.764 16.5931Z" fill="var(--fill-0, white)"/>
<path id="Vector_3" d="M19.3808 19.4668C18.9114 18.4589 18.8045 17.4849 19.0613 16.5774C19.0887 16.481 19.133 16.4014 19.1591 16.4014C19.2474 16.4334 19.3304 16.4782 19.4055 16.5344C19.622 16.6805 20.0549 16.9256 21.2088 17.554C22.6496 18.3403 23.471 18.9492 24.0304 19.6429C24.5193 20.2518 24.8218 20.9454 24.9679 21.7903C25.05 22.2689 25.0018 23.4202 24.8792 23.9026C24.492 25.4229 23.591 26.6173 22.308 27.3135C22.1869 27.3836 22.0614 27.4459 21.9325 27.5C21.9142 27.5 21.982 27.3266 22.085 27.1127C22.5153 26.2105 22.5661 25.3317 22.2389 24.3537C22.0394 23.7553 21.6313 23.0238 20.8085 21.7903C19.8515 20.3561 19.6168 19.9727 19.3808 19.4668ZM6.12429 24.9053C7.43469 23.7996 9.06322 23.0147 10.5483 22.7735C11.1872 22.6691 12.2538 22.7109 12.8458 22.8621C13.795 23.1046 14.6451 23.6497 15.0871 24.2977C15.5174 24.9314 15.7038 25.4842 15.8955 26.7125C15.9737 27.1975 16.0559 27.6838 16.0807 27.7947C16.2241 28.431 16.507 28.9408 16.8565 29.1963C17.4106 29.6018 18.3664 29.6266 19.3051 29.2615C19.4032 29.2165 19.5066 29.1841 19.6129 29.165C19.6468 29.1989 19.1748 29.5158 18.841 29.6827C18.4471 29.8935 18.0059 30.0003 17.5593 29.993C16.6987 29.993 15.9842 29.5562 15.3883 28.663C15.271 28.487 15.0076 27.9616 14.8016 27.4935C14.1731 26.0592 13.8628 25.6211 13.1326 25.1426C12.495 24.7253 11.6749 24.651 11.0581 24.9535C10.2471 25.3512 10.0216 26.3878 10.6018 27.0436C10.8326 27.3044 11.2629 27.53 11.6149 27.573C11.7685 27.5934 11.9246 27.5805 12.0728 27.5353C12.221 27.4901 12.3577 27.4136 12.4738 27.311C12.5899 27.2084 12.6826 27.0821 12.7456 26.9406C12.8087 26.7991 12.8406 26.6457 12.8392 26.4908C12.8392 26.0579 12.6723 25.8128 12.2551 25.6237C11.6853 25.3669 11.0725 25.6667 11.0751 26.2026C11.0764 26.4308 11.1755 26.5742 11.405 26.6785C11.5523 26.7437 11.5549 26.7503 11.435 26.7255C10.9121 26.616 10.7896 25.9862 11.2107 25.5677C11.7153 25.0644 12.7597 25.286 13.1183 25.9719C13.2695 26.26 13.2865 26.835 13.1548 27.1818C12.8614 27.9577 12.0035 28.3645 11.1338 28.1428C10.5418 27.9916 10.3006 27.8286 9.58738 27.0932C8.3474 25.8154 7.86627 25.5676 6.07736 25.2886L5.73444 25.2352L6.1256 24.9053H6.12429Z" fill="var(--fill-0, white)"/>
<path id="Vector_4" fill-rule="evenodd" clip-rule="evenodd" d="M0 0.21383L0.125171 0.366383C4.95993 6.28597 7.45815 9.35789 7.61723 9.57694C7.878 9.93942 7.78021 10.2641 7.33168 10.5196C7.08264 10.6618 6.56891 10.8052 6.31335 10.8052C6.02259 10.8052 5.69532 10.6657 5.45671 10.4401C5.28851 10.2797 4.60919 9.26532 3.04063 6.83099C2.3061 5.68044 1.562 4.53604 0.808401 3.39789C0.744511 3.33791 0.745815 3.33921 2.91807 7.22606C4.28192 9.66691 4.74349 10.5288 4.74349 10.6448C4.74349 10.8795 4.6783 11.0021 4.38884 11.3254C3.9064 11.8639 3.69126 12.4689 3.5348 13.7206C3.36008 15.1249 2.86982 16.1159 1.50858 17.8122C0.713219 18.8058 0.582831 18.9883 0.380731 19.3886C0.127779 19.8919 0.058674 20.1748 0.0299888 20.8111C-3.08439e-07 21.4839 0.0586744 21.9194 0.264686 22.5622C0.444621 23.1255 0.632378 23.4984 1.1122 24.2416C1.52683 24.8844 1.76544 25.3616 1.76544 25.5481C1.76544 25.6967 1.79413 25.6967 2.43694 25.552C3.9742 25.2052 5.22201 24.5936 5.9248 23.8452C6.35899 23.3823 6.46069 23.1268 6.4646 22.4918C6.46591 22.0772 6.45156 21.9898 6.33943 21.7512C6.15689 21.3626 5.8244 21.0393 5.09162 20.5386C4.13067 19.8814 3.72125 19.3521 3.60782 18.6258C3.51394 18.03 3.62216 17.6088 4.15414 16.4953C4.70307 15.3427 4.83998 14.8524 4.93255 13.6907C4.99123 12.9396 5.07337 12.6437 5.28981 12.4063C5.51408 12.1586 5.71748 12.0739 6.27424 11.9982C7.18173 11.8744 7.75935 11.6397 8.23396 11.2029C8.64598 10.8221 8.81809 10.4558 8.84417 9.90552L8.86503 9.48828L8.63425 9.21968C8.30306 8.83373 5.56362 5.81136 0.414631 0.14994L0.276421 -5.24521e-06L0 0.215134V0.21383ZM2.23484 21.5739C2.3258 21.4128 2.35297 21.2235 2.31095 21.0433C2.26893 20.8632 2.1608 20.7054 2.00796 20.6012C1.71068 20.403 1.24781 20.4969 1.24781 20.755C1.24781 20.8333 1.29083 20.8906 1.38862 20.9415C1.55422 21.0262 1.56595 21.1227 1.43687 21.317C1.30518 21.5152 1.31561 21.6899 1.46686 21.8086C1.70938 21.9989 2.0523 21.8933 2.23484 21.5739ZM9.43743 12.2173C9.01106 12.3477 8.59774 12.8001 8.46865 13.2734C8.39042 13.5616 8.43475 14.0688 8.5521 14.2252C8.74116 14.4782 8.92501 14.5447 9.42048 14.5408C10.3906 14.5343 11.2329 14.1183 11.332 13.5981C11.4128 13.1717 11.0412 12.5811 10.5314 12.3203C10.268 12.1873 9.70864 12.1338 9.43743 12.2173ZM10.5718 13.1039C10.7217 12.8914 10.6552 12.6606 10.4023 12.5067C9.91726 12.2108 9.18448 12.4546 9.18448 12.9136C9.18448 13.1404 9.56651 13.3895 9.91595 13.3895C10.1506 13.3895 10.4688 13.25 10.5718 13.1039Z" fill="var(--fill-0, white)"/>
</g>
</svg>
