<svg preserveAspectRatio="none" width="100%" height="100%" overflow="visible" style="display: block;" viewBox="0 0 45 45" fill="none" xmlns="http://www.w3.org/2000/svg">
<g id="Flags">
<g clip-path="url(#clip0_4889_1061)">
<rect width="44.9915" height="44.9915" rx="22.4957" fill="var(--fill-0, white)"/>
<path id="Vector" fill-rule="evenodd" clip-rule="evenodd" d="M7.13043e-05 -3.70896e-07H26.995V20.996H7.13043e-05V-3.70896e-07Z" fill="var(--fill-0, #1A47B8)"/>
<path id="Vector_2" fill-rule="evenodd" clip-rule="evenodd" d="M26.995 -3.70896e-07V2.99943H62.9882V-3.70896e-07H26.995ZM26.995 5.99886V8.9983H62.9882V5.99886H26.995ZM26.995 11.9977V14.9972H62.9882V11.9977H26.995ZM26.995 17.9966V20.996H62.9882V17.9966H26.995ZM7.13043e-05 23.9955V26.9949H62.9882V23.9955H7.13043e-05ZM7.13043e-05 29.9943V32.9937H62.9882V29.9943H7.13043e-05ZM7.13043e-05 35.9932V38.9926H62.9882V35.9932H7.13043e-05ZM7.13043e-05 41.992V44.9915H62.9882V41.992H7.13043e-05Z" fill="var(--fill-0, #F93939)"/>
<path id="Vector_3" fill-rule="evenodd" clip-rule="evenodd" d="M2.99976 3.00391V6.00334H5.99919V3.00391H2.99976ZM8.99862 3.00391V6.00334H11.9981V3.00391H8.99862ZM14.9975 3.00391V6.00334H17.9969V3.00391H14.9975ZM20.9963 3.00391V6.00334H23.9958V3.00391H20.9963ZM17.9969 6.00334V9.00277H20.9963V6.00334H17.9969ZM11.9981 6.00334V9.00277H14.9975V6.00334H11.9981ZM5.99919 6.00334V9.00277H8.99862V6.00334H5.99919ZM2.99976 9.00277V12.0022H5.99919V9.00277H2.99976ZM8.99862 9.00277V12.0022H11.9981V9.00277H8.99862ZM14.9975 9.00277V12.0022H17.9969V9.00277H14.9975ZM20.9963 9.00277V12.0022H23.9958V9.00277H20.9963ZM2.99976 15.0016V18.0011H5.99919V15.0016H2.99976ZM8.99862 15.0016V18.0011H11.9981V15.0016H8.99862ZM14.9975 15.0016V18.0011H17.9969V15.0016H14.9975ZM20.9963 15.0016V18.0011H23.9958V15.0016H20.9963ZM17.9969 12.0022V15.0016H20.9963V12.0022H17.9969ZM11.9981 12.0022V15.0016H14.9975V12.0022H11.9981ZM5.99919 12.0022V15.0016H8.99862V12.0022H5.99919Z" fill="var(--fill-0, white)"/>
</g>
</g>
<defs>
<clipPath id="clip0_4889_1061">
<rect width="44.9915" height="44.9915" rx="22.4957" fill="white"/>
</clipPath>
</defs>
</svg>
