<svg preserveAspectRatio="none" width="100%" height="100%" overflow="visible" style="display: block;" viewBox="0 0 30 30" fill="none" xmlns="http://www.w3.org/2000/svg">
<g id="Flags">
<g clip-path="url(#clip0_4868_796)">
<rect width="30" height="30" rx="15" fill="var(--fill-0, white)"/>
<path id="Vector" fill-rule="evenodd" clip-rule="evenodd" d="M2.65421e-06 -0.000920187H18V13.9991H2.65421e-06V-0.000920187Z" fill="var(--fill-0, #1A47B8)"/>
<path id="Vector_2" fill-rule="evenodd" clip-rule="evenodd" d="M18 -0.000920187V1.99908H42V-0.000920187H18ZM18 3.99908V5.99908H42V3.99908H18ZM18 7.99908V9.99908H42V7.99908H18ZM18 11.9991V13.9991H42V11.9991H18ZM2.65421e-06 15.9991V17.9991H42V15.9991H2.65421e-06ZM2.65421e-06 19.9991V21.9991H42V19.9991H2.65421e-06ZM2.65421e-06 23.9991V25.9991H42V23.9991H2.65421e-06ZM2.65421e-06 27.9991V29.9991H42V27.9991H2.65421e-06Z" fill="var(--fill-0, #F93939)"/>
<path id="Vector_3" fill-rule="evenodd" clip-rule="evenodd" d="M2.00001 1.99867V3.99867H4.00001V1.99867H2.00001ZM6.00001 1.99867V3.99867H8.00001V1.99867H6.00001ZM10 1.99867V3.99867H12V1.99867H10ZM14 1.99867V3.99867H16V1.99867H14ZM12 3.99867V5.99867H14V3.99867H12ZM8.00001 3.99867V5.99867H10V3.99867H8.00001ZM4.00001 3.99867V5.99867H6.00001V3.99867H4.00001ZM2.00001 5.99867V7.99867H4.00001V5.99867H2.00001ZM6.00001 5.99867V7.99867H8.00001V5.99867H6.00001ZM10 5.99867V7.99867H12V5.99867H10ZM14 5.99867V7.99867H16V5.99867H14ZM2.00001 9.99867V11.9987H4.00001V9.99867H2.00001ZM6.00001 9.99867V11.9987H8.00001V9.99867H6.00001ZM10 9.99867V11.9987H12V9.99867H10ZM14 9.99867V11.9987H16V9.99867H14ZM12 7.99867V9.99867H14V7.99867H12ZM8.00001 7.99867V9.99867H10V7.99867H8.00001ZM4.00001 7.99867V9.99867H6.00001V7.99867H4.00001Z" fill="var(--fill-0, white)"/>
</g>
</g>
<defs>
<clipPath id="clip0_4868_796">
<rect width="30" height="30" rx="15" fill="white"/>
</clipPath>
</defs>
</svg>
