<svg preserveAspectRatio="none" width="100%" height="100%" overflow="visible" style="display: block;" viewBox="0 0 30 28" fill="none" xmlns="http://www.w3.org/2000/svg">
<g id="Group">
<path id="path9698" fill-rule="evenodd" clip-rule="evenodd" d="M13.0522 26.8191L11.9136 24.578L0.0666237 1.02222C0.0666237 1.02222 -0.199872 0.235441 0.33312 0.116232C2.07746 0.0685482 3.67643 0.0685482 5.27541 0.0447063C5.27541 0.0447063 5.46922 0.0447064 5.61458 0.402334C5.75995 0.759962 15.1358 19.1897 15.1358 19.1897C15.1358 19.1897 17.2193 21.0971 18.8667 19.1659C20.175 16.6386 25.1172 6.88732 28.4848 0.211599C28.4848 0.211599 29.1147 -0.146029 29.6477 0.0685482C30.1807 0.283125 29.9384 0.712278 29.9384 0.712278L16.8559 26.5807C16.8801 26.5807 15.3053 28.8695 13.0522 26.8191V26.8191Z" fill="var(--fill-0, #FCF9FE)"/>
<path id="path9728" fill-rule="evenodd" clip-rule="evenodd" d="M0.284675 1.35602L8.66718 11.3696L12.3254 25.3171L0.284675 1.35602Z" fill="var(--fill-0, #1F231C)" fill-opacity="0.0549828"/>
<path id="path9730" fill-rule="evenodd" clip-rule="evenodd" d="M6.14758 1.42754L8.64295 11.3696L14.6997 18.2837L6.14758 1.42754V1.42754Z" fill="var(--fill-0, #15191C)" fill-opacity="0.0549828"/>
<path id="path9732" fill-rule="evenodd" clip-rule="evenodd" d="M12.2528 25.174L8.64295 11.3696L14.6997 18.2599L15.4992 21.5262L12.2528 25.174V25.174Z" fill="var(--fill-0, white)"/>
</g>
</svg>
