<svg preserveAspectRatio="none" width="100%" height="100%" overflow="visible" style="display: block;" viewBox="0 0 28 28" fill="none" xmlns="http://www.w3.org/2000/svg">
<g id="Group">
<path id="oval" fill-rule="evenodd" clip-rule="evenodd" d="M13.8431 27.6861C21.4884 27.6861 27.6861 21.4884 27.6861 13.8431C27.6861 6.19775 21.4884 -1.00136e-05 13.8431 -1.00136e-05C6.19775 -1.00136e-05 -1.00136e-05 6.19775 -1.00136e-05 13.8431C-1.00136e-05 21.4884 6.19775 27.6861 13.8431 27.6861Z" fill="var(--fill-0, white)"/>
<path id="Laag_2" fill-rule="evenodd" clip-rule="evenodd" d="M25.6593 6.64775L14.5066 22.4381C14.3543 22.6462 14.1113 22.7677 13.8543 22.7677C13.5763 22.7552 13.3137 22.6295 13.1307 22.4199L11.2058 19.8678L22.7957 3.29245C16.9721 -1.6553 8.2402 -0.945685 3.29245 4.87791C-1.6553 10.7015 -0.945685 19.4334 4.87791 24.3811C10.7015 29.3289 19.4334 28.6193 24.3811 22.7957C28.2421 18.2516 28.7576 11.745 25.6607 6.65055V6.64775H25.6593ZM3.4852 13.4952L4.70049 12.1445L5.72021 13.4966L3.4852 13.4952ZM5.08184 11.7058L5.0539 11.738L10.8719 19.418L13.5399 15.5989L10.552 11.7058H5.08184Z" fill="var(--fill-0, #03976D)"/>
</g>
</svg>
