<svg preserveAspectRatio="none" width="100%" height="100%" overflow="visible" style="display: block;" viewBox="0 0 45 45" fill="none" xmlns="http://www.w3.org/2000/svg">
<g id="Group">
<path id="Vector" d="M22.4957 44.9915C34.9198 44.9915 44.9915 34.9198 44.9915 22.4957C44.9915 10.0717 34.9198 0 22.4957 0C10.0717 0 0 10.0717 0 22.4957C0 34.9198 10.0717 44.9915 22.4957 44.9915Z" fill="var(--fill-0, #23292F)"/>
<path id="Vector_2" d="M32.4354 11.252H36.4987L28.0417 19.6274C26.5632 21.0842 24.5708 21.9008 22.4951 21.9008C20.4195 21.9008 18.4271 21.0842 16.9485 19.6274L8.48451 11.252H12.5548L18.9802 17.6112C19.9159 18.5348 21.1776 19.0526 22.4923 19.0526C23.807 19.0526 25.0688 18.5348 26.0045 17.6112L32.4354 11.252ZM12.5056 34.5393H8.4353L16.9485 26.1132C18.4271 24.6564 20.4195 23.8398 22.4951 23.8398C24.5708 23.8398 26.5632 24.6564 28.0417 26.1132L36.555 34.5379H32.4847L26.0101 28.1238C25.0744 27.2002 23.8126 26.6824 22.498 26.6824C21.1833 26.6824 19.9215 27.2002 18.9858 28.1238L12.5042 34.5393H12.5056Z" fill="var(--fill-0, white)"/>
</g>
</svg>
