<svg preserveAspectRatio="none" width="100%" height="100%" overflow="visible" style="display: block;" viewBox="0 0 45 45" fill="none" xmlns="http://www.w3.org/2000/svg">
<g id="Flags">
<g clip-path="url(#clip0_4889_1048)">
<rect width="44.9915" height="44.9915" rx="22.4957" fill="var(--fill-0, white)"/>
<path id="Vector" d="M40.7066 0H4.2849C1.91842 0 0 2.68578 0 5.99886V38.9926C0 42.3057 1.91842 44.9915 4.2849 44.9915H40.7066C43.0731 44.9915 44.9915 42.3057 44.9915 38.9926V5.99886C44.9915 2.68578 43.0731 0 40.7066 0Z" fill="var(--fill-0, white)"/>
<path id="Vector_2" fill-rule="evenodd" clip-rule="evenodd" d="M0 29.9922H44.9915V44.9893H0V29.9922Z" fill="var(--fill-0, #1A47B8)"/>
<path id="Vector_3" fill-rule="evenodd" clip-rule="evenodd" d="M0 0H44.9915V14.9972H0V0Z" fill="var(--fill-0, #F93939)"/>
<path id="Vector_4" fill-rule="evenodd" clip-rule="evenodd" d="M17.1675 29.9943L4.2849 45.0905H0V0H4.2849L17.1396 14.9972H44.9915V29.9943H17.1675Z" fill="var(--fill-0, white)"/>
<path id="Vector_5" fill-rule="evenodd" clip-rule="evenodd" d="M16.4969 26.9949L1.07123 44.9915L0 45.0905V0H1.07123L16.4969 17.9966H44.9915V26.9949H16.4969Z" fill="var(--fill-0, #249F58)"/>
<path id="Vector_6" fill-rule="evenodd" clip-rule="evenodd" d="M0 8.99805L12.8547 22.4955L0 35.9929V8.99805Z" fill="var(--fill-0, #FFDA2C)"/>
<path id="Vector_7" fill-rule="evenodd" clip-rule="evenodd" d="M0 11.998L10.1766 22.4961L0 32.9941V11.998Z" fill="var(--fill-0, #151515)"/>
</g>
</g>
<defs>
<clipPath id="clip0_4889_1048">
<rect width="44.9915" height="44.9915" rx="22.4957" fill="white"/>
</clipPath>
</defs>
</svg>
